<svg id="Layer_1" data-name="Layer 1" xmlns="http://www.w3.org/2000/svg" viewBox="0 0 562.71 538.95"><defs><style>.cls-1{fill:#1c84a1;}.cls-2,.cls-3{fill:#b1e15a;}.cls-3{opacity:0.39;}</style></defs><ellipse class="cls-1" cx="281.36" cy="269.48" rx="281.36" ry="269.48"/><path class="cls-2" d="M639.79,469.13c.8-2,1.81-4.28,3.91-5.07a8.68,8.68,0,0,1,3-.35h4.83a8.21,8.21,0,0,1,5.91,1.93c4.19,2.73,8.7,5.21,13.68,6.12,1.31.24,2.65.37,4,.64a17.93,17.93,0,0,1,10.06,6c-.31.58-1.1.71-1.78.77l-12.46,1.22a1.7,1.7,0,0,1-.81-.06c-.65-.27-.66-1.14-.49-1.8a10.17,10.17,0,0,1,.9-2.25,2.67,2.67,0,0,0,.48-1.37c-.07-1.19-1.69-1.53-2.93-1.67-3.54-.39-6.86-1.81-10.21-3a27,27,0,0,0-8.26-1.79,16.2,16.2,0,0,0-6.87,1.4,4.33,4.33,0,0,1-2.25.61c-.78-.1-1.49-1-1.07-1.61" transform="translate(-401.64 -97.05)"/><path class="cls-2" d="M689.48,479.81a9.09,9.09,0,0,1,4.56,4.25,18.55,18.55,0,0,1-8.16,1.58c.93,2.4,4.08,3.07,6.73,3.38a3.47,3.47,0,0,0,1.4,0,5.07,5.07,0,0,0,1.39-.87,5.82,5.82,0,0,1,5.84-.44,2,2,0,0,0,1.23.37c.61-.12.85-.8,1.19-1.3,1.05-1.57,3.42-1.61,5.35-1.29s4.09.78,5.69-.3a1.6,1.6,0,0,0,.74-1c.2-1-1-1.64-1.92-1.95a29.54,29.54,0,0,0-7.55-1.2c-2.48-.12-5.28-.14-7-1.85a5.64,5.64,0,0,0-1.19-1.1,3.56,3.56,0,0,0-2-.19l-6.08.61a.94.94,0,0,0,0,1.46" transform="translate(-401.64 -97.05)"/><path class="cls-2" d="M669.26,485.09a8.79,8.79,0,0,0,3.2.2,8,8,0,0,1,3.19.25,2.6,2.6,0,0,1,1.85,2.29,1.22,1.22,0,0,1-.34.87,2,2,0,0,1-1,.41c-.9.2-2,.36-2.64-.27a4.42,4.42,0,0,0-.52-.54c-.48-.31-1.13-.05-1.72,0a2.44,2.44,0,0,1-2-1.18,6.58,6.58,0,0,1-.81-2.19l.89.05" transform="translate(-401.64 -97.05)"/><path class="cls-2" d="M664,270.22a12.34,12.34,0,0,1,5.62,6.23,8.93,8.93,0,0,1-2.2,1.17,3.15,3.15,0,0,1-1.42.23,3.56,3.56,0,0,1-2.2-1.75c-.91.15-1.36,1.11-1.79,1.9a9.7,9.7,0,0,1-1.55,2.16,1.5,1.5,0,0,1-1.3.62c-.54-.12-.78-.72-.88-1.25a8.84,8.84,0,0,1,1-5.85,2.65,2.65,0,0,1,.71-.88,4.58,4.58,0,0,1,1.38-.46,4.26,4.26,0,0,0,2.54-2" transform="translate(-401.64 -97.05)"/><path class="cls-2" d="M676.48,272.44l-.21,2.39,9.63.21a3.81,3.81,0,0,1,2.17.49c1.51,1.08.61,3.63,1.88,5a4.32,4.32,0,0,0,1.58.89l10.76,4.14c.54.21,1.26.38,1.62-.06a1.11,1.11,0,0,0,0-1.2A5.17,5.17,0,0,0,701,281.7a7.83,7.83,0,0,1-1.93-.79,1.22,1.22,0,0,1-.36-1.76l7.13,1.64c.69.16,1.55.27,2-.28a1.36,1.36,0,0,0,.18-1.1c-.49-2.59-3.57-3.75-5.68-5.43a9.43,9.43,0,0,1-3.37-9.16,4.91,4.91,0,0,1,3.71,2.51,13.59,13.59,0,0,0,1.15,2.4c.56.7,1.76,1.07,2.39.43a2.09,2.09,0,0,0,.41-.78l2-5.35a2.63,2.63,0,0,0,.23-1.62,2.67,2.67,0,0,0-1.6-1.44,24.52,24.52,0,0,0-7.09-2.07,11.54,11.54,0,0,1-3.16-.65,2.76,2.76,0,0,1-1.8-2.37c0-1.06,1-2,.8-3-.28-2.05-3.8-1.88-4.93-3.64-.65-1-.31-2.33-.69-3.45-.67-2-3.28-2.7-5.48-3.05.33-2.08-2.08-3.76-4.28-3.74s-4.21,1.11-6.24,1.91a.68.68,0,0,1-.46.06c-.27-.1-.29-.44-.26-.71.16-1.7.32-3.39.47-5.09-1.57-1.25-4.18-.47-5.3,1.17a7.28,7.28,0,0,0-.68,5.7c-2.59-.6-3.84-4.09-2.18-6.08.52-.62,1.26-1.47.71-2a1.21,1.21,0,0,0-.8-.31,4.25,4.25,0,0,0-3.83,2.71c-1.31,2.87-.5,6.18.33,9.21a3.76,3.76,0,0,0,1.26,2.29c1.14.79,2.71.25,4.11.37,2.12.17,3.84,1.89,6,2.05a7.69,7.69,0,0,1,2.55.23,3.54,3.54,0,0,1,1.31,1.24c1.51,2,3.12,4.43,5.69,4.9a4.18,4.18,0,0,1,2,.57,2.78,2.78,0,0,1,.64,1l1.14,2.48a1.9,1.9,0,0,1,.26,1.28c-.14.53-.67.84-1.09,1.2-2.14,1.8-1.79,5-1.26,7.71l-6.11.5c-.93.07-2.07.31-2.33,1.17" transform="translate(-401.64 -97.05)"/><path class="cls-2" d="M621.49,225.58a6,6,0,0,1,4.41-2.21c1.05,0,2.1.19,3.15.16a3.09,3.09,0,0,0,2.68-1.3,2.51,2.51,0,0,0-.19-2.44,7.88,7.88,0,0,0-1.79-1.86l-1.06-.88a8.15,8.15,0,0,0-2.15-1.43,2.8,2.8,0,0,0-2.51.12,7.16,7.16,0,0,0-1.52,1.95,4.59,4.59,0,0,1-2.87,1.75,14.25,14.25,0,0,0-2,.29c-1.79.56-2.51,2.57-3,4.31a1.4,1.4,0,0,0,0,.88,1.55,1.55,0,0,0,1,.69,10,10,0,0,0,3.3.74,3.36,3.36,0,0,0,2.91-1.42" transform="translate(-401.64 -97.05)"/><path class="cls-2" d="M622.68,226.74c2.86-.76,5.74-1.4,8.66-1.91a1.33,1.33,0,0,1,.74,0,1.05,1.05,0,0,1,.5.54,2.9,2.9,0,0,1,.23,1.83,1.83,1.83,0,0,0-.08.8,1,1,0,0,0,1.12.59,2.93,2.93,0,0,0,1.23-.59c.42.54.83,1.08,1.25,1.61a1.05,1.05,0,0,0,.58.46,1.1,1.1,0,0,0,.76-.26,14,14,0,0,1,5.57-2.06,1.61,1.61,0,0,1,1,.09,1,1,0,0,1,.44.6c.34,1.05-.52,2.12-1.48,2.74a11,11,0,0,0-2.81,1.88,6.05,6.05,0,0,0-.88,1.69c-.52,1.35-1,2.7-1.57,4.06-.29.74-.53,1.69.08,2.22a2.94,2.94,0,0,0,1.51.44,3,3,0,0,1,2.06,1.2,1.76,1.76,0,0,1-.17,2.2c-1.09,1-3.08.1-4.38.87-.71.42-1.09,1.3-1.89,1.53-1.15.34-2.14-.88-2.48-2-.23-.75-.43-1.63-1.15-2a2.69,2.69,0,0,0-1.09-.22l-6.19-.39c-1.51-.09-3.29-.37-3.91-1.68s.18-2.77-.59-3.87c-.36-.51-1-1-.81-1.59a1.13,1.13,0,0,1,.67-.53,4.45,4.45,0,0,1,2.14-.26c.68.08,1.44.31,2-.07a1.27,1.27,0,0,0,.5-.83,3.32,3.32,0,0,0-1.24-2.68,4.83,4.83,0,0,1-1.66-2.52c-.13-1,1-2.14,1.9-1.66" transform="translate(-401.64 -97.05)"/><path class="cls-2" d="M643.46,232.79a5.93,5.93,0,0,0,1.66,3.1,3.78,3.78,0,0,1,.8.9c.5,1-.27,2.49.63,3.21a1.41,1.41,0,0,0,1.67-.08,2.38,2.38,0,0,0,.83-1.5c.24-1.29-.07-2.75.75-3.79a8.27,8.27,0,0,1,.92-.85,5.17,5.17,0,0,0,1.7-4.16,1.24,1.24,0,0,0-.38-.9,1.06,1.06,0,0,0-.82-.17c-2,.27-2.37,3.1-4.23,3.74a4.85,4.85,0,0,1-3.14-.48.83.83,0,0,0-.51-.07c-.49.17-.13.9-.28,1.37l.45.11" transform="translate(-401.64 -97.05)"/><path class="cls-2" d="M660.9,221.21a4,4,0,0,1,3.23,1.53,3.67,3.67,0,0,1,.55,3.41c-.21.58-.56,1.19-.32,1.75a1.84,1.84,0,0,0,.83.75,14.83,14.83,0,0,0,8.57,1.86,2.36,2.36,0,0,0,1.64-.61,1.87,1.87,0,0,0,0-2.16,4.34,4.34,0,0,0-2.35-1.85c-1.56-.52-3.49-.24-4.66-1.36a8.14,8.14,0,0,1-1.27-2.25,5.87,5.87,0,0,0-7-2.52,1.8,1.8,0,0,0,1.16,1.67" transform="translate(-401.64 -97.05)"/><path class="cls-2" d="M655.25,225.41a11.94,11.94,0,0,0,1.52-6.6.87.87,0,0,0-.17-.52.81.81,0,0,0-.45-.18,3.08,3.08,0,0,0-3.14,1.58,1.46,1.46,0,0,1-.71-1.22,2.72,2.72,0,0,0-.41-1.38,1.62,1.62,0,0,0-2.11-.1,3.32,3.32,0,0,0-1.09,1.93,3.93,3.93,0,0,0-.08,1.77,1.93,1.93,0,0,0,1.11,1.36c.73.29,1.76.09,2.18.73a1.91,1.91,0,0,1,.22.7,3.05,3.05,0,0,0,.94,1.75,2,2,0,0,0,1.94.42.84.84,0,0,0,.5-.4.78.78,0,0,0-.35-.92,2.46,2.46,0,0,0-1-.3" transform="translate(-401.64 -97.05)"/><path class="cls-2" d="M645.6,222.63a3.26,3.26,0,0,0,.17-4.06,2.33,2.33,0,0,1-.66-1.14c-.05-.66.68-1.3.38-1.9-.73-.37-1.66-.73-2.33-.27a1.73,1.73,0,0,0-.63,1.42,8.56,8.56,0,0,1,0,1.6.83.83,0,0,1-1.07-.26,2.06,2.06,0,0,1-.29-1.12,12.46,12.46,0,0,1,.22-2.79,6.88,6.88,0,0,0-3.19.08,3.75,3.75,0,0,0-1.9,1,1.64,1.64,0,0,0-.31,1.92,3.5,3.5,0,0,0,1.34,1c.49.29,1,.75.94,1.3-.07.79-1.21,1.44-.84,2.15a1.29,1.29,0,0,0,1,.51,33,33,0,0,0,3.85.2,6.14,6.14,0,0,1,3.6,1.13" transform="translate(-401.64 -97.05)"/><path class="cls-2" d="M634.49,212.12c2.78,0,5.62-.93,8.31-.21a.67.67,0,0,0,.42,0,.49.49,0,0,0,.18-.22,2,2,0,0,0-.95-2.25,5.79,5.79,0,0,0-4.18-.57,7.29,7.29,0,0,1-1.54.19,13.89,13.89,0,0,1-1.57-.26,2.17,2.17,0,0,0-1.53.23,1.47,1.47,0,0,0-.26,2,2.4,2.4,0,0,0,2.1.84" transform="translate(-401.64 -97.05)"/><path class="cls-2" d="M655.31,208.15a4.07,4.07,0,0,0-.85,2.85,3.33,3.33,0,0,0,1.73,2.15,14.16,14.16,0,0,0,2.73,1,3.65,3.65,0,0,1,.77.31c1.35.79,1.35,2.91,2.75,3.61a3.8,3.8,0,0,0,1.57.27c.23,0,.5,0,.59-.2a.36.36,0,0,0,0-.23c-.08-1-1.22-1.65-2.2-2.1a1.15,1.15,0,0,1-.55-.41,1.08,1.08,0,0,1,0-.91,4,4,0,0,0,.3-2.22,1.45,1.45,0,0,0-1.75-1.09c-.35.14-.77.44-1,.19s-.12-.4-.07-.62a2.77,2.77,0,0,0-.18-2.14,3.55,3.55,0,0,0-2.43-1.15,2.68,2.68,0,0,0-1.09-.05.85.85,0,0,0-.69.72" transform="translate(-401.64 -97.05)"/><path class="cls-2" d="M666.37,211.57a15.9,15.9,0,0,0-.17-4.82,1.74,1.74,0,0,1,.15-1.5,1.54,1.54,0,0,1,.52-.35,4.59,4.59,0,0,1,2.15-.61,1.9,1.9,0,0,1,1.77,1.11c.21.61,0,1.34.32,1.88.21.33.61.52.86.82a2.48,2.48,0,0,1,.45,1.29c.18,1.26.35,2.51.51,3.77a1,1,0,0,1,0,.58,1,1,0,0,1-.44.33l-3.54,1.83a2.55,2.55,0,0,1-2.39.34,2,2,0,0,1-.76-1.8,8.53,8.53,0,0,1,.46-3" transform="translate(-401.64 -97.05)"/><path class="cls-2" d="M669.11,219.18a2,2,0,0,0,.33,2.61,4.68,4.68,0,0,0,2.71,1.12c1,.14,2,.14,3,.36a6.17,6.17,0,0,0,3,.42c1.19-.34,1.77-1.64,2-2.82a7.67,7.67,0,0,1,1-3.42c.93-1.24,2.79-1.69,3.49-3.06.53-1.06.19-2.31.16-3.48a1.47,1.47,0,0,1,.23-.94,2.11,2.11,0,0,1,.89-.54,6.48,6.48,0,0,0,2.62-2,13,13,0,0,0,1.3-2.41q1-2.2,2-4.41c.37-.84.68-2-.07-2.53a2.19,2.19,0,0,0-1.13-.33,23.07,23.07,0,0,0-14.09,3.34,16.78,16.78,0,0,1-2.5,1.45,4.63,4.63,0,0,0-1.19.56c-1.19.89-.64,2.91.67,3.64a6.37,6.37,0,0,0,4.44.21c.89-.2,2.15-.24,2.39.61a4.65,4.65,0,0,1-2.84,1.34c-1,.1-2.31.09-2.55,1a2.08,2.08,0,0,0,.38,1.36,3.61,3.61,0,0,1,.3,3.26c-.63,1.23-2.16,1.71-3.51,2.16s-2.85,1.22-3.06,2.58" transform="translate(-401.64 -97.05)"/><path class="cls-2" d="M697.42,228.31a9.54,9.54,0,0,1-2.76-6.67,7.92,7.92,0,0,1-6.29-2.9,4.86,4.86,0,0,1,.44-6.36c1.46-1.29,4-1.86,4.27-3.75.17-1.18-.72-2.39-.34-3.52.3-.91,1.28-1.41,2.13-1.92a12.48,12.48,0,0,0,5.13-5.93c.59-1.44.92-3,2-4.22a8.55,8.55,0,0,1,3.29-2,49.59,49.59,0,0,1,9.36-2.76q.55,3,1.1,6a4.4,4.4,0,0,1,3.28-4.36,4.65,4.65,0,0,1,5.12,2.19c.83,1.58.58,3.54,1.45,5.1,2,3.62,8.71,3.26,10,7.17.28.88.24,1.88.83,2.6.83,1,2.44,1,3.79,1.11a8.19,8.19,0,0,1,6.21,4.2,14.65,14.65,0,0,0,1.11,2.16c1.65,2.23,5.83,3.24,5.26,5.91l-1.09,1.1c1.73-2.06,5.9-1,6.37,1.58a15.74,15.74,0,0,1-7.87.84,4.74,4.74,0,0,0,3.3,4.41,5,5,0,0,0,5.39-1.7c1.19.86,1.21,2.62.6,3.93s-1.7,2.35-2.44,3.59c-3.14,5.23.29,12.49-3.07,17.6-.83,1.26-2,2.33-2.5,3.76-.76,2.43.9,4.86,2.2,7.06a3.8,3.8,0,0,1,.74,2.56c-.22,1.18-1.41,2-1.84,3.08-.75,2,1,3.9,2.28,5.64a12.18,12.18,0,0,1,2.14,8.6l-7.53-.7c-2.62-.25-5.34-.52-7.64-1.74a19.36,19.36,0,0,1-4.81-4.12,184.8,184.8,0,0,1-12.63-14.53c-1.89-2.53-3.73-5.75-2.42-8.6.91-2,3.21-4,2-5.78a3.72,3.72,0,0,0-4,1.78,4.45,4.45,0,0,1-3.75-4,4.39,4.39,0,0,1,3.3-4.33c-1.57-2.45-6-2.35-7.44.18a2.79,2.79,0,0,1-2.49-2.42c-.26-1.2-.09-2.47-.37-3.67-.57-2.41-2.94-4.12-5.43-4.79s-3.69-1.49-6.28-1.4" transform="translate(-401.64 -97.05)"/><path class="cls-2" d="M783.49,245.78a6.76,6.76,0,0,0,5.21-5,33.61,33.61,0,0,0,.24-4.39c.21-2.38,1.28-4.92.13-7a6.67,6.67,0,0,0-4-2.77c-2.22-.72-5.2-.72-6.3,1.25-1,1.82.14,4.44-1.36,5.92-1.29,1.28-3.84.83-4.92,2.28a3.86,3.86,0,0,0-.58,1.61c-.31,1.52-.47,3.4.84,4.3s3.45.08,5,.8c1.05.49,1.59,1.6,2.24,2.54s1.75,1.83,2.88,1.52" transform="translate(-401.64 -97.05)"/><path class="cls-2" d="M630.08,145.72a3.85,3.85,0,0,1,2.4-2.09,7.42,7.42,0,0,1,1.69-.25l1.9-.15a1.38,1.38,0,0,1-.27,1.5,2.86,2.86,0,0,1-1.46.76,4,4,0,0,0-1.12.35c-.18.11-.34.27-.52.38a2,2,0,0,1-1.45.2,4.82,4.82,0,0,1-1.37-.56" transform="translate(-401.64 -97.05)"/><path class="cls-2" d="M638.58,143.2c.5-.7.64-1.58,1.09-2.32a6.82,6.82,0,0,1,2.71-2.16,5.33,5.33,0,0,1,3.42-.92,1.4,1.4,0,0,1,.71.32,1.71,1.71,0,0,1,.39,1.07,2.2,2.2,0,0,1-.08,1.22c-.6,1.26-3,.76-3.61,2a3.36,3.36,0,0,1-.28.68,1.39,1.39,0,0,1-.68.41,10.89,10.89,0,0,1-2.89.63.9.9,0,0,1-.63-.11c-.17-.13-.19-.44,0-.51" transform="translate(-401.64 -97.05)"/><path class="cls-2" d="M837.27,245.68a2.18,2.18,0,0,1-2.18,1.14,2.12,2.12,0,0,1-1.8-1.64,2.26,2.26,0,0,0-.23-.9c-.47-.67-1.57-.2-2.14.38s-1.35,1.32-2.11,1a1.27,1.27,0,0,1-.6-.63c-.42-.87-.28-2-1.05-2.64s-1.89-.26-2.88-.3c-2-.08-3.57-1.86-4.42-3.64-.67-1.39-1.05-3.2,0-4.34a3.37,3.37,0,0,1,3.8-.4,9.3,9.3,0,0,1,3,2.66,6.2,6.2,0,0,1,1.12-2.2,2.29,2.29,0,0,1,2.29-.75c1.24.41,1.52,2,2.54,2.79,1.54,1.19,3.91.08,5.78.71,1.44.5,2.29,1.93,3.6,2.71,1.76,1,4,.74,6,1.39a8,8,0,0,1,4.72,5,22.19,22.19,0,0,1,1,6.88c.12,3.18.24,6.37.35,9.55a6,6,0,0,1-3.68-3.89,9.39,9.39,0,0,1,.11-5.38A3.29,3.29,0,0,1,847,254.5a3.14,3.14,0,0,1-2.4-2.69c-.07-.78.11-1.74-.55-2.2-.41-.28-1-.23-1.43-.42-1.06-.43-1.14-1.8-1.37-2.89s-1.44-2.29-2.34-1.6c-.63.49-.8,1.75-1.59,1.56" transform="translate(-401.64 -97.05)"/><path class="cls-2" d="M831.5,251.47a7.14,7.14,0,0,0,3.19,4.69,2.85,2.85,0,0,1,1.13,1c.41.85-.37,1.85-.15,2.76.31,1.25,2.09,1.41,3.17,2.19,1.49,1.08,1.56,3.4,3.12,4.39a.73.73,0,0,0,1.18-.25c1-1.49.76-3.43.23-5.12A22.12,22.12,0,0,1,841.9,256a8.85,8.85,0,0,0-.21-2.13,4.28,4.28,0,0,0-2.54-2.38c-1.12-.47-2.33-.72-3.44-1.2-.75-.32-1.44-.74-2.2-1a3.83,3.83,0,0,0-2.38-.23,1.85,1.85,0,0,0-1.41,1.71,1.31,1.31,0,0,0,1.72,1.11" transform="translate(-401.64 -97.05)"/><path class="cls-2" d="M728.9,143.38a54.35,54.35,0,0,0-7,0c-.93.07-2.15.46-2.08,1.35,0,.57.62.94,1.16,1.18a9.49,9.49,0,0,0,5,.66,19.45,19.45,0,0,1,2.83-.39,12.49,12.49,0,0,1,4.2,1.3,18.26,18.26,0,0,0,9.4,1.07c2.6-.4,5.21-1.36,7.79-.86,1.75.34,3.81,1.26,5.09.07.94-.87.73-2.39.16-3.52a2.7,2.7,0,0,0-1.43-1.48,3.64,3.64,0,0,0-2.66.6,25.16,25.16,0,0,1-18.86,1.26,13.89,13.89,0,0,0-3.61-1" transform="translate(-401.64 -97.05)"/><path class="cls-2" d="M729,171.78a2.23,2.23,0,0,1,2-2.19,4.14,4.14,0,0,1,3.08,1c.84.68,1.58,1.59,2.65,1.78,1.91.33,3.62-1.83,5.51-1.41a4.17,4.17,0,0,1,1.86,1.22c.5.48,1,1.32.46,1.76a1.26,1.26,0,0,1-.84.21l-2.61.07a3.09,3.09,0,0,0-1.49.3.93.93,0,0,0-.38,1.27,1.23,1.23,0,0,0,.55.36c1.41.54,3,.3,4.53.39s3.25.74,3.64,2.15c-1.24,1-3.09.82-4.7.54s-3.43-.55-4.74.39a10.53,10.53,0,0,1-1,.76,3.74,3.74,0,0,1-1.73.29c-1.8,0-3.88-.23-4.87-1.68a6.08,6.08,0,0,1-.6-3.59,4,4,0,0,0-1.19-3.38" transform="translate(-401.64 -97.05)"/><path class="cls-2" d="M692,148.61a20.11,20.11,0,0,0,2.52-5.32c-.58-.92-2.22-.77-2.76-1.72a5.17,5.17,0,0,1-.3-.89,2,2,0,0,0-3.61-.33c-.58,1-.21,2.14-.07,3.24a4.84,4.84,0,0,0,.23,1.25,4.35,4.35,0,0,0,2.34,1.81c.92.44,1.91,1.09,2,2.07l-.51-.16" transform="translate(-401.64 -97.05)"/><path class="cls-2" d="M684.39,142.24a.65.65,0,0,0,.87-.35,1.77,1.77,0,0,0,0-1,6.6,6.6,0,0,0-2.46-.38,2.93,2.93,0,0,0-1.55.29,1.05,1.05,0,0,0-.53,1.3c.27.55,1,.62,1.67.6.86,0,1.71-.06,2.56-.11" transform="translate(-401.64 -97.05)"/><path class="cls-2" d="M901.59,261a16.06,16.06,0,0,0-1.63-4.41,6,6,0,0,0-1-1.39,7.72,7.72,0,0,0-2.32-1.41L894.9,253a.77.77,0,0,0-.44-.1c-.22,0-.34.25-.43.44-.42.87-.73,2-.1,2.71.39.47,1,.64,1.53,1,1.1.83,1.28,2.55,2.54,3.13.37.17.79.21,1.15.41.65.36,1.1,1.22,1.85,1.15a1.3,1.3,0,0,1,.34-.4" transform="translate(-401.64 -97.05)"/><path class="cls-2" d="M896.78,272.75a.4.4,0,0,0-.35-.28,1,1,0,0,0-.48.09,3.87,3.87,0,0,0-1.43,1c-.36.41-.6,1.05-.21,1.43a1.07,1.07,0,0,0,.45.23,1.64,1.64,0,0,0,.93,0,1.51,1.51,0,0,0,1-1.08,4.14,4.14,0,0,0,.05-1.49" transform="translate(-401.64 -97.05)"/><path class="cls-2" d="M909.86,226a1.75,1.75,0,0,0-.84,1,5.7,5.7,0,0,0-.22,1.3,8.15,8.15,0,0,0,0,1.71,2.6,2.6,0,0,0,.74,1.53.44.44,0,0,0,.28.14c.19,0,.28-.24.31-.42a24.52,24.52,0,0,0,.22-5.35" transform="translate(-401.64 -97.05)"/><path class="cls-2" d="M532.07,408.77c-.51-3.15-1.08-6.3-1.64-9.42A57.15,57.15,0,0,0,532.07,408.77Z" transform="translate(-401.64 -97.05)"/><path class="cls-3" d="M532.07,408.77c-.51-3.15-1.08-6.3-1.64-9.42A57.15,57.15,0,0,0,532.07,408.77Z" transform="translate(-401.64 -97.05)"/><path class="cls-2" d="M789.66,609.07c3.61-3.62,6.37-8.25,11-10.52,3.45-1.67,7.47-1.8,11.22-2.67,12.12-2.84,20.52-13.09,27.94-22.7l16.85-21.81c5.63-7.29,11.57-15.74,9.83-24.66q-20.68,4.51-41.5,8.52c-2.86.56-5.73,1.1-8.59,1.65l-7.71,1.46-17.86,3.4a58.51,58.51,0,0,1,9.76-14.21c-8.21-4.38-18.29-2.77-27.69-3s-20.49-4.06-22.27-12.9a3.8,3.8,0,0,0-1-2.34c-2.41-2-4.07,3.4-6.86,4.89-1.88,1-4.17-.05-6.14-.89a29.53,29.53,0,0,0-25.87,1.58,9.84,9.84,0,0,1-3.37-5.86l-8.42,6.63q-.28-3-.59-6c-1.39-1.53-4.14-.55-5.44,1.05s-1.92,3.69-3.48,5.06c-4.41,3.87-14.74,1.34-15,7.06-4.47-4.8-12.42-3.38-19.09-2.61s-15.57-1.33-16-7.75c-.28-4.41,4-8,4.3-12.46.35-4.59-3.83-8.59-8.44-9.87s-9.56-.5-14.29.29a132.89,132.89,0,0,1,6.27-22,65.47,65.47,0,0,0-17.62-1,22,22,0,0,0-.6,7.83c-4.49,2.95-11.32,1.88-14.6-2.28-1.54-1.95-2.29-4.34-3.18-6.63-2.06-5.33-5-10.39-6.14-16s-.09-12.06,4.56-15.59,10.91-3.11,16.66-2.61l23.9,2.07c7.6.66,16.79,2.48,19.14,9.43,1.69,5,0,12.43,5.18,14.06a59,59,0,0,0,4.93-25.87c-.09-2.38-.31-4.83.51-7.07,3.47-9.47,21.41-7.77,24.1-17.47,1-3.58-.7-7.46.24-11.05,2.3-8.78,17.63-9.51,19.66-18.35.42-1.85.15-3.82.65-5.65,1.09-3.91,5.27-6.12,9.06-7.9a21.18,21.18,0,0,0,2.31,8.93,154.14,154.14,0,0,0,22.26-16.67,18,18,0,0,0-17.35,1,41.82,41.82,0,0,1-.9-13.7A39.66,39.66,0,0,1,707,350c-3.35-1.35-2.12-6.65,1.1-8.28s7.09-1,10.71-1.31a21.54,21.54,0,0,0,15.27-8.12,33.26,33.26,0,0,1,1,17.25,63.59,63.59,0,0,1,18-2.53c2.62-3.41-.83-8.13-4.52-10.46s-8.34-4.59-9-8.78l.51,1.34c0-2.52-.07-5-.1-7.56l-19.43-14.28a17.06,17.06,0,0,1-3.72-3.36c-2-2.65-2.15-6.16-3.55-9.13s-5.34-5.5-8.09-3.56c-2.46,1.73-1.8,5.3-1.82,8.23s-2.88,6.57-5.39,4.89c-1-6-2.84-12.14-7-16.71s-11.33-7.12-17.12-4.63a93.8,93.8,0,0,1,1.4,22.13,119.71,119.71,0,0,1-5.2,27.81c-2.5,2.38-6.64-1.25-6.86-4.63s1.13-7-.59-10c-1-1.77-2.94-2.86-4.73-3.95A66.31,66.31,0,0,1,642,300.84c-1.85-2.17-3.6-4.57-4-7.34-.9-5.56,3.6-10.53,8.21-14,6.83-5.16,14.61-9.08,21.43-14.25,3.18-2.41,6.35-5.52,6.48-9.4s-4.81-7.62-8-5.25c-2.29,1.69-3,5.72-5.9,5.63-1.55,0-2.68-1.42-3.38-2.75-3.68-7-1.07-16.44,5.73-20.79.29-2.67-3.76-4.09-6.17-2.71s-3.41,4.16-4.29,6.71-2,5.32-4.55,6.51a23.58,23.58,0,0,1,3.59,13.6c-3.67.1-1.85-5.9-3.72-8.93-1.31-2.13-4.65-2.33-6.88-1.08s-3.61,3.48-4.89,5.63c.81-3.77-4.63-5.7-8.65-5.55s-9.3,0-10.46-3.67c-.85-2.72,1.38-5.87,0-8.39-1.72-3.16-7.58-2.51-9-5.81-.7-1.67.14-3.6-.28-5.35-1.58-6.53-14.71-1.34-18.11-7.2-2.25-3.87,2.11-8,4-12.06a11.78,11.78,0,0,0-5-14.84c-5.15-2.85-12.44-1.36-15.93,3.26-.23-3.67-5.68-5.17-8.94-3.23s-4.67,5.72-5.67,9.27c-4-1.23-8.2-2.47-12.39-2s-8.43,3.21-9.12,7.2c-.52,3,1,6.3-.45,9-2.22,4.27-8.8,3.2-13.45,1.48,3.73,8.38,16.38,11.58,24,6.05,5.26,27.59-.17,55.91-5.59,83.48a21.77,21.77,0,0,1-5.24,11.56c-6.83,9.22-13.78,18.7-16.74,29.64-4.32,15.93.4,32.79,6.72,48.09,1.23,3,2.49,6.5.74,9.23-1,1.51-2.72,2.46-3.6,4-1.3,2.31-.34,5.13.63,7.58l10.38,26c1.47-10.45.36-21-1.33-31.46a57.15,57.15,0,0,1-1.64-9.42c.56,3.12,1.13,6.27,1.64,9.42a57.58,57.58,0,0,0,5.6,13.84c2.56,4.53,5.78,8.86,6.93,13.9.75,3.27.58,6.67,1.16,10a33,33,0,0,0,4.54,11.11,63.82,63.82,0,0,0,32.58,26.58c6.69,2.44,14,3.9,19.58,8.18,5,3.87,8.36,9.81,14.13,12.59,3.33,1.61,7.2,2,10.45,3.75,9.06,4.88,11.17,18.87,21.36,20.78l1,.55c3.56,2,8.89-1.46,8.2-5.38a10.22,10.22,0,0,1,9.81,1.47,9.25,9.25,0,0,1,3.29,9c-.31,1.45-1,2.86-1,4.34,0,2.12,1.44,4.31.51,6.23-1.53,3.19-7.88,2.32-8.68,5.75-.22,1,.11,2-.32,2.89-.74,1.54-3.07,1.47-4.45,2.53s-1.53,3-1.54,4.77q0,10.13-.05,20.26c2.94-.88,6.17.48,8.42,2.5s3.8,4.62,5.66,7a34.31,34.31,0,0,0,20.59,12.18c4,.72,8.31.81,11.76,2.88a12.35,12.35,0,0,1,5.5,12.21c-.65,4.64-3.63,8.78-7.47,11.69-2.28,1.73-5.1,3.5-7.08,5.55a293.62,293.62,0,0,0,46.8-5.25C754.56,621.37,776.91,621.88,789.66,609.07Z" transform="translate(-401.64 -97.05)"/><path class="cls-2" d="M654.6,132.56l1-.79h-.26Z" transform="translate(-401.64 -97.05)"/><path class="cls-3" d="M654.6,132.56l1-.79h-.26Z" transform="translate(-401.64 -97.05)"/><path class="cls-2" d="M683,97.05a291.29,291.29,0,0,0-107.24,20.27,5,5,0,0,0-.13,1.09l4.62,1.71a6.21,6.21,0,0,0,2.66.56,6.69,6.69,0,0,0,2.69-1.08,44.6,44.6,0,0,1,14.51-5.23,6.41,6.41,0,0,1-1.26,2.68c-2.73,4-5.62,8.24-10,10.58-2.37,1.27-5.13,2-7.08,3.77a8.74,8.74,0,0,1-2,1.67c-1.32.62-3.14.26-4.12,1.31-2.11,2.25,3.08,6.24.87,8.4-1.53,1.5-5.06,0-5.91,1.93-.6,1.38,1.1,2.71,1.2,4.2.11,1.64-2.32,2.8-3.62,1.73-1.77-1.45-.3-4.42-1.44-6.36s-4.09-2.1-4.89-4.06a6.5,6.5,0,0,0-.55-1.49c-.57-.78-1.76-.78-2.76-.68a68.38,68.38,0,0,0-13.6,2.77c-1.44.45-3.05,1.14-3.43,2.54s.59,2.63,1.69,3.47a9.16,9.16,0,0,0,7.53,1.58,5.76,5.76,0,0,1,3-.33c.84.27,1.42,1,2.23,1.38,1.05.45,2.26.18,3.4.2s2.51.61,2.55,1.7a3,3,0,0,0-2.41,3.22c.08.6.37,1.17.4,1.78.12,2.23-3,3.8-2.66,6a6.47,6.47,0,0,0,1,2,6.38,6.38,0,0,1-.49,7.06,5.27,5.27,0,0,0,6.77-.34,6.83,6.83,0,0,1,1.71-1.6c2.4-1.13,4.94,2.69,7.46,1.83a22.35,22.35,0,0,0-10.72,8.15,2.3,2.3,0,0,0-.54,2.21,2.63,2.63,0,0,0,1.46,1.06c2.11.87,4.56,1.72,6.58.71s2.75-3.7,4.18-5.57c2.1-2.74,5.82-3.7,9-5.14a25.81,25.81,0,0,0,13.78-15l-2.7-.62c-.76-.29-.34-1.48.4-1.81s1.67-.31,2.29-.81.76-1.64,1.08-2.51c.76-2.12,3.28-3.11,5.59-3.49s4.77-.44,6.71-1.7c1.27-.82,2.22-2.1,3.62-2.69a9.09,9.09,0,0,1,3.13-.5c6-.3,12.78-1.9,15.73-6.94a10,10,0,0,1,2.19-3.21c1.73-1.29,4.41-.81,6.09-2.16a23.1,23.1,0,0,0,2-2.55c.75-.8,2.15-1.28,3-.53s.43,2.26,1.29,3a2.79,2.79,0,0,0,1.79.44l5.6.06c2.38-2.28,5.46-4.4,8.48-3.25,1.3.5,2.3,1.55,3.61,2,4.57,1.66,9.72-4.31,14-2-4.55-.19-8.94,3.4-9.45,7.74l10.48.8a15.58,15.58,0,0,0,4.42-.07,28.59,28.59,0,0,0,3.56-1.19,36.14,36.14,0,0,1,5.47-1.25l20.89-3.63c3.33-.58,8.07-.21,8.39,3A85.93,85.93,0,0,1,743.81,123c2-.86,5.59-.49,5,1.55a38.33,38.33,0,0,0-23,10.79,10.07,10.07,0,0,0,11.68.3c2.39-1.71,5.2-4.66,7.64-3,2.67,1.8.6,7,3.62,8.25,1.67.66,3.48-.66,5.29-.65a7.29,7.29,0,0,1,2.93.86L777,150.35a3.84,3.84,0,0,0-2.18,2.9,28.48,28.48,0,0,1,18.39,7.63c1.52,1.44,2.93,3.65,1.82,5.39-1.21,1.9-4.42,1.37-6-.24s-2.24-3.88-3.51-5.74-3.8-3.38-5.85-2.33a5.93,5.93,0,0,0-2.39,3.3c-1,2.5-2,5-3,7.48a8,8,0,0,0-.73,2.68c0,1.73,1.05,3.29,2.19,4.65,10.2,12.22,26.53,18.81,36.16,31.44,2.38,3.12,4.35,6.6,7.36,9.16s7.53,4.05,11.13,2.3a3.62,3.62,0,0,0,2-2c.77-2.53-3-4.33-3.38-6.94a17.09,17.09,0,0,1,9.57-.85c2-2.32.6-6.45-2.44-7.21-2.32-.58-5.12.51-7-.89-2.09-1.53-1.44-4.83-3-6.83-3.38-4.27-12.4,1.08-15.53-3.36-.81-1.15-.89-2.66-1.66-3.84-1.53-2.31-4.89-2.43-7.72-2.79s-6.2-2.17-5.69-4.85c9.52-.78,17.5,9.77,26.84,7.88a10.64,10.64,0,0,0-4.38-9.37c.56-1.91,3.67-1.94,5.1-.5s1.69,3.57,2.11,5.52,1.29,4.09,3.22,4.81c.82.3,1.73.3,2.54.61a6.78,6.78,0,0,1,2.42,1.94l10,10.94c2.08,2.28,4.23,4.66,5.11,7.58s.11,6.51-2.6,8.07l-9.28-3.24c-1.48,3.23,2.3,6.44,5.79,7.56,2.57.83,5.68,1.61,6.61,4.05a10.32,10.32,0,0,1,.32,3.29c.29,7.81,7.87,13.61,10,21.15,1.6,5.59.06,11.51-.32,17.3,3.23.59,6.38-1.21,9.63-1.65s7.52,2,6.29,5l-.34-.73c-.81,2.42,3.62,4.63,2.36,6.86a10.91,10.91,0,0,1-1.27,1.37c-1,1.23-.57,3.06-1.32,4.43s-2.58,2.06-3.29,3.48c-.83,1.68.19,3.63,1.21,5.21a165.91,165.91,0,0,0,13.2,17.75A6.22,6.22,0,0,0,888,310.8c1.09.36,2.55-.06,2.86-1.13.17-.59,0-1.25.19-1.83.71-1.83,3.8-.39,5.59-1.31,2-1,1.07-3.92,1-6.12,0-1.71.66-3.34.87-5,1.09-8.67-10.23-14.89-10.47-23.62a26.87,26.87,0,0,0,0-3.59,16.4,16.4,0,0,0-1.47-3.87c-2.4-5.53-2.11-11.75-1.78-17.73a12.75,12.75,0,0,0,9.32-2.17,7.6,7.6,0,0,1,2.84-1.61,4.34,4.34,0,0,1,2.78.6,7.65,7.65,0,0,1,3.57,9l5.55.09c.93-2-1.06-4-2.68-5.47a26.54,26.54,0,0,1-6.94-10.4,6.56,6.56,0,0,0-1.33-2.55c-1.26-1.25-3.34-1.19-5.15-1.05a2.94,2.94,0,0,0-1.47.4,3.59,3.59,0,0,0-.92,1.77,5.22,5.22,0,0,1-6,3,4.94,4.94,0,0,1-3.59-5.49l6.24-.45a2.86,2.86,0,0,0,1.92-.62c.46-.47.49-1.18.8-1.75.77-1.41,2.8-1.51,4.46-1.41,3.3.18,7,.57,9.07,3.06a3.7,3.7,0,0,0,.93,1c1.29.74,2.86-1,2.47-2.39s-1.81-2.23-3.13-2.92-2.76-1.48-3.22-2.85a14.82,14.82,0,0,0-.49-1.85c-.65-1.35-2.48-1.62-3.92-2.18a7,7,0,0,1-4.43-6.17,11.43,11.43,0,0,1,7.78,1.8,4.69,4.69,0,0,0,1.89.95c1.62.2,2.73-1.66,2.69-3.22-.12-5.16-7-8.83-6.16-13.93,5.44,2,7.85,7.84,11.11,12.44a39.7,39.7,0,0,1,3.51,5.12,23.44,23.44,0,0,1,1.68,5.29q2.17,9.38,4.34,18.75c.92,4,1.86,8,3.84,11.62,1.34,2.44,3.19,5.13,2.15,7.7-.52,1.28-1.69,2.21-2.44,3.38-1,1.54-1.25,3.41-1.88,5.13s-1.94,3.44-3.83,3.63-3.42-1.12-4.42-2.57-1.64-3.14-2.83-4.45c-.89-1-2.5-1.71-3.55-.88a3.06,3.06,0,0,0-.85,2.31l-1.74,25.58a67,67,0,0,1-1.14,9.79c-1.29,6-4.23,11.9-3.61,18,.77,7.58,6.93,14.32,6.06,21.89l-.3-.82q-.71,8.13-1.4,16.25a15.59,15.59,0,0,0,.1,4.87,31.61,31.61,0,0,0,1.44,3.83c1.36,3.65,1.28,7.62,1.18,11.49q-.11,3.69-.19,7.38a7.79,7.79,0,0,0,.38,3.26,10.78,10.78,0,0,0,2.12,2.81c3.94,4.46,5.16,10.5,6.25,16.25.55,2.86,1.09,5.82.41,8.65a6.56,6.56,0,0,0-.39,3c.57,2.32,3.76,2.69,6.21,3.12a16.1,16.1,0,0,1,6.79,2.91,19.42,19.42,0,0,0,3.77,2.62c2.57,1.09,5.67.28,7.91-1.33a23.26,23.26,0,0,0,5.35-6.17l3.8-5.61a33.44,33.44,0,0,0,4.27-7.7c1.52-4.5,1-9.36,1.06-14.08a6.1,6.1,0,0,1,.36-2.37,12.39,12.39,0,0,1,1.93-2.5c1.88-2.37,2-5.59,3.21-8.34a16,16,0,0,1,5.95-6.67q.09-3.39.09-6.79C964.36,217.7,838.39,97.05,683,97.05Z" transform="translate(-401.64 -97.05)"/><path class="cls-2" d="M553.7,127.8c.37-.17.69-.44,1-.65,1.07-.62,2.44-.65,3.49-1.3a6.29,6.29,0,0,0,1.64-1.69q-3.93,1.83-7.79,3.78A2.62,2.62,0,0,0,553.7,127.8Z" transform="translate(-401.64 -97.05)"/><path class="cls-3" d="M553.7,127.8c.37-.17.69-.44,1-.65,1.07-.62,2.44-.65,3.49-1.3a6.29,6.29,0,0,0,1.64-1.69q-3.93,1.83-7.79,3.78A2.62,2.62,0,0,0,553.7,127.8Z" transform="translate(-401.64 -97.05)"/><path class="cls-2" d="M564.94,121.86a4.92,4.92,0,0,0,1.94-.86l-2,.86Z" transform="translate(-401.64 -97.05)"/><path class="cls-3" d="M564.94,121.86a4.92,4.92,0,0,0,1.94-.86l-2,.86Z" transform="translate(-401.64 -97.05)"/></svg>