<svg id="Layer_1" data-name="Layer 1" xmlns="http://www.w3.org/2000/svg" viewBox="0 0 621.5 590"><defs><style>.cls-1{fill:#e1471d;}.cls-2{fill:#a4604d;}.cls-3{fill:#a2614d;}.cls-4{fill:#e07556;}.cls-5{fill:#8a573e;}.cls-6{fill:#fc4b22;}</style></defs><path class="cls-1" d="M1001.5,370q0,7.25-.37,14.4c-.08,1.66-.18,3.31-.29,5h0q-.86,12.53-2.8,24.74-1.11,7.06-2.57,14A280.6,280.6,0,0,1,984.31,467c-.5,1.37-1,2.74-1.54,4.11a289.23,289.23,0,0,1-37.56,68.26q-1.5,2-3.05,4-5.91,7.71-12.32,15-7.77,8.88-16.26,17.17-2.16,2.1-4.36,4.16a306.69,306.69,0,0,1-29,24.07A317.92,317.92,0,0,1,738.78,661.5q-11,1.61-22.17,2.49-7,.56-14.06.8-5.88.21-11.8.21c-1.8,0-3.59,0-5.38,0A323.82,323.82,0,0,1,569,641.5q-5-2-10-4.25h0a313.93,313.93,0,0,1-58.21-33.78q-3.55-2.61-7-5.31c-1.72-1.35-3.42-2.71-5.12-4.08a305.68,305.68,0,0,1-24.07-21.8A300.24,300.24,0,0,1,441,545.6c-.15-.2-.31-.39-.46-.58l-.52-.68q-1.17-1.5-2.31-3a290.75,290.75,0,0,1-31.27-52,283.39,283.39,0,0,1-12.53-31.68q-3-9.06-5.32-18.36-2.44-9.63-4.22-19.5c-.11-.67-.23-1.33-.35-2q-.92-5.4-1.64-10.86-.89-6.74-1.45-13.56-1-11.55-1-23.35,0-3.51.09-7a282.84,282.84,0,0,1,2.35-30.15c.24-1.74.48-3.48.74-5.21q.87-5.72,2-11.36.84-4.35,1.82-8.65a281.69,281.69,0,0,1,11.12-37q1.49-3.92,3.06-7.78h0a285.09,285.09,0,0,1,13-27.35q2.87-5.31,5.94-10.47,5.21-8.73,11-17.08,3.82-5.52,7.91-10.87,3.56-4.65,7.29-9.16c1.71-2.07,3.44-4.1,5.2-6.12q9.73-11.15,20.58-21.35,9-8.44,18.7-16.2,4.83-3.87,9.83-7.55,7.91-5.8,16.2-11.14a313.82,313.82,0,0,1,46.05-24.45q10.54-4.53,21.49-8.33A322.65,322.65,0,0,1,646.15,78h0q8.11-1.11,16.35-1.82Q676.45,75,690.75,75A324.49,324.49,0,0,1,804.61,95.43q4.07,1.53,8.09,3.16a314.33,314.33,0,0,1,48.82,24.91q10.1,6.31,19.63,13.34h0q8.07,6,15.7,12.38,6.57,5.52,12.78,11.39,10.08,9.49,19.22,19.83,5.17,5.85,10,11.95a290.57,290.57,0,0,1,41,69.21,281.69,281.69,0,0,1,13.67,41.7q1.1,4.49,2.05,9,1.18,5.67,2.13,11.43.7,4.23,1.28,8.51c1.14,8.48,1.91,17.09,2.27,25.78Q1001.5,364,1001.5,370Z" transform="translate(-380 -75)"/><path class="cls-2" d="M791.23,229.88l128.24-1.74c-33,13.78-69.28,18.64-105,23.37-28.18,3.73-57.13,7.42-84.84,1.31-34.25-7.55-64.08-29.6-99-33.63-26.08-3-53.23,4.33-78.48-2.56-9.7-2.65-18.63-7.29-27.71-11.48a317.58,317.58,0,0,0-73-23.38,306,306,0,0,1,49.11-45.1,101.52,101.52,0,0,1,17.64,4.24c20,6.67,38.21,17.71,58.61,23.11,22.34,5.91,46,4.72,69.15,3.49l109.22-5.83c23.13-1.23,46.56-2.52,68.59-9.29,17.17-5.28,33.5-13.87,51.48-15.32,2-.15,3.92-.22,5.88-.23h0a306.58,306.58,0,0,1,47.7,43.6l-32.12,1.45c-9.85.44-19.91.92-29.08,4.36-10.59,4-19.25,11.62-29.68,15.95-24.53,10.19-57.61,1.9-75.88,20.5C769.33,229.7,780.9,230,791.23,229.88Z" transform="translate(-380 -75)"/><path class="cls-2" d="M1001.5,370q0,7.25-.37,14.4-3.74.81-7.42,1.9c-17.18,5.14-32.22,15.08-48.06,23.22a244.54,244.54,0,0,1-86.93,25.59c-67,6.74-134.48-14-201.55-7.94-61.55,5.59-123,33.56-182.83,18.67-21.18-5.27-40.61-15.71-61.74-21.14a218.78,218.78,0,0,0-28.2-4.93,283.9,283.9,0,0,1-2-86.93c33.45.77,67.52,14.84,101.42,20.4,56.49,9.27,113.91-5.45,171.12-8.86,74.18-4.42,150.44,10.08,222-8.89,29.18-7.74,56.61-20.85,86.09-27.52a228.7,228.7,0,0,1,30.43-4.67A281.48,281.48,0,0,1,1001.5,370Z" transform="translate(-380 -75)"/><path class="cls-3" d="M942.16,543.42a301.39,301.39,0,0,1-32.94,36.36c-4.78,1.35-9.52,2.8-14.21,4.43-16.16,5.61-31.62,13.24-48.36,17-20.73,4.63-42.41,3.08-63.52,5.68-24.71,3-48.2,11.68-71.42,20.26l14,7.75a258.49,258.49,0,0,1-40.12,4.49c-9.8.32-20.36-.14-28.15-5.79-4.35-3.16-7.39-7.66-11.4-11.21C640,617,632,614,624.13,611.5a294.59,294.59,0,0,0-66.47-13c-21.15-1.63-42.55-1-63.91-.39A304.28,304.28,0,0,1,440.57,545l33,12.41c23,8.63,46.58,17.39,71.26,17.38,14.47,0,28.8-3,43.26-3,14.16,0,28.1,3,41.88,6.1,47.55,10.65,96.93,22.83,144.59,12.64,13.22-2.82,26.06-7.34,39.46-9.25,11.06-1.58,22.31-1.35,33.4-2.67C881.25,574.6,910.88,556.67,942.16,543.42Z" transform="translate(-380 -75)"/><path class="cls-4" d="M439.25,267.71c3.19-10.3,7.63-20.31,11.91-30.25,1.76-4.1,3.78-8.36,7.54-11,3.22-2.24,7.33-3,11.3-3.33,7.92-.7,15.9-.13,23.84.45L527.1,226c3.07.22,6.24.47,9,1.81,3.47,1.7,5.81,4.93,7.46,8.28,2,4,3.15,8.47,2.13,12.74s-4.17,7.86-6.11,11.88c-5.1,10.57-1.77,23.93-8.52,33.64-3.48,5-9.14,8.22-14.6,11.26l-18.22,10.11c-6,3.31-12.05,6.67-18.83,7.88s-14.47-.11-19.07-5c-9.66-10.26-1.49-30-13.2-38.11-2.65-1.84-6-2.73-8.31-4.95s-1-4.07.44-7.85" transform="translate(-380 -75)"/><path class="cls-4" d="M588.78,251.2c3.71-6.14,12.12-10.5,19.42-11.9s14.86-.81,22.29-.21c7.93.63,16,1.3,23.39,4.09,8,3,14.68,8.31,21.25,13.53,2.49,2,5.23,4.49,4.88,7.56s-3.91,5.11-7.07,6.29a94.61,94.61,0,0,1-21.54,5.28c-3.64.45-7.61.63-10.71-1.23-5.68-3.41-5.84-11.87-11.41-15.43s-12.61-.52-18.82,1.45a56,56,0,0,1-16.52,2.59,8.8,8.8,0,0,1-4.3-.76c-3.77-2.07-2.56-7.46-.86-11.26" transform="translate(-380 -75)"/><path class="cls-4" d="M583.8,330.45c2.71,7.14,18.36,9.28,28.71,7.61,1.6-.26,3.56-1,3.6-2.56a3.42,3.42,0,0,0-.67-1.78,75.89,75.89,0,0,0-8.4-11.13,17.16,17.16,0,0,0-4.86-4c-4.69-2.32-10.38-.65-15.37,1a7.42,7.42,0,0,0-2.66,1.34c-2.74,2.48-1.92,5-.35,9.51" transform="translate(-380 -75)"/><path class="cls-4" d="M559.33,302.76a8.05,8.05,0,0,1,1.18-7,6.64,6.64,0,0,1,6.73-2.45c3.54.93,5.19,4.86,5.4,8.34a11.48,11.48,0,0,1-1.34,6.69,7,7,0,0,1-5.88,3.48c-3.92-.08-5.45-4.81-6.09-9.1" transform="translate(-380 -75)"/><path class="cls-4" d="M407.9,289.67c-.89,8.89-8.61,16.77-17.89,18.24a4.85,4.85,0,0,1-2.95-.23.27.27,0,0,1-.1-.06,281.69,281.69,0,0,1,11.12-37C404.57,274.7,408.63,282.26,407.9,289.67Z" transform="translate(-380 -75)"/><path class="cls-4" d="M431.07,207.92a20.83,20.83,0,0,1,5,2.89c4.22,3.38,6.61,9.34,4.17,14a5.36,5.36,0,0,1-1.74,2.07,6.87,6.87,0,0,1-2.79.92,24.64,24.64,0,0,1-15.6-2.84Z" transform="translate(-380 -75)"/><path class="cls-4" d="M995.47,428.13A280.6,280.6,0,0,1,984.31,467a57.81,57.81,0,0,1-17.23-7.71c-5.91-3.94-11.45-10.5-9.28-17,2.07-6.23,9.81-8.7,16.52-10.13Q984.84,429.89,995.47,428.13Z" transform="translate(-380 -75)"/><path class="cls-4" d="M810.73,482.77a183.17,183.17,0,0,0,13.49,42.85c5.45,11.94,12.54,23.73,23.69,31.31,5.11,3.47,12.12,5.93,17.54,2.91a16.39,16.39,0,0,0,4.58-4.2c10.06-12.54,12.82-29,21.39-42.54,8.84-13.9,23.84-24.69,27.86-40.47,1-3.74,1.2-7.77-.23-11.37-3-7.54-12.13-10.91-20.4-12.73a156.86,156.86,0,0,0-74.29,1.78,25.61,25.61,0,0,0-8,3.29c-4.2,2.93-6.27,8-6.61,12.93a58.57,58.57,0,0,0,1,16.24" transform="translate(-380 -75)"/><path class="cls-4" d="M803.29,535c3.51,2.5,7.34,4,10.85,6.5s7.15,5.12,9.74,8.55,4,7.88,2.77,11.92c-1.19,3.76-4.56,6.62-8.34,8.22s-7.95,2.1-12.07,2.5a143.54,143.54,0,0,1-16.33.78c-4-.08-9-1.08-10.12-4.78-.61-2,.24-4.22,0-6.31-.2-1.51-1-3-.73-4.47.44-2.41,3.29-3.58,5.06-5.37a11.78,11.78,0,0,0,2.51-4.35c1.49-4,2.28-8.38,5.09-11.67s8.72-4.74,11.62-1.52" transform="translate(-380 -75)"/><path class="cls-4" d="M917.37,524a12.11,12.11,0,0,0-2.92,3.7c-1.42,3.07,0,7.43,3.42,8.2a6.36,6.36,0,0,0,5.88-2.16,12.36,12.36,0,0,0,2.58-5.73c.38-1.73.51-3.77-.8-5a4.41,4.41,0,0,0-4.11-.8c-1.42.37-3,.66-4,1.82" transform="translate(-380 -75)"/><path class="cls-4" d="M944,469.88c-2.18,4.76.47,11,5.52,12.95a5.58,5.58,0,0,0,5-.13,5.85,5.85,0,0,0,1.57-1.75c2.19-3.31,3.36-7.86.85-11-1.9-2.35-5.26-3.06-8.36-3.41a6.4,6.4,0,0,0-3.56.3c-1.08.54-.66,2.09-1.06,3" transform="translate(-380 -75)"/><path class="cls-4" d="M793.58,463.56c-.45,6.25-1.46,12.88-5.77,17.63-2.53,2.79-6.78,4.75-10.28,3.17-3.76-1.7-4.63-6.31-5-10.24-.2-2-.39-4.19.6-6a10.43,10.43,0,0,1,2.65-2.86c2.57-2.13,5.25-4.16,8-6.06,2-1.35,4.51-2.68,6.64-1.6a6.35,6.35,0,0,1,3.18,6" transform="translate(-380 -75)"/><path class="cls-4" d="M649.08,94.51c-1.49,1.73-3.66,2.79-5.43,4.26-2.09,1.74-3.59,4-5.65,5.8-6.56,5.63-16.7,4.5-25.32,2.62-6.66-1.46-13.37-3.21-19.24-6.56a29.52,29.52,0,0,1-9.12-7.88A322.65,322.65,0,0,1,646.15,78h0a21.84,21.84,0,0,1,4,6C651.58,87.42,651.54,91.64,649.08,94.51Z" transform="translate(-380 -75)"/><path class="cls-4" d="M671.4,135.77c-1.37,1.17-1.36,3.68-.4,5.17,2.25,3.49,6.54,6,10.8,5.41s7.84-4.86,6.69-8.8a9.45,9.45,0,0,0-3-4.24,19.47,19.47,0,0,0-3.33-2.36,3.69,3.69,0,0,0-2.16-.64,4,4,0,0,0-1.77.82l-6.8,4.64" transform="translate(-380 -75)"/><path class="cls-4" d="M747.49,116.53a11.61,11.61,0,0,0,5.74,5.63c2.42,1,5.86-.21,6.19-2.68a4.17,4.17,0,0,0-2-3.8,12.32,12.32,0,0,0-4.35-1.61,7.47,7.47,0,0,0-3.66-.18,2.42,2.42,0,0,0-1.9,2.64" transform="translate(-380 -75)"/><path class="cls-4" d="M861.52,123.5c-1.85,4-6.34,6.42-10.73,7.92-9.24,3.15-19.18,3.77-28.84,5.48-3.35.59-6.77,1.37-9.52,3.28-2.23,1.55-3.84,3.73-5.69,5.67a33.74,33.74,0,0,1-25.25,10.09,3,3,0,0,1-2.09-.65c-1.08-1.16.37-2.85.68-4.37.4-1.92-1.3-3.8-3.28-4.36a11.33,11.33,0,0,0-6.09.44c-7.57,2.16-14.47,6.14-22.05,8.28s-16.64,2.07-22.44-3c-1.85-1.62-3.31-3.86-3.17-6.24.23-3.62,3.92-6.1,7.43-7.53,10.3-4.21,21.91-4.25,32.81-6.77,20-4.64,36.75-17.55,49.41-33.12A314.33,314.33,0,0,1,861.52,123.5Z" transform="translate(-380 -75)"/><path class="cls-4" d="M555,521.83a41,41,0,0,1-26-1.23c-8-3.12-14.74-8.72-23-11-5.22-1.46-10.74-1.53-16.18-1.54-3.31,0-7,.17-9.3,2.47-2.73,2.8-2,7.4-4.23,10.58-1.34,1.95-3.61,3.12-5.83,4.12-3.59,1.62-7.46,3-11.43,2.77s-8-2.41-9.28-6c-.77-2.24-.36-4.72-1.08-7s-3.52-4.28-5.58-3a4.88,4.88,0,0,0-1.65,2.29c-1.61,3.55-3,7.32-2.7,11.17s2.86,7.76,6.79,8.71c2.26.54,4.72.08,6.93.8s3.86,3.67,2.09,5.1a4.68,4.68,0,0,1-2.75.73q-7,.38-14.12.49a290.75,290.75,0,0,1-31.27-52c15.53-3.64,30.63-9.13,46.27-12.41,19.48-4.09,41.18-4.35,57.9,6,6.78,4.2,12.49,10,19.82,13.27,7.14,3.19,15.21,3.73,22.94,5.2,5.43,1,11.69,3.48,12.64,8.65C567.08,515.68,560.86,520.17,555,521.83Z" transform="translate(-380 -75)"/><path class="cls-4" d="M686.17,662.55a17.91,17.91,0,0,1-.8,2.41A323.82,323.82,0,0,1,569,641.5a37.37,37.37,0,0,1,10-7.7c12.14-6.4,29-5,38.28,4.75,3.07,3.22,5.44,7.3,9.57,9.17,2.94,1.33,6.33,1.32,9.58,1.14,12.64-.7,25.44-3.52,37.81-1,4.63,1,9.5,3,11.47,7.08A11.21,11.21,0,0,1,686.17,662.55Z" transform="translate(-380 -75)"/><path class="cls-5" d="M1001.25,358.05c-9.49.28-19.19-1.14-28.24,1.49-22.63,6.59-32.14,35.36-55.07,40.92a34.65,34.65,0,0,1,5.2-20.65c-3.45-3.17-9.13-1.82-13.57-.07-36.75,14.5-69,42.94-108.8,44.16-4.25.13-8.64-.1-12.46-1.87-7-3.27-10.39-10.82-15.93-16-10.5-9.89-27.2-10.21-41.87-8.45s-30.07,4.87-43.86-.21c-4.35-1.6-8.36-4-12.82-5.27-19.59-5.66-37.82,10.55-56.89,17.63-20.29,7.52-43.66,4.7-63.73,12.73-17,6.81-32.4,21.38-50.64,18.67a34.49,34.49,0,0,1,3.23-21.37A217.16,217.16,0,0,1,418,404.94c-11.09-4.36-22-9.7-33.87-11.26q-1.6-.21-3.21-.33-1-11.55-1-23.35,0-3.51.09-7a46.58,46.58,0,0,1,15.47,5c9.17,4.75,17.27,11.39,27,15.09,8.39,3.21,17.55,4.05,26.26,6.36,14.69,3.91,30.24,12,44.21,6.18,6.87-2.88,11.8-8.69,17.69-13.12s14.25-7.53,20.79-4c2.83,1.52,4.87,4.07,7.39,6,6.64,5.14,15.85,5.72,24.41,6.07,14.25.59,29.42,1,41.67-6,7.34-4.17,12.94-10.64,20-15.23s17-7,24-2.37l-8.34,13.54a94.09,94.09,0,0,0,52.66-21.39,22.14,22.14,0,0,1,3.57,15.08c11.69,2,22.48-6.14,34.18-8.05,13.07-2.13,25.94,3.56,38.42,7.82s27.39,6.9,38.21-.37c6.19-4.16,10-11,16.58-14.67,17.4-9.75,38.39,8.54,58.53,7,21-1.58,34.14-23.76,54.49-29.05,14.88-3.87,30.8,2,46-.17A74.1,74.1,0,0,0,999,332.27C1000.12,340.75,1000.89,349.36,1001.25,358.05Z" transform="translate(-380 -75)"/><path class="cls-5" d="M724.35,197.92a124.87,124.87,0,0,0,35.76,6.77l-22.41,7.16c-3.51,1.12-7.8,3.41-7.09,6.86.5,2.48,3.37,3.73,5.86,4.59l19,6.56A20.06,20.06,0,0,0,752,241.37c8.24,1.11,16.51-1.21,24.65-2.87a157.61,157.61,0,0,1,56.88-1.09l-49.85,9.25c-18.2,3.37-39.61,5.92-53-6.3-11.81-10.81-13.61-30.55-28.42-37.24-5.88-2.65-12.67-2.57-19.18-2.43l-43.7.9c6.49-4,17.92-.69,25.2-5.41-40.13-11-85.44,11.26-124-3.93-1.95-.77-3.95-1.7-5.14-3.36-1-1.42-1.32-3.23-2.4-4.62-1.45-1.89-4-2.64-6.38-3.29a325.7,325.7,0,0,1-54.67-20.56q9-8.44,18.7-16.2c15.52,7.19,28.87,19.42,45.2,25.33,22.65,8.2,48,3.36,72.07,6,14.94,1.65,29.41,6.2,44.36,7.84,23.84,2.6,47.79-2.32,71.28-7,13.48-2.69,27.26-5.33,41-3.81,16.41,1.82,35,9,48-.56,4.4-3.23,7.32-8,11.54-11.4,13.3-10.84,33.42-5.61,50.87-7.22,7.17-.66,14.53-2.54,21.8-4.19q6.57,5.52,12.78,11.39a281.91,281.91,0,0,1-72.51,19.15c-4.33.54-8.83,1-12.58,3.18-4.9,2.82-7.72,8-12.09,11.53-6.54,5.27-15.87,6.23-24.37,5.16s-16.65-3.88-25.1-5.29A76.79,76.79,0,0,0,724.35,197.92Z" transform="translate(-380 -75)"/><path class="cls-5" d="M929.84,558.45q-7.77,8.88-16.26,17.17a205.68,205.68,0,0,1-23,5.6l-26.56,5.28c-13.17,2.61-26.33,5.23-39.57,7.54-37.74,6.57-76.34,10.66-112.17,23.69-3.55,1.29-7.34,2.89-9.12,6.08s0,8.21,3.85,8.23a75.45,75.45,0,0,1-26-.44c-3.15-.6-6.36-1.46-8.84-3.41-5.76-4.53-5.54-13-9.63-19s-12.15-8.56-19.69-9.07-15.15.6-22.68-.06c-10.76-.94-20.8-5.42-31.35-7.63-12.26-2.58-25-2.07-37.52-1.52q-31.39,1.41-62.76,3.12a305.68,305.68,0,0,1-24.07-21.8c27.6-2.44,56.14,15.13,84.85,13.46,16.3-1,32.64-8.11,48.43-4.13,8.13,2,15.21,6.9,23.25,9.21,13.63,3.91,28.35.18,42.51,1.6,9.34.93,18.26,4.08,27.47,5.78,11.45,2.11,23.22,1.95,34.87,1.49a528.39,528.39,0,0,0,72-7.44c10.76-1.92,21.43-4.26,32.09-6.59,26.9-5.88,53.89-11.79,79.76-20.94C916.39,562.41,923.05,559.86,929.84,558.45Z" transform="translate(-380 -75)"/><path class="cls-5" d="M691.87,212.69a19.29,19.29,0,0,0-8.86-2.86,6.33,6.33,0,0,0-4.23.88,4.26,4.26,0,0,0-.75,5.5,9.6,9.6,0,0,0,4.92,3.64c1.89.74,4,1.3,5.3,2.8.66.76,1,1.71,1.65,2.5a6,6,0,0,0,4.18,2.24,1.38,1.38,0,0,0,.73-.07,1.43,1.43,0,0,0,.62-1.33c.28-4.75.78-10.48-3.56-13.3" transform="translate(-380 -75)"/><path class="cls-5" d="M687.8,171.29a17.3,17.3,0,0,0-4.81,2.63,1.26,1.26,0,0,0-.61.85c0,.48.48.81.93,1,3.31,1.5,7.19,1.43,10.78.71s7-2,10.57-2.92c10.39-2.62,21.48-1.64,31.92-4-1.05-1.83-3.64-2.15-5.84-2.2a196,196,0,0,0-42.94,4" transform="translate(-380 -75)"/><path class="cls-5" d="M520.6,197.22c8,1.71,12.18,8.43,19.09,11.95,4.62,2.34,9.82,3.43,14.94,4.49a2.33,2.33,0,0,0,1.73-.09,1.65,1.65,0,0,0,.64-1,5.59,5.59,0,0,0-1.47-5.16,14.17,14.17,0,0,0-4.75-3.18c-7.4-3.47-15.79-5-22.64-9.43a17.48,17.48,0,0,0-4.61-2.5c-1.71-.48-3.83-.16-4.8,1.26s.09,3.81,1.87,3.66" transform="translate(-380 -75)"/><path class="cls-5" d="M529.53,150.27a65.94,65.94,0,0,1,12.27,7.45c2.6,1.95,5.41,4.37,5.4,7.51-1.73,1.32-4.27.71-6.37,0s-4-1.34-5.24-2.9-1.4-3.89-2.88-5.32-3.93-1.63-5.56-2.93a4.57,4.57,0,0,1-1.66-3,1.9,1.9,0,0,1,.18-1.15,1.81,1.81,0,0,1,1.92-.68,5.37,5.37,0,0,1,1.94,1" transform="translate(-380 -75)"/><path class="cls-5" d="M470.63,168.53c2.46-.12,4.86.67,7.24,1.27,3.1.79,6.31,1.29,9.22,2.57s5.58,3.53,6.29,6.5a41.62,41.62,0,0,1-9,1.72,19.94,19.94,0,0,1-6.22-.3,19.62,19.62,0,0,1-7.75-4.21,5.59,5.59,0,0,1-1.74-2c-.81-1.9.56-4,1.86-5.57" transform="translate(-380 -75)"/><path class="cls-5" d="M592.73,205.92a2.37,2.37,0,0,0,.52,2.79,5,5,0,0,0,2.86,1.25,4,4,0,0,0,3-.5,3,3,0,0,0,.58-3.68,4.73,4.73,0,0,0-4.26-2.52c-1.15,0-2.3,1.6-2.71,2.66" transform="translate(-380 -75)"/><path class="cls-5" d="M507.36,143.76A4.59,4.59,0,0,0,508,148a5.13,5.13,0,0,0,4,2,2,2,0,0,0,1.38-.44c.6-.59.34-1.57,0-2.32a18.56,18.56,0,0,0-2.9-4.37,2.74,2.74,0,0,0-1.71-1.09c-.7-.06-1.23,1.33-1.44,2" transform="translate(-380 -75)"/><path class="cls-5" d="M825,192.72c2.92-5.48,9.7-8.08,16.1-9s13-.64,19.21-2.49c5.24-1.58,9.88-4.63,15.12-6.22,8.06-2.46,17-1.33,25.06-3.63,2.54-.71,5.65-1.64,7.52.14A106.08,106.08,0,0,1,880.62,179c-5.33.72-10.81,1.06-15.76,3.06-2.76,1.11-5.27,2.71-7.92,4-6.65,3.31-14.08,4.84-21.26,6.93-2.38.7-4.84,1.52-6.61,3.18a8.58,8.58,0,0,1-2.14,1.81,3,3,0,0,1-4-1.65c-.48-1.49,1-2.18,2-3.69" transform="translate(-380 -75)"/><path class="cls-5" d="M757,210.75a7.31,7.31,0,0,0-2.92,1q-4.29,2.16-8.55,4.36a3.7,3.7,0,0,0-2,1.78,2.38,2.38,0,0,0,0,1.27,5.12,5.12,0,0,0,3.76,3.36,15.4,15.4,0,0,0,5.38.24,3.31,3.31,0,0,0,1.82-.49,3.16,3.16,0,0,0,.88-1.56c.72-2.24,1.45-4.49,2.17-6.74.35-1.07.62-2.44-.3-3.16" transform="translate(-380 -75)"/><path class="cls-5" d="M835.28,235.12a13.9,13.9,0,0,1,4.21,1.18c1,.45,2.07,1.46,1.55,2.38a2.19,2.19,0,0,1-1,.79l-6.57,3.28c12.87,2.25,26.07-1,38.46-4.95,2.28-.74,4.71-1.61,6.06-3.5l-12.31,0c-4.23,0-8.47,0-12.69-.38-5.44-.45-10.85-1.45-16.31-1.27a4.69,4.69,0,0,0-2.14.43,1.55,1.55,0,0,0-.85,1.76c.23.66.73,0,1.73.35" transform="translate(-380 -75)"/><path class="cls-5" d="M502.48,363.8c-12.12-4.42-25.68-2.29-38.6-3.54-11.35-1.09-22.2-4.79-33.17-7.75s-22.5-5.2-33.73-3.31l-.59.11a3.9,3.9,0,0,0-4.82,2.66,5.48,5.48,0,0,0,2.07,5.35,14.06,14.06,0,0,0,5.64,2.58c7.48,2,15.49,2,22.79,4.47,8.67,3,15.55,9.26,23.18,14.2s17.25,8.68,25.95,5.76c6.61-2.22,11.24-7.82,17.16-11.39,4.32-2.6,9.33-4.13,13.39-7.09C502.44,365.34,503.13,364.36,502.48,363.8Z" transform="translate(-380 -75)"/><path class="cls-5" d="M516.58,361.87c-.41.77-.74,1.79-1.15,2.56-.64,1.21-1.26,2.76-.38,3.83a3.55,3.55,0,0,0,2.29,1,17.31,17.31,0,0,0,4.66,0,8.94,8.94,0,0,0,3.59-1.13,11.52,11.52,0,0,0,3.25-3.59,2.73,2.73,0,0,0,.67-2.37,2.9,2.9,0,0,0-1.35-1.23,14,14,0,0,0-6.25-2.22c-2.25-.08-4.7,1.07-5.33,3.12" transform="translate(-380 -75)"/><path class="cls-5" d="M540.5,375.56c.66,3.35,3.4,6,6.39,7.89a28.7,28.7,0,0,0,12,4.14c1.77.2,3.8.14,5-1.1a8.56,8.56,0,0,0,1.52-3.29c1.36-3.66,4.93-6.28,8.79-7.56,2.83-.94,5.85-1.27,8.65-2.27s5.5-2.92,6.21-5.68a1.28,1.28,0,0,0-.05-1.05,1.63,1.63,0,0,0-1.08-.59,30.61,30.61,0,0,0-24.59,4.59c-2.54,1.8-5.4,4.14-8.44,3.3a11.46,11.46,0,0,1-2.57-1.29,11.19,11.19,0,0,0-6.91-1.65c-2.4.34-5.45,1.82-4.94,4.56" transform="translate(-380 -75)"/><path class="cls-5" d="M610.2,363.42a124.27,124.27,0,0,1,24.46-8.94c8.49-2.14,17.53-2.83,26.09-.92a4.42,4.42,0,0,1,2.16.92c1,.93.92,2.47.74,3.8-.24,1.72-.51,3.44-.81,5.15a13.05,13.05,0,0,1-1.72,5.13c-1.5,2.22-4.15,3.45-6.67,4.57a14.21,14.21,0,0,1-1.28-7.31c.12-1.22.3-2.69-.72-3.45a3.54,3.54,0,0,0-1.48-.52,55.59,55.59,0,0,0-29.82,2.74c-4.72,1.82-9.16,4.29-14,5.81a3.38,3.38,0,0,1-1-4.26c.74-1.42,1.7-2,4.1-2.72" transform="translate(-380 -75)"/><path class="cls-5" d="M686.3,351.63a34.08,34.08,0,0,1,13-4.3,8.16,8.16,0,0,1,4.5.4c1.77.85,2.71,2.69,3.35,4.47a26.25,26.25,0,0,1,1.23,4.94c.22,1.46.11,3.31-1.3,4a3.43,3.43,0,0,1-2.13.09c-3.72-.76-6.67-3.59-10.37-4.42a19.06,19.06,0,0,0-6.35,0c-2.42.28-4.83.61-7.22,1a2.17,2.17,0,0,1,0-2.75,6.94,6.94,0,0,1,2.41-1.85l3.09-1.71" transform="translate(-380 -75)"/><path class="cls-5" d="M864.68,351.66c-20.1-3.82-41.24-7-60.83-1.21a50.48,50.48,0,0,1-6.39,1.68c-3.15.49-6.36.16-9.54.1a57.5,57.5,0,0,0-8,.4,4.86,4.86,0,0,0-3.36,1.36,1.81,1.81,0,0,0,.31,2.45h0c4.15,4.61,12.41,6.2,18.8,6.47a16.51,16.51,0,0,0,6.27-.61,20.2,20.2,0,0,0,4.85-3,39.85,39.85,0,0,1,16.06-7.5c15-2.8,30.84,6.19,45.39,1.74C867.66,352.33,866.07,351.92,864.68,351.66Z" transform="translate(-380 -75)"/><path class="cls-5" d="M893.5,344.71c6.74-1.92,11-8,16.39-12.32,9.47-7.65,22.4-9.88,34.67-11.83a3,3,0,0,1,2,.15,1.77,1.77,0,0,1,.38,2.42,5.49,5.49,0,0,1-2.14,1.74l-31.62,17.94a113.2,113.2,0,0,1-11.52,6A58.81,58.81,0,0,1,890,352.4a3.46,3.46,0,0,1-2.82-.28,2.42,2.42,0,0,1-.76-1.7c-.3-3.4,3.43-6.55,6.95-5.87" transform="translate(-380 -75)"/><path class="cls-5" d="M997.7,323.76c-6.84,1.92-14.22,2-21.36,1.2a8.89,8.89,0,0,1-3.2-.77,2.88,2.88,0,0,1-1.68-2.54c.1-1.65,2-2.54,3.67-3.09q10.13-3.37,20.44-6.23Q996.76,318,997.7,323.76Z" transform="translate(-380 -75)"/><path class="cls-5" d="M945.42,392.15a78.84,78.84,0,0,1,11.68-15.29c4-4.3,8.48-8.53,14.16-10.53a11.52,11.52,0,0,1,6.13-.67,5.56,5.56,0,0,1,4.38,3.79c.67,2.81-1.72,5.4-4.09,7.19-9.59,7.28-21.69,10.71-32.63,16" transform="translate(-380 -75)"/><path class="cls-5" d="M877.84,403.47a323.42,323.42,0,0,0,31-19,21.88,21.88,0,0,1,4.64-2.68c1.49,3,.29,6.45-.91,9.52-1.59,4-3.21,8.15-6,11.55a28.78,28.78,0,0,1-6.18,5.45c-5.1,3.43-11.2,5.79-17.45,5.57-1.5-.05-3.15-.32-4.13-1.42-1.94-2.18.32-6.44-1-9" transform="translate(-380 -75)"/><path class="cls-5" d="M757.54,404.5l8.58,4.37a26,26,0,0,1,6.29,4,8,8,0,0,1,2.75,6.47c-.44,3.77-4.51,6.3-8.46,6.91-2,.32-4.45.12-5.65-1.46-1-1.36-.78-3.21-1.26-4.82-.73-2.39-3.07-4.07-5.55-4.91a49.6,49.6,0,0,0-7.72-1.45,36.58,36.58,0,0,1-11.42-3.93c-1.1-.6-2.27-1.43-2.37-2.62-.13-1.68,1.86-2.72,3.56-3.18a37.28,37.28,0,0,1,21.76.67" transform="translate(-380 -75)"/><path class="cls-5" d="M533,440.62c17.79-2.88,32.27-16.47,50.18-18.55,5.27-.62,10.61-.19,15.89-.59a50.83,50.83,0,0,0,21.57-6.6c3.95-2.27,7.6-5.09,11.89-6.69,5.76-2.15,12.15-1.92,18.32-1.64q18.54.85,37.05,2.06a6,6,0,0,1,3.16.8,1.84,1.84,0,0,1,.44,2.74,2.84,2.84,0,0,1-1.34.54l-35.4,8a5.42,5.42,0,0,1,2.11-5.18c-.74-1.93-3.63-1.83-5.71-1.26-13.5,3.69-25.25,11.84-38.7,15.69s-28,3.19-41.7,6.17c-13.05,2.84-25.58,9-39,8.5a4.8,4.8,0,0,1-2-.38,2.41,2.41,0,0,1-.94-3.4c.75-1.11,3.08-1,4.17-.21" transform="translate(-380 -75)"/><path class="cls-5" d="M476.51,437c-2.87.85-6,.06-8.85-.73l-47.94-13.19c-5-1.37-10-2.75-15.13-3.67a117.53,117.53,0,0,0-20.54-1.65q-.92-5.4-1.64-10.86c9.46-.32,19-.12,27.8,3,6.78,2.42,12.78,6.49,19.45,9.17,14.28,5.74,30.53,4.78,45.54,8.45,1.95.47,4.06,1.17,5,2.85C481.64,432.91,479.37,436.15,476.51,437Z" transform="translate(-380 -75)"/><path class="cls-6" d="M979.85,261.6c-19.55,6.53-38.74,13.88-57,23.11-29.43,14.85-58.57,35.07-91.89,34.19-21.77-.58-42.55-10.35-64.33-9.87-20.21.45-38.92,9.65-56.67,18.84-12.69,6.57-25.91,13.41-40.35,14s-30.4-7.17-33.48-20.58c-1-4.13-.83-8.9-4-11.87-2.64-2.46-6.68-2.8-10.37-3l-38.47-2.07a20,20,0,0,0-4.5-22.85c-7.49-7-20-8.38-25.65-16.72s-2-19.15-3-28.95c-.27-2.65-1-5.43-3-7.32s-5.16-2.59-8-3.1c-34.46-6.06-71.83-10.08-100.13-28.39q3.56-4.65,7.29-9.16c20.92,3.28,41,14.82,61.4,22.08,13.22,4.7,27,7.66,40.61,11.36,7.09,1.93,15.23,5.16,16.79,12,.91,3.93-.72,7.94-1.29,11.93-2.14,15.19,14.83,29.79,30.54,26.27,8.08-1.8,19.17-6.15,22.62,1,.85,1.78.8,3.83,1.44,5.68,2.2,6.35,10.91,7.74,18,7.59a169.86,169.86,0,0,0,53-9.7c2.59-.92,5.35-2.06,6.72-4.34,2.9-4.84-2.22-10.39-6.94-13.7a285.82,285.82,0,0,0-44-25.41c22.92-2,39.72,20,61.29,27.59,9.17,3.25,19.19,3.83,28.43,6.9,13.37,4.45,24.72,14,38.63,16.45,9.75,1.75,19.77-.14,29.46-2.16a1034.26,1034.26,0,0,0,114.23-30.75c7.17-2.38,14.7-5.09,19.41-10.75s5.08-15.2-1.24-19.22c-3.07-1.95-7-2.2-10.67-2.4l-32.45-1.71c-4-.21-8.7-.9-10.32-4.34-2.52-5.34,4.9-9.84,10.86-11.37a340.93,340.93,0,0,1,46.12-8.51A290.57,290.57,0,0,1,979.85,261.6Z" transform="translate(-380 -75)"/><path class="cls-6" d="M611.24,344.39a91.88,91.88,0,0,1-53.92,1.8c-6.19-1.69-12.19-4-18.5-5.28-20.47-4-41.92,4-62.46.29a109.41,109.41,0,0,1-16.63-4.82l-16.57-5.75a54.38,54.38,0,0,1-11-4.73c-8.57-5.31-13.14-14.83-15.85-24.21s-4-19.18-8.21-28.05a48.65,48.65,0,0,0-7-10.82h0a285.09,285.09,0,0,1,13-27.35c3.72.54,7.62.7,11.33,1.13s7.36,1.22,10.18,3.43,4.4,6.15,2.79,9.26c-2.62,5.07-11.39,5-13.78,10.14a8.93,8.93,0,0,0-.09,6.1c1.56,5.7,5.37,10.57,8.67,15.56a101.81,101.81,0,0,1,11,22c2.78,7.8,4.75,16.21,10.43,22.44,8.6,9.42,23.85,11.18,36.35,7.39s22.85-12.12,32.54-20.54c5-4.33,10-8.81,13.59-14.24,4.21-6.31,7-14.25,14.08-17.55,4,6,1.24,13.94-2.28,20.22s-7.91,12.84-7,19.89a4.88,4.88,0,0,0,1.2,2.85c1,1,2.65,1.15,4.12,1.24,3.55.22,7.23.42,10.55-.8,3.93-1.45,6.77-4.68,9.87-7.4s7.13-5.15,11.28-4.39c2.33,2.25,1.5,6.16-.57,8.63s-5,4.08-7.38,6.32-4,5.68-2.6,8.52,5.47,3.77,8.9,4.22Z" transform="translate(-380 -75)"/><path class="cls-6" d="M412.72,323.66a4.38,4.38,0,0,1-1.6,3.61,5.77,5.77,0,0,1-3.15.59q-12.39-.11-24.79-.23.87-5.72,2-11.36A64.41,64.41,0,0,0,399,316c4.21-.53,9.25-1.21,12,1.83A8,8,0,0,1,412.72,323.66Z" transform="translate(-380 -75)"/><path class="cls-6" d="M763,462c-6,5.68-12,13.58-9.09,21.17,3,7.91,13.49,10.2,22.33,10.63s19,.76,24.47,7.37c1.68,2,2.64,5.13.87,7.1a7.56,7.56,0,0,1-3.7,1.85c-8.61,2.41-17.68,4.09-25.16,8.82s-13,13.66-10.14,21.74c1.56,4.46,5.49,8.44,4.86,13.1-.88,6.57-10.43,10.53-9.53,17.09.57,4.16,5.3,8.52,2.45,11.74a7.06,7.06,0,0,1-3.61,1.79,75.11,75.11,0,0,1-20.53,2.46c-4.8-.09-9.94-.79-13.45-3.9-2.1-1.87-3.37-4.4-5-6.68-5.77-8.35-16.35-13.49-26.87-13.06-8.58.36-16.53,4.09-24.73,6.49s-17.79,3.33-24.8-1.38C629.13,560.07,633,542,627.1,528.84c-5.42-12-18.68-18.76-31.21-24.13-23.8-10.19-48.39-18.6-72.94-27-9-3.07-18-6.16-27.5-7.2-10.91-1.2-22,.37-32.92-.5-17.59-1.41-34-9-51.38-11.85a65.92,65.92,0,0,0-17.21-.52q-3-9.06-5.32-18.36a97,97,0,0,1,45.79,10.58c6.4,3.3,12.4,7.34,19.07,10.13,25.37,10.59,54.41,1.46,81.94-1.59,45.2-5,91.58,7,136.18-1.64,15.22-2.93,29.95-8.22,45.4-9.74s31,.76,46.13-2.08c14.32-2.68,30.12-9.63,42.44-2.2.78,4.44-4.19,8-8.89,8.64s-9.48-.66-14.21-.22C774.82,451.86,768.42,456.84,763,462Z" transform="translate(-380 -75)"/><path class="cls-6" d="M626.88,566.81c-.18,1.35-2,1.76-3.45,1.77-19.35.18-37.07-10.83-56.36-12.14-18.29-1.24-36.25,6.33-54.57,5.41-9.83-.49-19.37-3.43-28.38-7.22-5.67-2.38-11.27-5.14-17.37-6.19-4.24-.73-8.59-.62-12.89-.91A89.47,89.47,0,0,1,441,545.6c-.15-.2-.31-.39-.46-.58l-.52-.68a120.12,120.12,0,0,0,13.55-.4c3.07-.26,6.79-1.15,7.56-4,.87-3.2-2.72-5.76-5.84-7.23a46.28,46.28,0,0,1,17.89-1c4,.56,9,1.3,11.3-1.85,2-2.7.7-7,3.25-9.2a6.37,6.37,0,0,1,3.59-1.32c5.28-.53,10.26,2.11,15,4.35A115.88,115.88,0,0,0,526.62,531c5.11,1.31,10.49,2.28,15.65,1.19,6-1.27,11-5.17,16.88-6.78,8.21-2.24,16.9.17,25.38,1,5,.52,10.13.49,15,1.65s9.74,3.74,12,8c3,5.73.76,13.09,4.19,18.58,2.63,4.19,8,6.31,10.64,10.48A2.5,2.5,0,0,1,626.88,566.81Z" transform="translate(-380 -75)"/><path class="cls-6" d="M716.61,664q-7,.56-14.06.8a28,28,0,0,0-1.14-4.1c-3.06-8.13-11.52-13.52-20.31-15.77s-18-1.87-27.12-1.87-18.48-.45-26.71-4.13c-9.55-4.26-16.87-12.59-27-15.5-7.14-2-15-1.1-21.91,1.57s-13,7-18.63,11.62l-.77.64h0a313.93,313.93,0,0,1-58.21-33.78,122.72,122.72,0,0,1,38.54-.64c8.84,1.26,17.48,3.49,26.21,5.33,25.07,5.31,51.73,7.86,73.19,21.26,3.53,2.2,6.88,4.67,10.59,6.59,16.06,8.33,35.73,5,53.88,7.2a4.68,4.68,0,0,1,2.83,1,4.56,4.56,0,0,1,1,2.4,33,33,0,0,0,7.6,15.16C715.23,662.53,715.92,663.25,716.61,664Z" transform="translate(-380 -75)"/><path class="cls-6" d="M880.2,603.85A317.92,317.92,0,0,1,738.78,661.5a64.1,64.1,0,0,0-11.62-34.75q21.38-1.23,42.81-.72c5.06.12,10.17.31,15.12-.66,4.57-.89,8.89-2.75,13.48-3.56,6.1-1.08,12.55-.29,18.45-2.11,5.15-1.59,9.6-5.09,14.94-5.93a4.24,4.24,0,0,1,1.91,0,3,3,0,0,1,1.82,3.09,8.38,8.38,0,0,1-1.44,3.52c5.53.72,11-1.83,15.51-4.91s8.69-6.79,13.77-9S874.45,603.84,880.2,603.85Z" transform="translate(-380 -75)"/><path class="cls-6" d="M1000.84,389.37q-.86,12.53-2.8,24.74l-19.72,3.64c-9.15,1.69-19.13,3.85-24.79,10.87s-5.48,17-11.26,23.84c-2.27,2.68-5.38,4.77-7,7.85A15.19,15.19,0,0,0,934,467.9a35.48,35.48,0,0,0,5.83,18c1.57,2.37,3.46,4.65,4.17,7.38,1.9,7.38-5.5,13.94-12.77,17.11S915.44,515.7,911,522c-4,5.72-3.48,13.21-5.64,19.77-3.31,10.08-12.88,17.33-23.15,21.37s-21.44,5.47-32.28,7.8c-8.16,1.76-17.13,4-24.52.23,6.71-3.07,9.43-12.09,5.45-18.07-3.07-4.61-8.9-6.85-12.78-10.88-4.69-4.87-6.27-12.08-11.56-16.37-2-1.62-4.62-3-5.08-5.46-.71-3.72,4.7-6.25,8.37-4.77s5.71,5.12,7.56,8.47a257.09,257.09,0,0,0,21,32.25c2,2.65,4.15,5.31,7.05,7.07a18.65,18.65,0,0,0,9,2.46c12,.38,22.49-8.07,28.88-17.73s9.91-20.78,15.9-30.66c7.28-12,18-21.85,25.21-33.87,4.79-8,8-17.69,4.68-26.33S916.57,442.92,907,441s-19.45-.69-29.12.52l-21.6,2.72c-10,1.26-20.54,2.48-30-.85,3-1.45,6.42-1.81,9.75-2.15L887.07,436c8.25-.84,16.53-1.69,24.57-3.64,14.59-3.54,27.93-10.57,41.08-17.54Z" transform="translate(-380 -75)"/><path class="cls-6" d="M982.77,471.11a289.23,289.23,0,0,1-37.56,68.26,63.34,63.34,0,0,1-14.88.57c1.64-4.22-3.33-8.76-2-13.08.73-2.36,3.13-3.82,5.18-5.34a29.63,29.63,0,0,0,12-24.37c-.07-2.06-.26-4.4,1.26-5.87,1.86-1.79,5-1.11,7.61-1,5.74.32,11.79-3.21,13.05-8.53.93-3.94-.78-8.1-3.5-11.2s-6.37-5.31-10-7.46a38.43,38.43,0,0,0-7.38-3.73,5.26,5.26,0,0,1-2.27-1.15,2.84,2.84,0,0,1-.51-2.64c.69-2.69,4.36-4.25,6.94-3,2,1,3,3.21,4.23,5.06,5,7.58,15,10.36,24.13,12.54Z" transform="translate(-380 -75)"/><path class="cls-6" d="M804.61,95.43a11.86,11.86,0,0,1-2.56,7.31c-3.28,4-9,5.26-13.59,7.78-5.83,3.16-10.06,8.38-15.34,12.33s-12.72,6.58-18.63,3.56a10.07,10.07,0,0,0,9.17-7.47c1-4-.55-8.36-3.48-11.39-4.38-4.53-12.42-6-17.53-2.22s-4.8,12.81,1.11,15.34c2.44,1,5.75,1.24,6.84,3.57.87,1.87-.43,4.13-2.29,5.16s-4.12,1.12-6.27,1.2l-19,.66c-3.92.14-8.48.61-10.57,3.77-2.25,3.41-.26,7.79,1.3,11.53s2.23,8.89-1.38,11a9.61,9.61,0,0,1-4.68,1,72.39,72.39,0,0,1-8.46-.25,5.59,5.59,0,0,1-2.84-.8c-1.29-1-1.45-2.74-1.27-4.28a17.28,17.28,0,0,1,3.55-8.69c2.58-3.34,6.36-5.79,8.45-9.43s1.34-9.34-2.86-10.44a10.4,10.4,0,0,0-3.48-.12l-24.61,1.91c-3.29.26-6.71.55-9.52,2.2-4.25,2.48-6.13,7.71-5.4,12.4s3.68,8.84,7.25,12.15c1.53,1.41,3.34,3.39,2.35,5.18-.69,1.24-2.38,1.57-3.85,1.72a84.3,84.3,0,0,1-30.18-2.31c-9.55-2.52-18.8-6.76-28.7-6.9-12.78-.19-25.6,6.47-37.88,3.11a46.72,46.72,0,0,1-10.14-4.58l-43.38-23.88a313.82,313.82,0,0,1,46.05-24.45c2.18,3.26,4,6.78,6.67,9.72,5.13,5.65,12.85,8.59,20.5,10.29,6.85,1.52,14.19,2.18,20.78-.13,5.28-1.86,9.81-5.54,15.32-6.65,5.3-1.07,10.82.38,16.21-.15,10.49-1,19.25-10.56,18.88-20.57-.11-3.08-1-6.11-.89-9.2a20,20,0,0,1,2.2-8.19Q676.45,75,690.75,75A324.49,324.49,0,0,1,804.61,95.43Z" transform="translate(-380 -75)"/></svg>