<svg id="Layer_1" data-name="Layer 1" xmlns="http://www.w3.org/2000/svg" viewBox="0 0 507.68 507.91"><defs><style>.cls-1{fill:#fff;}.cls-2,.cls-3{fill:#d8d8d8;}.cls-3{stroke:#fff;stroke-miterlimit:10;stroke-width:20px;}</style></defs><ellipse class="cls-1" cx="253.84" cy="253.96" rx="253.84" ry="253.96"/><path class="cls-2" d="M936.84,384c0-137.72-109.58-249.83-246.27-253.84,87.76,92.19,210.33,278,60.57,498.54C858.24,598.91,936.84,500.64,936.84,384Z" transform="translate(-429.16 -130.04)"/><ellipse class="cls-3" cx="201.73" cy="190.6" rx="50.23" ry="50.26"/><ellipse class="cls-3" cx="806.02" cy="367.85" rx="31.17" ry="31.15" transform="translate(8.18 1043.45) rotate(-89.94)"/><ellipse class="cls-3" cx="776.23" cy="228.69" rx="41.7" ry="60.95" transform="translate(-287.16 601.21) rotate(-54.81)"/><ellipse class="cls-3" cx="320.19" cy="349.74" rx="19.06" ry="19.06"/><ellipse class="cls-3" cx="193.18" cy="72.98" rx="16.03" ry="16.04"/><path class="cls-2" d="M463.34,366.36c18.88,0,34.18-21.49,34.18-48s-15.3-48-34.18-48a25.06,25.06,0,0,0-8.09,1.35,252.12,252.12,0,0,0-22.33,68.52C438.58,355.76,450.08,366.36,463.34,366.36Z" transform="translate(-429.16 -130.04)"/><path class="cls-2" d="M513.33,494.94A92.52,92.52,0,0,0,462.57,510a254.65,254.65,0,0,0,136.6,113.77,93.09,93.09,0,0,0-85.84-128.84Z" transform="translate(-429.16 -130.04)"/></svg>