<svg id="Layer_1" data-name="Layer 1" xmlns="http://www.w3.org/2000/svg" viewBox="0 0 585.45 573"><defs><style>.cls-1{fill:#0291ba;}.cls-2{fill:#0bcaf7;}.cls-3{fill:#025ea2;}.cls-4{fill:#0679bf;}.cls-5{fill:#31e2ff;}</style></defs><path class="cls-1" d="M975.71,345.46q.07,7.16-.2,14.23-.56,14.18-2.49,28a281.58,281.58,0,0,1-39.85,109.66q-4.33,7-9.08,13.7-7.53,10.68-16,20.64C855.07,594,775.48,634.06,686.1,635a301,301,0,0,1-39-2.11h0a297.83,297.83,0,0,1-42.85-8.36q-9.54-2.6-18.8-5.81a294.1,294.1,0,0,1-67.05-33.27h0a292.8,292.8,0,0,1-45.55-37.49c-43.39-43.79-72.64-101.12-80.47-165a285.43,285.43,0,0,1-2.05-29.42l0-2q-.14-12.19.77-24.13a279.65,279.65,0,0,1,21.54-88.84q1.86-4.38,3.87-8.7,1.11-2.37,2.25-4.72a287.14,287.14,0,0,1,55.12-77.08q7.4-7.4,15.33-14.27A294.66,294.66,0,0,1,679.9,62,297.84,297.84,0,0,1,780.56,78.3Q791.9,82.23,802.8,87q6.53,2.87,12.88,6Q826.6,98.51,837,104.81a292.28,292.28,0,0,1,76.78,67.39q3.24,4.06,6.32,8.23A283.19,283.19,0,0,1,939.31,210q2.84,5,5.44,10.08,2.88,5.6,5.49,11.32a279.39,279.39,0,0,1,24.52,93.74Q975.6,335.23,975.71,345.46Z" transform="translate(-390.27 -62)"/><path class="cls-2" d="M780.56,78.3c-18.07,19.8-43.65,33.07-70.14,39.92-33.39,8.65-68.46,8.25-103,6.84-28-1.15-56.64-3.07-82.49-13.7-1.27-.53-2.53-1.07-3.78-1.65A298.94,298.94,0,0,1,780.56,78.3Z" transform="translate(-390.27 -62)"/><path class="cls-2" d="M460.06,419.51c37.64,5,76.78-7.47,113.5,2,17.22,4.44,32.83,13.5,49.78,18.83a120.44,120.44,0,0,0,38,5.51c10.52-.18,21-1.74,31.52-1.68,11.71.06,23.29,2.12,34.81,4.17l41.85,7.45c1.42.25,3.07.68,3.6,2a3.66,3.66,0,0,1-.82,3.33c-3.24,4.6-8.92,6.86-14.39,8.45-16.07,4.67-33,5.64-49.8,5.36C687,474.6,666,472.3,645,470L504.17,454.67c-10.86-1.18-22.06-2.47-31.55-7.75s-16.92-15.68-15.13-26.22" transform="translate(-390.27 -62)"/><path class="cls-2" d="M493.12,544.48l46.63-2c6.72-.28,13.49-.58,20-2.07,7-1.6,13.69-4.55,20.84-5.12,6.22-.49,12.41.84,18.54,1.94a241,241,0,0,0,74,1.6c2.82-.38,6.06-1.1,7.32-3.6,1.34-2.68-.55-6-3.24-7.45s-5.89-1.41-8.94-1.43c-30.24-.16-60.13-5.72-90.12-9.55-11.25-1.43-22.74-2.62-33.88-.5a85,85,0,0,0-22.09,8c-11.14,5.58-21.72,12.52-30.06,21.65" transform="translate(-390.27 -62)"/><path class="cls-3" d="M881.09,445.49c-19.63,1.56-37.2,16.95-55.59,26.15-27.82,13.93-60.4,14-91.23,19-10.22,1.66-22.48,6-23.8,16.07-.46,3.44.54,7.15-1,10.3-1.76,3.69-6.21,5.2-10.21,6.33-27,7.69-54.82,15.46-82.77,12.52-19.66-2.07-38.84-9.42-58.57-8.07-22.43,1.53-42.53,14.09-64.59,18.35a106.34,106.34,0,0,1-20.53,1.8c-43.39-43.79-72.64-101.12-80.47-165,32.1,10.74,61.72,36,96.14,40.75,22.47,3.1,45.69-2.82,67.89,1.78,21.54,4.46,39.82,18.35,60.78,25,38.5,12.15,80.76-1.46,120.67,5,11.52,1.84,22.88,5.36,34.55,5.08,10.05-.24,19.78-3.31,29.51-5.84A287,287,0,0,1,881.09,445.49Z" transform="translate(-390.27 -62)"/><path class="cls-2" d="M404.35,298.92c7.87,3.63,16.93,3.58,25.64,3.45l44.67-.64a132.78,132.78,0,0,1,18.5.61,116.25,116.25,0,0,1,17.47,4q20.16,5.83,39.74,13.42c5.11,2,10.41,4.09,15.91,3.78a2.54,2.54,0,0,0,1.73-.59,2,2,0,0,0,.46-1.23c.21-2.1-.84-4.1-2-5.89-8.65-13.64-23.51-22.7-39.22-27.33s-32.35-5.26-48.75-5.09a314,314,0,0,0-34.56,2c-13.45,1.64-27.59,5-37,14.51Z" transform="translate(-390.27 -62)"/><path class="cls-2" d="M592.3,312.67c-10.37-2.81-16.71-12.65-24.5-19.91-14.41-13.44-35.23-18.56-55.15-18.34-7.29.07-14.61.79-21.85,0-8.66-1-16.92-4.09-24.85-7.62-10.74-4.8-21.09-10.41-31.42-16l-16.47-8.93a49.26,49.26,0,0,1-5.46-3.27q1.86-4.38,3.87-8.7,1.11-2.37,2.25-4.72c9.21,9.65,20.44,17.26,31.56,24.77,5.84,3.94,11.77,7.93,18.47,10.2,5,1.69,10.22,2.38,15.43,3.07l49.67,6.52A92.14,92.14,0,0,1,547,272.08c10.06,2.83,18.85,9,26.16,16.33S586.39,304.23,592.3,312.67Z" transform="translate(-390.27 -62)"/><path class="cls-2" d="M837,104.81c-13.45,5.68-26.72,11.87-40.13,17.61-26,11.11-53.27,20.72-81.6,21.23-27.87.5-55.47-7.85-83.27-5.88,30.66-7.58,62.68-8.08,93.77-13.77,28.63-5.24,57.84-16,77-37q6.53,2.87,12.88,6Q826.6,98.51,837,104.81Z" transform="translate(-390.27 -62)"/><path class="cls-2" d="M561.07,141.28c13.24,6.66,28.2,9.09,42.89,11.43,34,5.41,68.14,10.84,102.58,11.37,24.94.38,50-1.8,74.76,1,18.84,2.15,37.33,7.19,56.29,7.84-8.8,4.8-19.27,5.45-29.34,6-30.86,1.65-61.74,3.3-92.63,4.25-23.93.73-48,1-71.69-2.06s-47.26-9.73-67.63-22c-7.13-4.3-14.3-9.93-16.22-17.9" transform="translate(-390.27 -62)"/><path class="cls-2" d="M961.1,258.82a455.62,455.62,0,0,1-48.47,7.05c-25.21,2-50.56.68-75.86,1.26-40.1.92-80.27,6.66-120.2,2.91s-81.16-18.76-104.67-50.58a133.33,133.33,0,0,1,27.5,10.63c7.36,3.84,14.38,8.38,22.21,11.19,22.34,8,46.91.85,70.42-2.76a229.9,229.9,0,0,1,51.83-2c24,1.79,47.55,7.34,71.53,9.25s49.27-.14,69.85-12.33c6.76-4,12.93-9.07,19.51-13.33q2.88,5.6,5.49,11.32A281.22,281.22,0,0,1,961.1,258.82Z" transform="translate(-390.27 -62)"/><path class="cls-2" d="M568.49,224.55c19.85,8.37,40,16.89,56.8,30.16,8,6.33,15.21,13.68,23.67,19.43,7.91,5.39,16.76,9.27,25.56,13.12,9.77,4.27,19.61,8.57,30,10.89,19,4.23,38.76,1.69,58.22,1.31a259.67,259.67,0,0,1,106.46,20.66l-170.4,1.46c-6.66.05-13.36.11-19.89-1.15a95.61,95.61,0,0,1-15.14-4.66c-21.62-8-44.08-17.41-58-35.45-8.1-10.47-12.84-23.29-21.94-32.93-10.49-11.1-26-17.08-35.43-29" transform="translate(-390.27 -62)"/><path class="cls-3" d="M974.76,325.16C938,330.48,901.42,335.89,866,326.79c-14.24-3.64-27.82-9.56-42.19-12.68-47.7-10.39-99.84,10.61-145.41-6.66-36-13.63-59.21-48-92.05-67.89-27.18-16.45-61.62-23.49-81.4-48.06a245.78,245.78,0,0,1,118.39,33.72c16,9.42,31.23,20.84,49.29,25.38,34.78,8.76,70.72-9.81,106.62-8.66,18.93.6,37.19,6.68,55.87,9.76a179.18,179.18,0,0,0,115.17-20.28A279.6,279.6,0,0,1,974.76,325.16Z" transform="translate(-390.27 -62)"/><path class="cls-3" d="M913.77,172.2c-28.27,8.18-59.39,7.55-89.26,6.65l-110.85-3.36c-26.25-.79-52.63-1.6-78.46-6.27a263.42,263.42,0,0,1-80.13-28.45,284.68,284.68,0,0,1,83.44-9c19.83.83,39.6,3.73,59.43,2.89,42.23-1.79,81-20.15,117.74-41.66A293,293,0,0,1,913.77,172.2Z" transform="translate(-390.27 -62)"/><path class="cls-3" d="M617.52,319.33c-20.79,11.33-47.71,11-68.19-.88-7-4-13.14-9.25-20.1-13.26-39.06-22.56-90-2.75-134.73-5.47a279.89,279.89,0,0,1,22-69.85c22.16,18.61,46.31,34.84,74.67,39.64,20.44,3.46,42.32.76,61.26,9.06C576.16,289,591.79,315.4,617.52,319.33Z" transform="translate(-390.27 -62)"/><path class="cls-2" d="M975.51,359.69q-.56,14.18-2.49,28A705.32,705.32,0,0,1,812.49,403c-29.72-.58-59.4-3.05-89.12-3-32.39.11-64.72,3.24-97.1,2.78-80.74-1.17-159.07-24.57-235.95-49.3l0-2q-.14-12.19.77-24.13c29.56.82,58.82,4.16,86.73,13.45,24.08,8,46.74,20.38,71.64,25.5,20.18,4.16,41.05,3.39,61.64,2.25,69.77-3.85,140.21-11.65,209.13-.4,14.56,2.37,29,5.59,43.7,7C901.6,378.85,939,370.51,975.51,359.69Z" transform="translate(-390.27 -62)"/><path class="cls-2" d="M947.38,471.63a286.14,286.14,0,0,1-39.28,60c-42.87,4.67-85.18,10.89-122.49,30.81-22.17,11.84-41.56,28.07-63,41.08a232,232,0,0,1-75.49,29.31h0a294.78,294.78,0,0,1-128.7-47.44c24.23-2.47,48.74-.28,73.13.57,20.21.7,40.47.47,60.66-.69,10.86-.62,22-1.57,31.86-6,15.28-6.8,25.66-20.77,38-31.92a121.91,121.91,0,0,1,64.05-29.9c21.75-3.1,44.81-.46,65-9,14.25-6,25.64-17.09,39.25-24.43C907.65,474.75,927.37,472,947.38,471.63Z" transform="translate(-390.27 -62)"/><path class="cls-2" d="M939.31,210c-16,3.83-31.93,8.44-48.16,11-23.88,3.77-48.23,3-72.4,2.33l-99.43-3c-13.86-.41-27.78-.83-41.44-3.18-7.74-1.33-15.36-3.28-23-5.22l-32-8.17c-33.41-8.54-67-17.13-98.72-30.44a455.26,455.26,0,0,1-50.39-25.3q7.4-7.4,15.33-14.27c13.22,7.81,26,16.43,39.61,23.49,25.23,13.07,53,20.52,80.58,27.87,17.81,4.75,35.64,9.51,53.78,12.78,31.54,5.68,63.76,6.83,95.83,6.57,54.59-.43,110.36-5.22,161.12-24.08A283.19,283.19,0,0,1,939.31,210Z" transform="translate(-390.27 -62)"/><path class="cls-2" d="M873.5,395.2a3.51,3.51,0,0,0-1.79-1.18,1.75,1.75,0,0,0-1.79.48c-.89,1-.34,2.51.25,3.7.27.55.55,1.1.83,1.65a1.4,1.4,0,0,0,.61.74,1.26,1.26,0,0,0,.77,0,2.79,2.79,0,0,0,1.94-1.91,4.58,4.58,0,0,0-.82-3.49" transform="translate(-390.27 -62)"/><path class="cls-4" d="M596.49,452.84a3.58,3.58,0,0,0-1.82,1.14,1.68,1.68,0,0,0-.27,1.79c.57,1.2,2.22,1.32,3.57,1.26l1.88-.08a1.47,1.47,0,0,0,.93-.26,1.09,1.09,0,0,0,.32-.69,2.72,2.72,0,0,0-1-2.5,4.86,4.86,0,0,0-3.6-.66" transform="translate(-390.27 -62)"/><path class="cls-4" d="M630.84,523.62a3.64,3.64,0,0,0-1.82,1.14,1.7,1.7,0,0,0-.27,1.8c.57,1.19,2.22,1.31,3.57,1.25l1.88-.08a1.47,1.47,0,0,0,.93-.25,1.14,1.14,0,0,0,.32-.69,2.71,2.71,0,0,0-1-2.5,4.86,4.86,0,0,0-3.6-.67" transform="translate(-390.27 -62)"/><path class="cls-4" d="M623.79,478.46A3.6,3.6,0,0,0,622,479.6a1.7,1.7,0,0,0-.27,1.8c.56,1.19,2.22,1.31,3.56,1.25l1.88-.08a1.48,1.48,0,0,0,.94-.25,1.14,1.14,0,0,0,.32-.69,2.74,2.74,0,0,0-1-2.5,4.87,4.87,0,0,0-3.6-.67" transform="translate(-390.27 -62)"/><path class="cls-4" d="M760.48,466.21a3.6,3.6,0,0,0-1.82,1.14,1.69,1.69,0,0,0-.27,1.8c.56,1.19,2.22,1.31,3.56,1.25l1.88-.08a1.48,1.48,0,0,0,.94-.25,1.14,1.14,0,0,0,.32-.69,2.74,2.74,0,0,0-1-2.5,4.83,4.83,0,0,0-3.6-.67" transform="translate(-390.27 -62)"/><path class="cls-4" d="M639.55,465.89a3.54,3.54,0,0,0-1.82,1.14,1.68,1.68,0,0,0-.27,1.79c.57,1.2,2.22,1.31,3.56,1.26l1.89-.08a1.47,1.47,0,0,0,.93-.26,1.11,1.11,0,0,0,.32-.69,2.72,2.72,0,0,0-1-2.5,4.87,4.87,0,0,0-3.6-.66" transform="translate(-390.27 -62)"/><path class="cls-4" d="M795.34,465.85a3.54,3.54,0,0,0-1.82,1.14,1.69,1.69,0,0,0-.27,1.8c.56,1.19,2.22,1.31,3.56,1.25l1.88-.08a1.43,1.43,0,0,0,.94-.26A1.09,1.09,0,0,0,800,469a2.74,2.74,0,0,0-1-2.5,4.83,4.83,0,0,0-3.6-.67" transform="translate(-390.27 -62)"/><path class="cls-4" d="M505.49,510.55a3.58,3.58,0,0,0-1.82,1.14,1.66,1.66,0,0,0-.26,1.79c.56,1.2,2.21,1.31,3.56,1.26l1.88-.08a1.52,1.52,0,0,0,.94-.26,1.16,1.16,0,0,0,.31-.69,2.72,2.72,0,0,0-1-2.5,4.86,4.86,0,0,0-3.6-.66" transform="translate(-390.27 -62)"/><path class="cls-4" d="M592,490.31a3.3,3.3,0,0,0-.46,1.43,1.28,1.28,0,0,0,2.16,1.2,2.65,2.65,0,0,0,.79-1.36,1.87,1.87,0,0,0-.34-2,1.48,1.48,0,0,0-2.15.72" transform="translate(-390.27 -62)"/><path class="cls-4" d="M562.73,483.93a3.31,3.31,0,0,0-.47,1.43,1.44,1.44,0,0,0,.67,1.45,1.41,1.41,0,0,0,1.5-.25,2.72,2.72,0,0,0,.79-1.36,1.89,1.89,0,0,0-.34-2,1.48,1.48,0,0,0-2.15.72" transform="translate(-390.27 -62)"/><path class="cls-4" d="M600.23,471.27a3.44,3.44,0,0,0-.46,1.43,1.29,1.29,0,0,0,2.17,1.2,2.76,2.76,0,0,0,.79-1.36,1.89,1.89,0,0,0-.34-2,1.49,1.49,0,0,0-2.16.72" transform="translate(-390.27 -62)"/><path class="cls-4" d="M731.26,476.21a3.45,3.45,0,0,0-.47,1.43,1.44,1.44,0,0,0,.67,1.44,1.41,1.41,0,0,0,1.5-.24,2.69,2.69,0,0,0,.79-1.36,1.87,1.87,0,0,0-.34-2,1.48,1.48,0,0,0-2.15.72" transform="translate(-390.27 -62)"/><path class="cls-4" d="M771,475.79a3.39,3.39,0,0,0-.46,1.43,1.29,1.29,0,0,0,2.17,1.21,2.76,2.76,0,0,0,.79-1.36,1.89,1.89,0,0,0-.35-2,1.48,1.48,0,0,0-2.15.71" transform="translate(-390.27 -62)"/><path class="cls-4" d="M540.75,445.61a3.4,3.4,0,0,0-.47,1.44,1.44,1.44,0,0,0,.67,1.44,1.41,1.41,0,0,0,1.5-.24,2.76,2.76,0,0,0,.79-1.36,1.87,1.87,0,0,0-.34-2,1.48,1.48,0,0,0-2.15.71" transform="translate(-390.27 -62)"/><path class="cls-4" d="M543,513.34a3.44,3.44,0,0,0-.46,1.43,1.45,1.45,0,0,0,.66,1.45,1.43,1.43,0,0,0,1.51-.25,2.72,2.72,0,0,0,.79-1.36,1.89,1.89,0,0,0-.34-2,1.49,1.49,0,0,0-2.16.72" transform="translate(-390.27 -62)"/><path class="cls-4" d="M526.74,447.74a3.45,3.45,0,0,0-.47,1.43,1.45,1.45,0,0,0,.67,1.45,1.43,1.43,0,0,0,1.5-.25,2.65,2.65,0,0,0,.79-1.36,1.87,1.87,0,0,0-.34-2,1.48,1.48,0,0,0-2.15.72" transform="translate(-390.27 -62)"/><path class="cls-4" d="M455.37,491.73a3.31,3.31,0,0,0-.47,1.43,1.43,1.43,0,0,0,.67,1.44,1.41,1.41,0,0,0,1.5-.24,2.76,2.76,0,0,0,.79-1.36,1.87,1.87,0,0,0-.34-2,1.48,1.48,0,0,0-2.15.72" transform="translate(-390.27 -62)"/><path class="cls-4" d="M428.67,448.93a3.4,3.4,0,0,0-.47,1.43,1.44,1.44,0,0,0,.67,1.45,1.41,1.41,0,0,0,1.5-.24,2.76,2.76,0,0,0,.79-1.36,1.87,1.87,0,0,0-.34-2,1.48,1.48,0,0,0-2.15.71" transform="translate(-390.27 -62)"/><path class="cls-4" d="M464.54,472.67a3.31,3.31,0,0,0-.47,1.43,1.45,1.45,0,0,0,.66,1.45,1.42,1.42,0,0,0,1.51-.24A2.76,2.76,0,0,0,467,474a1.89,1.89,0,0,0-.34-2,1.48,1.48,0,0,0-2.15.71" transform="translate(-390.27 -62)"/><path class="cls-4" d="M713.06,473c-1.75,1.72-2.6,4-1.71,6.16.71,1.71,2.48,2.74,4.21,3.48a7.56,7.56,0,0,0,2.75.75,3.11,3.11,0,0,0,2.56-1,2.31,2.31,0,0,0,.26-2.4,10.92,10.92,0,0,0-1.63-1.85,4.16,4.16,0,0,1-.85-1.59,21.32,21.32,0,0,1-.31-2.53,3.05,3.05,0,0,0-1.17-2.19,2.57,2.57,0,0,0-2.25-.15,5.12,5.12,0,0,0-1.86,1.34" transform="translate(-390.27 -62)"/><path class="cls-4" d="M568.35,456.13c-1.75,1.73-2.59,4.05-1.71,6.17.71,1.71,2.49,2.73,4.21,3.48a7.82,7.82,0,0,0,2.75.75,3.13,3.13,0,0,0,2.56-1,2.3,2.3,0,0,0,.26-2.4,9.85,9.85,0,0,0-1.63-1.86,4.13,4.13,0,0,1-.84-1.59,19.07,19.07,0,0,1-.32-2.52,3,3,0,0,0-1.17-2.19,2.55,2.55,0,0,0-2.24-.16,5.19,5.19,0,0,0-1.87,1.34" transform="translate(-390.27 -62)"/><path class="cls-4" d="M411.4,409c-1.75,1.73-2.6,4-1.71,6.17.71,1.71,2.48,2.73,4.21,3.48a8,8,0,0,0,2.75.75,3.17,3.17,0,0,0,2.56-1,2.32,2.32,0,0,0,.26-2.4,10.61,10.61,0,0,0-1.63-1.86,4.09,4.09,0,0,1-.85-1.59,21.15,21.15,0,0,1-.31-2.52,3.05,3.05,0,0,0-1.17-2.19,2.55,2.55,0,0,0-2.24-.16A5.07,5.07,0,0,0,411.4,409" transform="translate(-390.27 -62)"/><path class="cls-4" d="M525,472.6c-1.75,1.73-2.59,4-1.71,6.16.71,1.71,2.49,2.74,4.21,3.48a7.62,7.62,0,0,0,2.75.75,3.1,3.1,0,0,0,2.56-1,2.29,2.29,0,0,0,.26-2.4,10.11,10.11,0,0,0-1.63-1.85,4.28,4.28,0,0,1-.84-1.59,19.44,19.44,0,0,1-.32-2.53,3,3,0,0,0-1.17-2.19,2.55,2.55,0,0,0-2.24-.15A5.07,5.07,0,0,0,525,472.6" transform="translate(-390.27 -62)"/><path class="cls-4" d="M468,437c-.61-1.7-1.64-2.65-2.81-2-.94.5-1.7,2-2.32,3.48a11.5,11.5,0,0,0-.76,2.39,4.29,4.29,0,0,0,.14,2.37.77.77,0,0,0,1.15.43,7.83,7.83,0,0,0,1.15-1.3,2.15,2.15,0,0,1,.91-.63,6.21,6.21,0,0,1,1.29-.07,1.56,1.56,0,0,0,1.25-.86,4,4,0,0,0,.4-2A5.55,5.55,0,0,0,468,437" transform="translate(-390.27 -62)"/><path class="cls-4" d="M831,455.66c-.61-1.7-1.63-2.65-2.8-2-1,.5-1.71,2-2.32,3.48a12.15,12.15,0,0,0-.77,2.39,4.28,4.28,0,0,0,.15,2.37.76.76,0,0,0,1.14.43,7.4,7.4,0,0,0,1.15-1.3,2,2,0,0,1,.91-.62,5.63,5.63,0,0,1,1.29-.08,1.53,1.53,0,0,0,1.25-.86,4,4,0,0,0,.4-2,5.55,5.55,0,0,0-.4-1.78" transform="translate(-390.27 -62)"/><path class="cls-4" d="M668.4,512.82c-.61-1.71-1.63-2.65-2.81-2-.94.49-1.7,2-2.31,3.48a12.15,12.15,0,0,0-.77,2.39,4.19,4.19,0,0,0,.15,2.37.76.76,0,0,0,1.14.43,7.48,7.48,0,0,0,1.15-1.31,2.21,2.21,0,0,1,.91-.62,6.24,6.24,0,0,1,1.29-.07,1.55,1.55,0,0,0,1.25-.86,4,4,0,0,0,.4-2,5.55,5.55,0,0,0-.4-1.77" transform="translate(-390.27 -62)"/><path class="cls-4" d="M609.27,507.13c-.6-1.7-1.63-2.65-2.8-2-1,.5-1.71,2-2.32,3.48a11.5,11.5,0,0,0-.76,2.39,4.2,4.2,0,0,0,.14,2.37.77.77,0,0,0,1.15.43,8.3,8.3,0,0,0,1.15-1.3,2.07,2.07,0,0,1,.9-.63,6.3,6.3,0,0,1,1.3-.07,1.57,1.57,0,0,0,1.25-.86,4,4,0,0,0,.39-2,5.29,5.29,0,0,0-.4-1.78" transform="translate(-390.27 -62)"/><path class="cls-4" d="M500.27,484.6c-.61-1.7-1.64-2.65-2.81-2-.95.49-1.7,2-2.32,3.47a11.5,11.5,0,0,0-.76,2.39,4.27,4.27,0,0,0,.14,2.37c.26.53.72.71,1.15.44a7.92,7.92,0,0,0,1.15-1.31,2.15,2.15,0,0,1,.91-.62,6.21,6.21,0,0,1,1.29-.07,1.57,1.57,0,0,0,1.25-.87,4,4,0,0,0,.39-2,5.61,5.61,0,0,0-.39-1.78" transform="translate(-390.27 -62)"/><path class="cls-4" d="M658.08,483c-.6-1.7-1.63-2.65-2.8-2-.95.49-1.71,2-2.32,3.48a11.5,11.5,0,0,0-.76,2.39,4.2,4.2,0,0,0,.14,2.37.77.77,0,0,0,1.15.43,8.3,8.3,0,0,0,1.15-1.3,2.07,2.07,0,0,1,.9-.63,6.3,6.3,0,0,1,1.3-.07,1.57,1.57,0,0,0,1.25-.86,4,4,0,0,0,.39-2,5.55,5.55,0,0,0-.4-1.78" transform="translate(-390.27 -62)"/><path class="cls-4" d="M495.26,463.68a2.91,2.91,0,0,0-.15,2.92,2.24,2.24,0,0,0,1.71,1.46,2.27,2.27,0,0,0,2.12-.79,4.13,4.13,0,0,0,.68-2.18,3.35,3.35,0,0,0-.1-1.51,2.12,2.12,0,0,0-2.11-1.24,2.87,2.87,0,0,0-2.15,1.34" transform="translate(-390.27 -62)"/><path class="cls-4" d="M433,482.77a2.93,2.93,0,0,0-.15,2.93,2.21,2.21,0,0,0,1.71,1.45,2.27,2.27,0,0,0,2.12-.79,4,4,0,0,0,.68-2.17,3.2,3.2,0,0,0-.1-1.51,2.12,2.12,0,0,0-2.11-1.25,2.87,2.87,0,0,0-2.15,1.34" transform="translate(-390.27 -62)"/><path class="cls-4" d="M443.15,457.7a2.74,2.74,0,0,0-1.7,2.3c-.35,2.28-.54,4.87,1,6.62a7.39,7.39,0,0,0,4.19,2,25.82,25.82,0,0,0,3.61.46c1.65.09,3.5-.05,4.64-1.23a4.42,4.42,0,0,0,1.06-2.06,7.73,7.73,0,0,0-3.59-8.15,9.21,9.21,0,0,0-9.21.07" transform="translate(-390.27 -62)"/><path class="cls-4" d="M675.2,465.06c-1.55,1.48-2.68,2.44-3.23,4.39a5.78,5.78,0,0,0,1.45,5.63,5.1,5.1,0,0,0,5.73.88,7.78,7.78,0,0,0,1.75-1.38,14.49,14.49,0,0,0,3.63-5.29,7.12,7.12,0,0,0-.51-6.19,2.88,2.88,0,0,0-1.76-1.34,3.13,3.13,0,0,0-1.39.12,12.35,12.35,0,0,0-5.67,3.18" transform="translate(-390.27 -62)"/><path class="cls-4" d="M745.53,473a8,8,0,0,0-1.8,4.61,1.84,1.84,0,0,0,.14,1c.31.6,1.09.76,1.76.86a6.74,6.74,0,0,0,3.16-.05,3.92,3.92,0,0,0,2.48-3.26,6.24,6.24,0,0,0-1.13-4.06c-.57-.87-1.62-1.71-2.57-1.28s-1.28,1.33-2,2.22" transform="translate(-390.27 -62)"/><path class="cls-4" d="M564.81,503.62a8,8,0,0,0-1.8,4.6,1.87,1.87,0,0,0,.14,1,2.22,2.22,0,0,0,1.76.85,6.61,6.61,0,0,0,3.16,0,3.94,3.94,0,0,0,2.48-3.27,6.14,6.14,0,0,0-1.13-4.06c-.57-.86-1.62-1.71-2.57-1.27s-1.28,1.33-2,2.22" transform="translate(-390.27 -62)"/><path class="cls-4" d="M479.87,527.25a8,8,0,0,0-1.8,4.61,1.84,1.84,0,0,0,.14,1,2.23,2.23,0,0,0,1.76.86,6.74,6.74,0,0,0,3.16,0,3.92,3.92,0,0,0,2.48-3.26,6.13,6.13,0,0,0-1.13-4.06c-.57-.87-1.62-1.71-2.57-1.28s-1.28,1.33-2,2.22" transform="translate(-390.27 -62)"/><path class="cls-4" d="M667.21,492.87a8,8,0,0,0-1.79,4.61,1.74,1.74,0,0,0,.14,1c.31.6,1.08.76,1.76.86a6.88,6.88,0,0,0,3.16,0A4,4,0,0,0,673,496a6.18,6.18,0,0,0-1.12-4.06c-.58-.87-1.62-1.71-2.58-1.28s-1.27,1.33-2,2.22" transform="translate(-390.27 -62)"/><path class="cls-4" d="M442.35,420c-2.84,2.67-2.48,4.53-2.42,6.72a1.08,1.08,0,0,0,.2.73,1.26,1.26,0,0,0,.79.3c1.69.2,3.53.28,4.95-.64,1.78-1.14,2.33-3.45,2.34-5.54a3.65,3.65,0,0,0-.31-1.79,2.75,2.75,0,0,0-2.76-1.27,4.94,4.94,0,0,0-2.79,1.49" transform="translate(-390.27 -62)"/><path class="cls-4" d="M807.93,465c-2.83,2.67-2.47,4.53-2.42,6.72a1.17,1.17,0,0,0,.2.73,1.22,1.22,0,0,0,.8.29,7.48,7.48,0,0,0,5-.63c1.78-1.14,2.32-3.46,2.34-5.54a3.88,3.88,0,0,0-.31-1.79,2.79,2.79,0,0,0-2.76-1.28,5,5,0,0,0-2.8,1.5" transform="translate(-390.27 -62)"/><path class="cls-4" d="M686.47,496.44l-.35,1.09a2.1,2.1,0,0,0,0,1.94,2.13,2.13,0,0,0,1.54.62,7.18,7.18,0,0,0,2.22,0,2.8,2.8,0,0,0,1.82-1.17,2.67,2.67,0,0,0,.35-1,3.4,3.4,0,0,0-.29-2.22,2.5,2.5,0,0,0-1.81-1.31,4,4,0,0,0-1.66.25,2.29,2.29,0,0,0-1.09.6,7.78,7.78,0,0,0-.75,1.23" transform="translate(-390.27 -62)"/><path class="cls-4" d="M720.05,464.94,719.7,466a2.17,2.17,0,0,0,0,1.94,2.13,2.13,0,0,0,1.54.62,7.25,7.25,0,0,0,2.23,0,2.78,2.78,0,0,0,1.81-1.17,2.68,2.68,0,0,0,.36-1,3.46,3.46,0,0,0-.3-2.22,2.5,2.5,0,0,0-1.81-1.31,3.88,3.88,0,0,0-1.65.25,2.28,2.28,0,0,0-1.1.6,9.61,9.61,0,0,0-.75,1.23" transform="translate(-390.27 -62)"/><path class="cls-4" d="M479.05,505.82l-.35,1.09a1.61,1.61,0,0,0,1.56,2.55,6.88,6.88,0,0,0,2.22,0,2.82,2.82,0,0,0,1.82-1.17,2.87,2.87,0,0,0,.36-1,3.46,3.46,0,0,0-.3-2.22,2.48,2.48,0,0,0-1.81-1.31,3.88,3.88,0,0,0-1.65.25,2.2,2.2,0,0,0-1.1.6,8.08,8.08,0,0,0-.75,1.23" transform="translate(-390.27 -62)"/><path class="cls-4" d="M481.46,438.44l-.36,1.09a2.17,2.17,0,0,0,0,1.94,2.13,2.13,0,0,0,1.54.62,7.25,7.25,0,0,0,2.23,0,2.83,2.83,0,0,0,1.82-1.17,2.86,2.86,0,0,0,.35-1,3.46,3.46,0,0,0-.3-2.22,2.46,2.46,0,0,0-1.81-1.3,3.75,3.75,0,0,0-1.65.24,2.28,2.28,0,0,0-1.1.6,8.54,8.54,0,0,0-.74,1.23" transform="translate(-390.27 -62)"/><path class="cls-4" d="M629.2,497l-.35,1.08a1.62,1.62,0,0,0,1.55,2.56,7.25,7.25,0,0,0,2.23,0,2.84,2.84,0,0,0,1.82-1.17,2.93,2.93,0,0,0,.35-1,3.37,3.37,0,0,0-.3-2.23,2.47,2.47,0,0,0-1.8-1.3,4,4,0,0,0-1.66.24,2.3,2.3,0,0,0-1.1.61,7.57,7.57,0,0,0-.74,1.23" transform="translate(-390.27 -62)"/><path class="cls-4" d="M612,459.32l-.35,1.09a2.1,2.1,0,0,0,0,1.94,2.13,2.13,0,0,0,1.53.62,7.24,7.24,0,0,0,2.23,0,2.77,2.77,0,0,0,1.82-1.17,2.86,2.86,0,0,0,.35-1,3.4,3.4,0,0,0-.29-2.22,2.51,2.51,0,0,0-1.81-1.3,3.79,3.79,0,0,0-1.66.24,2.26,2.26,0,0,0-1.1.61,7.93,7.93,0,0,0-.74,1.22" transform="translate(-390.27 -62)"/><path class="cls-5" d="M652.66,79.33a1.55,1.55,0,0,0-.73.57.73.73,0,0,0,0,.79c.3.49,1,.46,1.59.37l.81-.13a.62.62,0,0,0,.39-.16.48.48,0,0,0,.1-.31,1.19,1.19,0,0,0-.56-1,2.05,2.05,0,0,0-1.58-.11" transform="translate(-390.27 -62)"/><path class="cls-5" d="M621.4,73.24a1.51,1.51,0,0,0-.73.58.71.71,0,0,0,0,.78c.3.49,1,.46,1.6.37l.8-.13a.6.6,0,0,0,.39-.16.43.43,0,0,0,.1-.31,1.19,1.19,0,0,0-.56-1,2.05,2.05,0,0,0-1.58-.11" transform="translate(-390.27 -62)"/><path class="cls-5" d="M671,108.1a1.57,1.57,0,0,0-.72.57.73.73,0,0,0,0,.79c.3.49,1,.46,1.59.37l.81-.13a.62.62,0,0,0,.39-.16.55.55,0,0,0,.1-.31,1.19,1.19,0,0,0-.56-1,2.08,2.08,0,0,0-1.59-.11" transform="translate(-390.27 -62)"/><path class="cls-5" d="M633.36,116.7a1.51,1.51,0,0,0-.73.58.71.71,0,0,0,0,.78c.3.49,1,.46,1.59.37l.81-.13a.67.67,0,0,0,.39-.15.5.5,0,0,0,.1-.31,1.2,1.2,0,0,0-.56-1,2.1,2.1,0,0,0-1.58-.11" transform="translate(-390.27 -62)"/><path class="cls-5" d="M665.7,89a1.51,1.51,0,0,0-.73.58.71.71,0,0,0,0,.78c.3.49,1,.46,1.59.37l.81-.13a.67.67,0,0,0,.39-.15.51.51,0,0,0,.1-.32,1.19,1.19,0,0,0-.56-1A2.05,2.05,0,0,0,665.7,89" transform="translate(-390.27 -62)"/><path class="cls-5" d="M762,78.19a1.51,1.51,0,0,0-.73.58.73.73,0,0,0,0,.79c.3.48,1,.45,1.6.36l.8-.12a.65.65,0,0,0,.39-.16.43.43,0,0,0,.1-.31,1.2,1.2,0,0,0-.56-1,2.15,2.15,0,0,0-1.58-.11" transform="translate(-390.27 -62)"/><path class="cls-5" d="M738.93,84.22a1.63,1.63,0,0,0-.73.58.73.73,0,0,0,0,.79c.3.48,1,.45,1.59.36l.81-.12a.62.62,0,0,0,.39-.16.48.48,0,0,0,.1-.31,1.19,1.19,0,0,0-.56-1,2.1,2.1,0,0,0-1.58-.12" transform="translate(-390.27 -62)"/><path class="cls-5" d="M723.86,77.1a1.51,1.51,0,0,0-.73.58.73.73,0,0,0,0,.79c.3.48,1,.45,1.59.36l.81-.12a.76.76,0,0,0,.39-.16.48.48,0,0,0,.1-.31,1.2,1.2,0,0,0-.56-1,2.15,2.15,0,0,0-1.58-.11" transform="translate(-390.27 -62)"/><path class="cls-5" d="M671.84,82.84a1.51,1.51,0,0,0-.73.58.73.73,0,0,0,0,.79c.3.48,1,.45,1.59.36l.81-.12a.68.68,0,0,0,.39-.16A.48.48,0,0,0,674,84a1.2,1.2,0,0,0-.56-1,2.15,2.15,0,0,0-1.58-.11" transform="translate(-390.27 -62)"/><path class="cls-5" d="M721.75,88.44A1.51,1.51,0,0,0,721,89a.71.71,0,0,0,0,.78c.3.49,1,.46,1.6.37l.8-.13a.6.6,0,0,0,.39-.16.43.43,0,0,0,.1-.31,1.19,1.19,0,0,0-.56-1,2.05,2.05,0,0,0-1.58-.11" transform="translate(-390.27 -62)"/><path class="cls-5" d="M701.94,108.93a1.51,1.51,0,0,0-.73.58.71.71,0,0,0,0,.78c.3.49,1,.46,1.6.37l.8-.13a.65.65,0,0,0,.39-.15.45.45,0,0,0,.1-.31,1.2,1.2,0,0,0-.56-1,2.15,2.15,0,0,0-1.58-.11" transform="translate(-390.27 -62)"/><path class="cls-5" d="M714.11,109.75a1.51,1.51,0,0,0-.73.58.71.71,0,0,0,0,.78c.3.49,1,.46,1.59.37l.81-.13a.65.65,0,0,0,.39-.15.53.53,0,0,0,.1-.32,1.19,1.19,0,0,0-.56-1,2.05,2.05,0,0,0-1.58-.11" transform="translate(-390.27 -62)"/><path class="cls-5" d="M738.83,75.25a1.51,1.51,0,0,0-.73.58.71.71,0,0,0,0,.78c.3.49,1,.46,1.6.37l.8-.13a.65.65,0,0,0,.39-.15.45.45,0,0,0,.1-.31,1.2,1.2,0,0,0-.56-1,2.15,2.15,0,0,0-1.58-.11" transform="translate(-390.27 -62)"/><path class="cls-5" d="M616.45,108.57a1.53,1.53,0,0,0-.72.58.71.71,0,0,0,0,.78c.3.49,1,.46,1.59.37l.81-.13a.67.67,0,0,0,.39-.15.58.58,0,0,0,.1-.32,1.19,1.19,0,0,0-.56-1,2.08,2.08,0,0,0-1.59-.11" transform="translate(-390.27 -62)"/><path class="cls-5" d="M652.64,95.66a1.37,1.37,0,0,0-.13.63.64.64,0,0,0,.36.6.62.62,0,0,0,.63-.18,1.12,1.12,0,0,0,.27-.63.8.8,0,0,0-.24-.84.64.64,0,0,0-.89.42" transform="translate(-390.27 -62)"/><path class="cls-5" d="M646,119a1.52,1.52,0,0,0-.12.64.56.56,0,0,0,1,.41,1.2,1.2,0,0,0,.27-.62.8.8,0,0,0-.25-.84.64.64,0,0,0-.89.41" transform="translate(-390.27 -62)"/><path class="cls-5" d="M639.72,94.34a1.39,1.39,0,0,0-.13.64.63.63,0,0,0,.36.59.61.61,0,0,0,.63-.18,1.12,1.12,0,0,0,.27-.63.79.79,0,0,0-.25-.83.63.63,0,0,0-.88.41" transform="translate(-390.27 -62)"/><path class="cls-5" d="M655.2,87.07a1.38,1.38,0,0,0-.12.64.55.55,0,0,0,1,.41,1.2,1.2,0,0,0,.27-.62.82.82,0,0,0-.25-.84.64.64,0,0,0-.89.41" transform="translate(-390.27 -62)"/><path class="cls-5" d="M733,72.53a1.56,1.56,0,0,0-.13.64.65.65,0,0,0,.36.59.62.62,0,0,0,.64-.18,1.2,1.2,0,0,0,.27-.62.82.82,0,0,0-.25-.84.64.64,0,0,0-.89.41" transform="translate(-390.27 -62)"/><path class="cls-5" d="M763.84,84.78a1.52,1.52,0,0,0-.12.64.56.56,0,0,0,1,.41,1.19,1.19,0,0,0,.27-.63.79.79,0,0,0-.25-.83.63.63,0,0,0-.89.41" transform="translate(-390.27 -62)"/><path class="cls-5" d="M641.67,66.9a1.59,1.59,0,0,0-.13.64.65.65,0,0,0,.36.59.62.62,0,0,0,.64-.18,1.2,1.2,0,0,0,.27-.62.82.82,0,0,0-.25-.84.64.64,0,0,0-.89.41" transform="translate(-390.27 -62)"/><path class="cls-5" d="M711.8,82.82a1.39,1.39,0,0,0-.13.64.63.63,0,0,0,.36.59.6.6,0,0,0,.63-.18,1.21,1.21,0,0,0,.28-.62.82.82,0,0,0-.25-.84.64.64,0,0,0-.89.41" transform="translate(-390.27 -62)"/><path class="cls-5" d="M728.86,80.71a1.38,1.38,0,0,0-.12.64.56.56,0,0,0,1,.41,1.2,1.2,0,0,0,.27-.62.8.8,0,0,0-.25-.84.64.64,0,0,0-.89.41" transform="translate(-390.27 -62)"/><path class="cls-5" d="M628.32,78.93a1.44,1.44,0,0,0-.13.64.63.63,0,0,0,.36.59.62.62,0,0,0,.64-.18,1.28,1.28,0,0,0,.27-.62.82.82,0,0,0-.25-.84.64.64,0,0,0-.89.41" transform="translate(-390.27 -62)"/><path class="cls-5" d="M750.83,73.29a1.52,1.52,0,0,0-.12.64.56.56,0,0,0,1,.41,1.2,1.2,0,0,0,.27-.62.8.8,0,0,0-.25-.84.64.64,0,0,0-.89.41" transform="translate(-390.27 -62)"/><path class="cls-5" d="M559.09,97a1.37,1.37,0,0,0-.13.63.61.61,0,0,0,.36.59A.58.58,0,0,0,560,98a1.14,1.14,0,0,0,.28-.62.83.83,0,0,0-.25-.84.64.64,0,0,0-.89.42" transform="translate(-390.27 -62)"/><path class="cls-5" d="M632.74,107.94a1.59,1.59,0,0,0-.13.64.65.65,0,0,0,.36.59.62.62,0,0,0,.64-.18,1.16,1.16,0,0,0,.27-.62.83.83,0,0,0-.25-.84.64.64,0,0,0-.89.41" transform="translate(-390.27 -62)"/><path class="cls-5" d="M702.79,100.19a1.59,1.59,0,0,0-.13.64.64.64,0,0,0,.36.59.62.62,0,0,0,.64-.18,1.13,1.13,0,0,0,.27-.62.83.83,0,0,0-.25-.84.64.64,0,0,0-.89.41" transform="translate(-390.27 -62)"/><path class="cls-5" d="M622.4,80.52a1.43,1.43,0,0,0-.12.64.55.55,0,0,0,1,.41,1.13,1.13,0,0,0,.27-.62.83.83,0,0,0-.25-.84.65.65,0,0,0-.89.41" transform="translate(-390.27 -62)"/><path class="cls-5" d="M593.94,102.91a1.58,1.58,0,0,0-.12.64.56.56,0,0,0,1,.41,1.16,1.16,0,0,0,.27-.62.81.81,0,0,0-.25-.84.64.64,0,0,0-.89.41" transform="translate(-390.27 -62)"/><path class="cls-5" d="M580.29,85.81a1.53,1.53,0,0,0-.13.64.63.63,0,0,0,.36.59.62.62,0,0,0,.64-.18,1.2,1.2,0,0,0,.27-.62.82.82,0,0,0-.25-.84.64.64,0,0,0-.89.41" transform="translate(-390.27 -62)"/><path class="cls-5" d="M596.92,94.27a1.44,1.44,0,0,0-.13.64.63.63,0,0,0,.36.59.62.62,0,0,0,.64-.18,1.21,1.21,0,0,0,.27-.62.83.83,0,0,0-.25-.84.64.64,0,0,0-.89.41" transform="translate(-390.27 -62)"/><path class="cls-5" d="M569.22,91.41a1.59,1.59,0,0,0-.13.64.65.65,0,0,0,.36.59.62.62,0,0,0,.64-.18,1.16,1.16,0,0,0,.27-.62.83.83,0,0,0-.25-.84.64.64,0,0,0-.89.41" transform="translate(-390.27 -62)"/><path class="cls-5" d="M703.81,82.3a2.46,2.46,0,0,0-.43,2.74,3.27,3.27,0,0,0,2,1.29,3.42,3.42,0,0,0,1.22.19,1.35,1.35,0,0,0,1-.57,1,1,0,0,0,0-1,4.27,4.27,0,0,0-.8-.72,1.88,1.88,0,0,1-.44-.64,7.94,7.94,0,0,1-.26-1.07,1.34,1.34,0,0,0-.62-.89,1.07,1.07,0,0,0-1,0,2.2,2.2,0,0,0-.73.66" transform="translate(-390.27 -62)"/><path class="cls-5" d="M640.72,82.11a2.45,2.45,0,0,0-.42,2.74,3.24,3.24,0,0,0,2,1.29,3.39,3.39,0,0,0,1.22.19,1.35,1.35,0,0,0,1-.57,1,1,0,0,0,0-1,4.61,4.61,0,0,0-.8-.72,1.88,1.88,0,0,1-.44-.64,7.94,7.94,0,0,1-.26-1.07,1.34,1.34,0,0,0-.62-.89,1.1,1.1,0,0,0-1,0,2.38,2.38,0,0,0-.74.67" transform="translate(-390.27 -62)"/><path class="cls-5" d="M727.29,97.5a2.45,2.45,0,0,0-.42,2.74,3.22,3.22,0,0,0,2,1.29,3.42,3.42,0,0,0,1.22.19,1.35,1.35,0,0,0,1-.57,1,1,0,0,0,0-1,4.18,4.18,0,0,0-.79-.72,1.91,1.91,0,0,1-.45-.64c-.13-.34-.16-.72-.26-1.07a1.33,1.33,0,0,0-.61-.89,1.13,1.13,0,0,0-1,0,2.13,2.13,0,0,0-.73.67" transform="translate(-390.27 -62)"/><path class="cls-5" d="M658.26,117.5a2.45,2.45,0,0,0-.42,2.74,3.22,3.22,0,0,0,2,1.29,3.42,3.42,0,0,0,1.22.19,1.32,1.32,0,0,0,1.05-.57,1,1,0,0,0,0-1,4.54,4.54,0,0,0-.79-.72,1.75,1.75,0,0,1-.44-.64,9.85,9.85,0,0,1-.27-1.07,1.33,1.33,0,0,0-.61-.89,1.09,1.09,0,0,0-1,0,2.2,2.2,0,0,0-.73.66" transform="translate(-390.27 -62)"/><path class="cls-5" d="M568.84,99.14a2.46,2.46,0,0,0-.43,2.74,3.27,3.27,0,0,0,2,1.29,3.42,3.42,0,0,0,1.22.19,1.35,1.35,0,0,0,1-.57,1,1,0,0,0,0-1,4.54,4.54,0,0,0-.79-.72,1.78,1.78,0,0,1-.45-.64,7.94,7.94,0,0,1-.26-1.07,1.34,1.34,0,0,0-.62-.89,1.07,1.07,0,0,0-1,0,2.2,2.2,0,0,0-.73.66" transform="translate(-390.27 -62)"/><path class="cls-5" d="M622.93,91.3A2.44,2.44,0,0,0,622.5,94a4.33,4.33,0,0,0,3.21,1.48,1.34,1.34,0,0,0,1-.56,1,1,0,0,0,0-1,4.18,4.18,0,0,0-.79-.72,1.73,1.73,0,0,1-.45-.65,7.59,7.59,0,0,1-.26-1.07,1.34,1.34,0,0,0-.62-.88,1.1,1.1,0,0,0-1,0,2.13,2.13,0,0,0-.73.67" transform="translate(-390.27 -62)"/><path class="cls-5" d="M596.61,78.74c-.34-.7-.83-1.06-1.31-.73a3.05,3.05,0,0,0-.82,1.6,5.2,5.2,0,0,0-.2,1.07,1.78,1.78,0,0,0,.18,1,.32.32,0,0,0,.51.13,2.71,2.71,0,0,0,.43-.62,1,1,0,0,1,.36-.31,2.63,2.63,0,0,1,.55-.09.66.66,0,0,0,.49-.43,1.63,1.63,0,0,0,.07-.88,2.15,2.15,0,0,0-.26-.75" transform="translate(-390.27 -62)"/><path class="cls-5" d="M539.61,105.4c-.35-.7-.84-1.06-1.31-.74a3,3,0,0,0-.82,1.61,4.61,4.61,0,0,0-.21,1.07,1.87,1.87,0,0,0,.18,1c.14.21.35.27.52.13a3.73,3.73,0,0,0,.42-.62.94.94,0,0,1,.36-.31,2.11,2.11,0,0,1,.56-.09.68.68,0,0,0,.49-.44,1.8,1.8,0,0,0,.07-.87,2.65,2.65,0,0,0-.26-.75" transform="translate(-390.27 -62)"/><path class="cls-5" d="M751.21,86.2c-.35-.7-.84-1.06-1.31-.74a3.13,3.13,0,0,0-.82,1.61,4.61,4.61,0,0,0-.21,1.07,1.87,1.87,0,0,0,.18,1c.14.21.35.27.52.13a4.47,4.47,0,0,0,.43-.62.87.87,0,0,1,.36-.31,2,2,0,0,1,.55-.09.68.68,0,0,0,.49-.44,1.68,1.68,0,0,0,.07-.87,2.65,2.65,0,0,0-.26-.75" transform="translate(-390.27 -62)"/><path class="cls-5" d="M686.63,101.62c-.35-.7-.84-1.06-1.31-.74a3,3,0,0,0-.82,1.61,4.63,4.63,0,0,0-.21,1.06,1.89,1.89,0,0,0,.18,1,.35.35,0,0,0,.52.13,3.73,3.73,0,0,0,.42-.62.86.86,0,0,1,.36-.31,2.65,2.65,0,0,1,.55-.1.64.64,0,0,0,.5-.43,1.81,1.81,0,0,0,.07-.87,2.54,2.54,0,0,0-.26-.75" transform="translate(-390.27 -62)"/><path class="cls-5" d="M660.91,102.05c-.35-.7-.84-1.06-1.31-.74a3.09,3.09,0,0,0-.82,1.61,6,6,0,0,0-.21,1.06,1.89,1.89,0,0,0,.19,1,.34.34,0,0,0,.51.13,3.75,3.75,0,0,0,.43-.62.86.86,0,0,1,.36-.31,2.65,2.65,0,0,1,.55-.1.64.64,0,0,0,.49-.43,1.6,1.6,0,0,0,.07-.87,2.29,2.29,0,0,0-.26-.75" transform="translate(-390.27 -62)"/><path class="cls-5" d="M677.8,67.79c-.35-.71-.84-1.06-1.31-.74a3.05,3.05,0,0,0-.82,1.6,5.34,5.34,0,0,0-.21,1.07,1.78,1.78,0,0,0,.19,1,.32.32,0,0,0,.51.13,3.06,3.06,0,0,0,.43-.62,1,1,0,0,1,.36-.31,2.63,2.63,0,0,1,.55-.09.68.68,0,0,0,.49-.43,1.73,1.73,0,0,0,.07-.88,2.23,2.23,0,0,0-.26-.74" transform="translate(-390.27 -62)"/><path class="cls-5" d="M612.89,97.67c-.35-.71-.84-1.06-1.31-.74a3.09,3.09,0,0,0-.82,1.6,6.14,6.14,0,0,0-.21,1.07,1.78,1.78,0,0,0,.19,1,.32.32,0,0,0,.51.13,3.28,3.28,0,0,0,.43-.61,1,1,0,0,1,.36-.32,2.63,2.63,0,0,1,.55-.09.68.68,0,0,0,.49-.43,1.73,1.73,0,0,0,.07-.88,2.23,2.23,0,0,0-.26-.74" transform="translate(-390.27 -62)"/><path class="cls-5" d="M680.67,89.29c-.34-.71-.83-1.06-1.31-.74a3.09,3.09,0,0,0-.82,1.6,5.33,5.33,0,0,0-.2,1.07,1.78,1.78,0,0,0,.18,1c.14.22.34.27.51.13a2.87,2.87,0,0,0,.43-.61,1,1,0,0,1,.36-.32,2.63,2.63,0,0,1,.55-.09.69.69,0,0,0,.5-.43,1.85,1.85,0,0,0,.07-.88,2.23,2.23,0,0,0-.27-.74" transform="translate(-390.27 -62)"/><path class="cls-5" d="M609.67,88.91a1.28,1.28,0,0,0,.09,1.27,1,1,0,0,0,1.68.09,1.66,1.66,0,0,0,.18-1,1.32,1.32,0,0,0-.12-.65.92.92,0,0,0-1-.43,1.26,1.26,0,0,0-.86.68" transform="translate(-390.27 -62)"/><path class="cls-5" d="M583.88,100.15a1.26,1.26,0,0,0,.08,1.26,1,1,0,0,0,1.69.1,1.84,1.84,0,0,0,.18-1,1.6,1.6,0,0,0-.12-.65.93.93,0,0,0-1-.43,1.24,1.24,0,0,0-.86.68" transform="translate(-390.27 -62)"/><path class="cls-5" d="M555.33,105.38a1.19,1.19,0,0,0-.62,1.07,3.51,3.51,0,0,0,.77,2.8,3.26,3.26,0,0,0,1.91.65,11.75,11.75,0,0,0,1.57,0,2.55,2.55,0,0,0,1.93-.75,1.89,1.89,0,0,0,.35-.94,3.35,3.35,0,0,0-2-3.33,4,4,0,0,0-4,.48" transform="translate(-390.27 -62)"/><path class="cls-5" d="M687.13,80.75a4,4,0,0,0-1.17,2,2.51,2.51,0,0,0,.91,2.35,2.2,2.2,0,0,0,2.51.1,3.65,3.65,0,0,0,.68-.68,6.16,6.16,0,0,0,1.29-2.45,3.06,3.06,0,0,0-.53-2.64A1.24,1.24,0,0,0,690,79a1.52,1.52,0,0,0-.59.12,5.26,5.26,0,0,0-2.27,1.64" transform="translate(-390.27 -62)"/><path class="cls-5" d="M621,117.06a4,4,0,0,0-1.16,2,2.49,2.49,0,0,0,.91,2.35,2.2,2.2,0,0,0,2.51.1,3.65,3.65,0,0,0,.68-.68,6.16,6.16,0,0,0,1.29-2.45,3.11,3.11,0,0,0-.53-2.63,1.3,1.3,0,0,0-.83-.5,1.52,1.52,0,0,0-.59.12,5.38,5.38,0,0,0-2.28,1.65" transform="translate(-390.27 -62)"/><path class="cls-5" d="M696.33,68.45a4,4,0,0,0-1.17,2,2.51,2.51,0,0,0,.91,2.35,2.24,2.24,0,0,0,2.51.1,3.37,3.37,0,0,0,.68-.68,6.25,6.25,0,0,0,1.3-2.45,3.1,3.1,0,0,0-.54-2.64,1.22,1.22,0,0,0-.82-.49,1.37,1.37,0,0,0-.6.12,5.32,5.32,0,0,0-2.27,1.64" transform="translate(-390.27 -62)"/><path class="cls-5" d="M717.77,80.73a3.45,3.45,0,0,0-.54,2.07.84.84,0,0,0,.11.41,1,1,0,0,0,.8.28,3.12,3.12,0,0,0,1.36-.17,1.7,1.7,0,0,0,.9-1.53,2.66,2.66,0,0,0-.7-1.69c-.29-.34-.78-.66-1.17-.42s-.48.63-.76,1" transform="translate(-390.27 -62)"/><path class="cls-5" d="M641.61,102.7a3.54,3.54,0,0,0-.54,2.07.84.84,0,0,0,.11.41,1,1,0,0,0,.8.28,2.85,2.85,0,0,0,1.36-.17,1.7,1.7,0,0,0,.9-1.53,2.7,2.7,0,0,0-.69-1.69c-.29-.34-.79-.65-1.17-.42s-.49.63-.77,1" transform="translate(-390.27 -62)"/><path class="cls-5" d="M686.92,114.21a3.54,3.54,0,0,0-.54,2.07.84.84,0,0,0,.11.41,1,1,0,0,0,.8.28,2.85,2.85,0,0,0,1.36-.17,1.7,1.7,0,0,0,.9-1.53,2.7,2.7,0,0,0-.69-1.69c-.29-.34-.79-.65-1.17-.42s-.48.63-.77,1" transform="translate(-390.27 -62)"/><path class="cls-5" d="M606.28,117a3.42,3.42,0,0,0-.53,2.07.62.62,0,0,0,.11.4,1,1,0,0,0,.8.29,2.92,2.92,0,0,0,1.35-.18,1.68,1.68,0,0,0,.9-1.52,2.7,2.7,0,0,0-.69-1.69c-.29-.35-.78-.66-1.17-.43s-.48.64-.77,1.06" transform="translate(-390.27 -62)"/><path class="cls-5" d="M685.1,93.1a3.52,3.52,0,0,0-.54,2.07.84.84,0,0,0,.11.41,1,1,0,0,0,.8.28,3,3,0,0,0,1.36-.17,1.7,1.7,0,0,0,.9-1.53,2.7,2.7,0,0,0-.69-1.69c-.29-.34-.78-.65-1.17-.42s-.48.63-.77,1" transform="translate(-390.27 -62)"/><path class="cls-5" d="M579.54,110.68a3,3,0,0,0-.7,3,.5.5,0,0,0,.12.31.6.6,0,0,0,.36.09,3.26,3.26,0,0,0,2.09-.52,2.76,2.76,0,0,0,.73-2.49,1.65,1.65,0,0,0-.23-.76,1.19,1.19,0,0,0-1.25-.41,2.08,2.08,0,0,0-1.12.77" transform="translate(-390.27 -62)"/><path class="cls-5" d="M742,93a3,3,0,0,0-.7,3,.45.45,0,0,0,.12.3.54.54,0,0,0,.36.09,3.26,3.26,0,0,0,2.09-.51,2.77,2.77,0,0,0,.73-2.5,1.65,1.65,0,0,0-.23-.75,1.18,1.18,0,0,0-1.25-.42A2.15,2.15,0,0,0,742,93" transform="translate(-390.27 -62)"/><path class="cls-5" d="M693.57,93.7c0,.16-.07.32-.1.49a.9.9,0,0,0,.11.83,1,1,0,0,0,.69.19,3,3,0,0,0,1-.12,1.25,1.25,0,0,0,.73-.6,1.29,1.29,0,0,0,.1-.44,1.48,1.48,0,0,0-.24-.94,1.08,1.08,0,0,0-.85-.47,1.62,1.62,0,0,0-.7.18,1,1,0,0,0-.44.32,2.81,2.81,0,0,0-.25.56" transform="translate(-390.27 -62)"/><path class="cls-5" d="M714.75,96.61l-.09.48a.94.94,0,0,0,.1.84,1,1,0,0,0,.69.19,3.09,3.09,0,0,0,1-.13,1.18,1.18,0,0,0,.72-.59,1.13,1.13,0,0,0,.1-.44A1.48,1.48,0,0,0,717,96a1.07,1.07,0,0,0-.84-.48,1.74,1.74,0,0,0-.7.19A.93.93,0,0,0,715,96a3.68,3.68,0,0,0-.26.57" transform="translate(-390.27 -62)"/><path class="cls-5" d="M713.14,69.6l-.09.49a.92.92,0,0,0,.1.83,1,1,0,0,0,.69.19,3.09,3.09,0,0,0,1-.12,1.23,1.23,0,0,0,.72-.6,1.09,1.09,0,0,0,.1-.44,1.48,1.48,0,0,0-.24-.94,1.06,1.06,0,0,0-.84-.47,1.58,1.58,0,0,0-.7.18,1,1,0,0,0-.44.32,3.57,3.57,0,0,0-.26.56" transform="translate(-390.27 -62)"/><path class="cls-5" d="M706.41,78.52l-.1.49a.92.92,0,0,0,.11.83,1,1,0,0,0,.69.19,3.12,3.12,0,0,0,1-.12,1.25,1.25,0,0,0,.72-.59,1.4,1.4,0,0,0,.1-.45,1.48,1.48,0,0,0-.24-.94,1.07,1.07,0,0,0-.84-.47,1.55,1.55,0,0,0-.7.18,1,1,0,0,0-.44.32,3.57,3.57,0,0,0-.26.56" transform="translate(-390.27 -62)"/><path class="cls-5" d="M726.44,69.46l-.1.49a.7.7,0,0,0,.8,1,3.09,3.09,0,0,0,1-.12,1.22,1.22,0,0,0,.72-.59,1.14,1.14,0,0,0,.1-.45,1.49,1.49,0,0,0-.24-.94,1.1,1.1,0,0,0-.84-.47,1.7,1.7,0,0,0-.7.19.93.93,0,0,0-.44.31,3.57,3.57,0,0,0-.26.56" transform="translate(-390.27 -62)"/><path class="cls-5" d="M604.85,107.82c0,.16-.07.32-.1.49a.9.9,0,0,0,.11.83.91.91,0,0,0,.69.19,3,3,0,0,0,1-.12,1.27,1.27,0,0,0,.73-.59,1.34,1.34,0,0,0,.1-.45,1.48,1.48,0,0,0-.24-.94,1.08,1.08,0,0,0-.85-.47,1.62,1.62,0,0,0-.7.18,1.09,1.09,0,0,0-.44.32,2.81,2.81,0,0,0-.25.56" transform="translate(-390.27 -62)"/><path class="cls-5" d="M567.15,115.26l-.1.49a.9.9,0,0,0,.11.83.91.91,0,0,0,.69.19,3.12,3.12,0,0,0,1-.12,1.28,1.28,0,0,0,.72-.59,1.34,1.34,0,0,0,.1-.45,1.48,1.48,0,0,0-.24-.94,1.07,1.07,0,0,0-.84-.47,1.69,1.69,0,0,0-.7.18,1.06,1.06,0,0,0-.45.32,2.81,2.81,0,0,0-.25.56" transform="translate(-390.27 -62)"/><path class="cls-5" d="M602.46,78.73c0,.16-.07.32-.1.49a.92.92,0,0,0,.11.83,1,1,0,0,0,.69.19,3.12,3.12,0,0,0,1-.12,1.26,1.26,0,0,0,.72-.6,1.29,1.29,0,0,0,.1-.44,1.48,1.48,0,0,0-.24-.94,1.07,1.07,0,0,0-.84-.47,1.55,1.55,0,0,0-.7.18,1,1,0,0,0-.44.32,2.85,2.85,0,0,0-.26.56" transform="translate(-390.27 -62)"/><path class="cls-5" d="M657,70.18l-.1.49a.9.9,0,0,0,.11.83.91.91,0,0,0,.69.19,3,3,0,0,0,1-.12,1.27,1.27,0,0,0,.73-.59,1.34,1.34,0,0,0,.1-.45,1.49,1.49,0,0,0-.24-.94,1.08,1.08,0,0,0-.85-.47,2,2,0,0,0-.7.18,1.09,1.09,0,0,0-.44.32,2.81,2.81,0,0,0-.25.56" transform="translate(-390.27 -62)"/><path class="cls-5" d="M669,96.74c0,.16-.07.32-.1.49a.9.9,0,0,0,.11.83.91.91,0,0,0,.69.19,3.12,3.12,0,0,0,1-.12,1.28,1.28,0,0,0,.72-.59,1.34,1.34,0,0,0,.1-.45,1.48,1.48,0,0,0-.24-.94,1.07,1.07,0,0,0-.84-.47,1.55,1.55,0,0,0-.7.18,1.06,1.06,0,0,0-.45.32,2.81,2.81,0,0,0-.25.56" transform="translate(-390.27 -62)"/><path class="cls-5" d="M659.64,81.36l-.09.49a.92.92,0,0,0,.1.83.94.94,0,0,0,.7.19,3,3,0,0,0,.95-.12,1.22,1.22,0,0,0,.72-.59,1.15,1.15,0,0,0,.11-.45,1.48,1.48,0,0,0-.24-.94,1.08,1.08,0,0,0-.85-.47,1.58,1.58,0,0,0-.7.18,1,1,0,0,0-.44.32,3.57,3.57,0,0,0-.26.56" transform="translate(-390.27 -62)"/><path class="cls-4" d="M926.36,310.48a3.58,3.58,0,0,0-1.8-1.18,1.76,1.76,0,0,0-1.78.48c-.9,1-.35,2.52.24,3.7.28.55.56,1.1.83,1.65a1.43,1.43,0,0,0,.62.74,1.13,1.13,0,0,0,.77,0,2.77,2.77,0,0,0,1.93-1.91,4.57,4.57,0,0,0-.81-3.49" transform="translate(-390.27 -62)"/><path class="cls-4" d="M824.28,287.09a3.54,3.54,0,0,0-1.82,1.14,1.68,1.68,0,0,0-.27,1.79c.56,1.2,2.22,1.32,3.56,1.26l1.88-.08a1.48,1.48,0,0,0,.94-.26,1.09,1.09,0,0,0,.32-.69,2.75,2.75,0,0,0-1-2.5,4.87,4.87,0,0,0-3.6-.66" transform="translate(-390.27 -62)"/><path class="cls-4" d="M864.25,287.69a3.44,3.44,0,0,0-.46,1.43,1.45,1.45,0,0,0,.66,1.45,1.41,1.41,0,0,0,1.51-.25,2.69,2.69,0,0,0,.79-1.35,1.89,1.89,0,0,0-.34-2,1.48,1.48,0,0,0-2.16.71" transform="translate(-390.27 -62)"/><path class="cls-4" d="M704,261.71c.57-1.71.34-3.08-1-3.28-1.06-.17-2.59.58-4,1.39a12.5,12.5,0,0,0-2.09,1.46,4.32,4.32,0,0,0-1.35,2c-.12.57.14,1,.65,1a7.9,7.9,0,0,0,1.72-.36,2.26,2.26,0,0,1,1.11,0,6.62,6.62,0,0,1,1.07.71,1.56,1.56,0,0,0,1.53,0,4.06,4.06,0,0,0,1.55-1.35,5.59,5.59,0,0,0,.78-1.65" transform="translate(-390.27 -62)"/><path class="cls-4" d="M778.81,279.41c.19,2.42,1.42,4.57,3.63,5.31,1.78.6,3.74,0,5.45-.83a7.71,7.71,0,0,0,2.38-1.53,2.94,2.94,0,0,0,.89-2.56,2.36,2.36,0,0,0-1.67-1.77,11,11,0,0,0-2.5,0,4.51,4.51,0,0,1-1.78-.42,23.74,23.74,0,0,1-2.16-1.43,3.19,3.19,0,0,0-2.45-.58,2.49,2.49,0,0,0-1.59,1.56,4.93,4.93,0,0,0-.2,2.26" transform="translate(-390.27 -62)"/><path class="cls-4" d="M896.45,275c-1.56,1.48-2.68,2.44-3.23,4.39a5.78,5.78,0,0,0,1.45,5.63,5.09,5.09,0,0,0,5.73.88,7.51,7.51,0,0,0,1.74-1.38,14.39,14.39,0,0,0,3.64-5.29,7.09,7.09,0,0,0-.52-6.19,2.83,2.83,0,0,0-1.75-1.34,3.18,3.18,0,0,0-1.4.12,12.46,12.46,0,0,0-5.66,3.18" transform="translate(-390.27 -62)"/><path class="cls-4" d="M830.59,273.16a8,8,0,0,0-1.8,4.61,1.84,1.84,0,0,0,.14,1,2.26,2.26,0,0,0,1.76.86,6.74,6.74,0,0,0,3.16,0,3.93,3.93,0,0,0,2.48-3.27,6.12,6.12,0,0,0-1.13-4c-.57-.87-1.62-1.71-2.57-1.28s-1.28,1.33-2,2.22" transform="translate(-390.27 -62)"/><path class="cls-4" d="M792.82,253.6a3.51,3.51,0,0,1,1.61,1.4,1.69,1.69,0,0,1,0,1.82c-.75,1.09-2.4.95-3.72.69l-1.84-.37a1.41,1.41,0,0,1-.89-.4,1.14,1.14,0,0,1-.2-.72,2.75,2.75,0,0,1,1.4-2.32,4.87,4.87,0,0,1,3.66-.1" transform="translate(-390.27 -62)"/><path class="cls-4" d="M562.43,303.68a3.53,3.53,0,0,1,1.62,1.4,1.69,1.69,0,0,1,0,1.82c-.74,1.09-2.4,1-3.72.69l-1.84-.37a1.41,1.41,0,0,1-.89-.4,1.15,1.15,0,0,1-.2-.73,2.79,2.79,0,0,1,1.4-2.31,4.87,4.87,0,0,1,3.66-.1" transform="translate(-390.27 -62)"/><path class="cls-4" d="M761.76,274.72a3.58,3.58,0,0,1,1.61,1.41,1.67,1.67,0,0,1,0,1.81c-.75,1.09-2.41,1-3.72.7l-1.85-.37a1.53,1.53,0,0,1-.88-.4,1,1,0,0,1-.2-.73,2.73,2.73,0,0,1,1.39-2.31,4.85,4.85,0,0,1,3.67-.11" transform="translate(-390.27 -62)"/><path class="cls-4" d="M628.72,241.66a3.58,3.58,0,0,1,1.61,1.41,1.67,1.67,0,0,1,0,1.81c-.75,1.09-2.41,1-3.72.7l-1.85-.37a1.5,1.5,0,0,1-.88-.4,1,1,0,0,1-.2-.73,2.73,2.73,0,0,1,1.39-2.31,4.84,4.84,0,0,1,3.67-.11" transform="translate(-390.27 -62)"/><path class="cls-4" d="M748.2,259.88a3.55,3.55,0,0,1,1.62,1.41,1.65,1.65,0,0,1,0,1.81c-.74,1.1-2.4,1-3.72.7l-1.84-.37a1.53,1.53,0,0,1-.89-.4,1.15,1.15,0,0,1-.2-.73,2.76,2.76,0,0,1,1.4-2.31,4.82,4.82,0,0,1,3.66-.11" transform="translate(-390.27 -62)"/><path class="cls-4" d="M594.34,236a3.5,3.5,0,0,1,1.62,1.41,1.65,1.65,0,0,1,0,1.81c-.74,1.09-2.4,1-3.71.69l-1.85-.37a1.43,1.43,0,0,1-.88-.39,1.12,1.12,0,0,1-.21-.73,2.79,2.79,0,0,1,1.4-2.32,4.87,4.87,0,0,1,3.66-.1" transform="translate(-390.27 -62)"/><path class="cls-4" d="M840.59,300.79a3.55,3.55,0,0,1,1.62,1.41,1.65,1.65,0,0,1,0,1.81c-.74,1.09-2.4,1-3.72.7l-1.84-.37a1.53,1.53,0,0,1-.89-.4,1.15,1.15,0,0,1-.2-.73,2.76,2.76,0,0,1,1.4-2.31,4.82,4.82,0,0,1,3.66-.11" transform="translate(-390.27 -62)"/><path class="cls-4" d="M791.23,291.29a3.31,3.31,0,0,1,.23,1.49,1.29,1.29,0,0,1-2.33.85,2.66,2.66,0,0,1-.56-1.46,1.87,1.87,0,0,1,.65-1.91,1.47,1.47,0,0,1,2,1" transform="translate(-390.27 -62)"/><path class="cls-4" d="M807.38,281a3.31,3.31,0,0,1,.23,1.49,1.44,1.44,0,0,1-.88,1.33,1.4,1.4,0,0,1-1.45-.48,2.63,2.63,0,0,1-.56-1.46,1.87,1.87,0,0,1,.65-1.91,1.47,1.47,0,0,1,2,1" transform="translate(-390.27 -62)"/><path class="cls-4" d="M786.17,271.23a3.25,3.25,0,0,1,.23,1.48,1.45,1.45,0,0,1-.89,1.33,1.39,1.39,0,0,1-1.44-.48,2.72,2.72,0,0,1-.57-1.46,1.9,1.9,0,0,1,.66-1.91,1.47,1.47,0,0,1,2,1" transform="translate(-390.27 -62)"/><path class="cls-4" d="M656,256a3.31,3.31,0,0,1,.23,1.49,1.44,1.44,0,0,1-.88,1.32,1.41,1.41,0,0,1-1.45-.47,2.66,2.66,0,0,1-.56-1.46A1.9,1.9,0,0,1,654,255a1.48,1.48,0,0,1,2,1" transform="translate(-390.27 -62)"/><path class="cls-4" d="M612.3,239a3.27,3.27,0,0,1,.23,1.48,1.44,1.44,0,0,1-.88,1.33,1.42,1.42,0,0,1-1.45-.47,2.69,2.69,0,0,1-.56-1.47,1.89,1.89,0,0,1,.65-1.91,1.47,1.47,0,0,1,2,1" transform="translate(-390.27 -62)"/><path class="cls-4" d="M843.22,263.81a3.57,3.57,0,0,1,.23,1.48,1.45,1.45,0,0,1-.89,1.33,1.42,1.42,0,0,1-1.45-.47,2.66,2.66,0,0,1-.56-1.46,1.88,1.88,0,0,1,.66-1.92,1.48,1.48,0,0,1,2,1" transform="translate(-390.27 -62)"/><path class="cls-4" d="M809,298.11a3.27,3.27,0,0,1,.23,1.48,1.44,1.44,0,0,1-.89,1.33,1.42,1.42,0,0,1-1.45-.47,2.82,2.82,0,0,1-.56-1.46,1.92,1.92,0,0,1,.66-1.92,1.48,1.48,0,0,1,2,1" transform="translate(-390.27 -62)"/><path class="cls-4" d="M862.53,259.26a3.54,3.54,0,0,1,.23,1.48,1.46,1.46,0,0,1-.89,1.33,1.42,1.42,0,0,1-1.45-.47,2.69,2.69,0,0,1-.56-1.47,1.87,1.87,0,0,1,.66-1.91,1.47,1.47,0,0,1,2,1" transform="translate(-390.27 -62)"/><path class="cls-4" d="M926,313.65a3.27,3.27,0,0,1,.23,1.48,1.44,1.44,0,0,1-.88,1.33,1.42,1.42,0,0,1-1.45-.47,2.69,2.69,0,0,1-.56-1.47,1.89,1.89,0,0,1,.65-1.91,1.47,1.47,0,0,1,2,1" transform="translate(-390.27 -62)"/><path class="cls-4" d="M959.19,275.48a3.27,3.27,0,0,1,.23,1.48,1.45,1.45,0,0,1-.88,1.33,1.41,1.41,0,0,1-1.45-.47,2.69,2.69,0,0,1-.56-1.47,1.89,1.89,0,0,1,.65-1.91,1.47,1.47,0,0,1,2,1" transform="translate(-390.27 -62)"/><path class="cls-4" d="M920,293.42a3.45,3.45,0,0,1,.23,1.49,1.46,1.46,0,0,1-.89,1.33,1.43,1.43,0,0,1-1.45-.48,2.73,2.73,0,0,1-.56-1.46,1.88,1.88,0,0,1,.66-1.91,1.47,1.47,0,0,1,2,1" transform="translate(-390.27 -62)"/><path class="cls-4" d="M674.47,255.58c1.45,2,1.92,4.4.71,6.36-1,1.57-2.9,2.32-4.72,2.78a7.85,7.85,0,0,1-2.84.33,3.12,3.12,0,0,1-2.36-1.41,2.28,2.28,0,0,1,.12-2.4,10.15,10.15,0,0,1,1.91-1.59,4.17,4.17,0,0,0,1.09-1.44,22.11,22.11,0,0,0,.72-2.44,3.08,3.08,0,0,1,1.5-2,2.6,2.6,0,0,1,2.24.19,5,5,0,0,1,1.63,1.61" transform="translate(-390.27 -62)"/><path class="cls-4" d="M820.08,261.17c1.45,2,1.92,4.4.71,6.35-1,1.58-2.9,2.32-4.72,2.79a7.84,7.84,0,0,1-2.84.32,3.08,3.08,0,0,1-2.36-1.4,2.3,2.3,0,0,1,.12-2.41,10.5,10.5,0,0,1,1.91-1.58A4.26,4.26,0,0,0,814,263.8a22.94,22.94,0,0,0,.72-2.45,3,3,0,0,1,1.5-2,2.53,2.53,0,0,1,2.24.19,5,5,0,0,1,1.63,1.61" transform="translate(-390.27 -62)"/><path class="cls-4" d="M694.42,296.1c1.45,2,1.92,4.4.71,6.36-1,1.57-2.9,2.32-4.72,2.78a7.85,7.85,0,0,1-2.84.33,3.12,3.12,0,0,1-2.36-1.41,2.26,2.26,0,0,1,.13-2.4,9.78,9.78,0,0,1,1.9-1.59,4,4,0,0,0,1.09-1.44,20.14,20.14,0,0,0,.72-2.44,3.06,3.06,0,0,1,1.5-2,2.6,2.6,0,0,1,2.24.19,5,5,0,0,1,1.63,1.61" transform="translate(-390.27 -62)"/><path class="cls-4" d="M860.24,284.07c1.45,2,1.91,4.4.7,6.36-1,1.57-2.89,2.31-4.71,2.78a7.85,7.85,0,0,1-2.84.33,3.12,3.12,0,0,1-2.36-1.41,2.28,2.28,0,0,1,.12-2.4,10.15,10.15,0,0,1,1.91-1.59,4.17,4.17,0,0,0,1.09-1.44,22.11,22.11,0,0,0,.72-2.44,3,3,0,0,1,1.5-2,2.53,2.53,0,0,1,2.24.19,5,5,0,0,1,1.63,1.61" transform="translate(-390.27 -62)"/><path class="cls-4" d="M922.23,257.61c.87-1.59,2-2.36,3.09-1.58.86.63,1.37,2.23,1.74,3.79a12.35,12.35,0,0,1,.37,2.48,4.34,4.34,0,0,1-.52,2.32.77.77,0,0,1-1.2.25,7.72,7.72,0,0,1-.93-1.47,2.09,2.09,0,0,0-.8-.75,5.56,5.56,0,0,0-1.26-.27,1.52,1.52,0,0,1-1.1-1.05,3.93,3.93,0,0,1-.07-2,5.45,5.45,0,0,1,.68-1.7" transform="translate(-390.27 -62)"/><path class="cls-4" d="M549,202.76c.87-1.59,2-2.37,3.1-1.58.86.63,1.37,2.23,1.73,3.79a11.07,11.07,0,0,1,.37,2.48,4.1,4.1,0,0,1-.52,2.31.76.76,0,0,1-1.2.25,7.8,7.8,0,0,1-.93-1.46,2.07,2.07,0,0,0-.79-.75,5.64,5.64,0,0,0-1.27-.27,1.55,1.55,0,0,1-1.09-1.05,3.93,3.93,0,0,1-.07-2,5.44,5.44,0,0,1,.67-1.7" transform="translate(-390.27 -62)"/><path class="cls-4" d="M712.2,301.81c.87-1.59,2-2.37,3.09-1.58.86.63,1.37,2.23,1.74,3.79a12.35,12.35,0,0,1,.37,2.48,4.28,4.28,0,0,1-.52,2.31.77.77,0,0,1-1.21.25,7.31,7.31,0,0,1-.92-1.46,2.09,2.09,0,0,0-.8-.75,5.56,5.56,0,0,0-1.26-.27,1.54,1.54,0,0,1-1.1-1.05,3.93,3.93,0,0,1-.07-2,5.45,5.45,0,0,1,.68-1.7" transform="translate(-390.27 -62)"/><path class="cls-4" d="M756.29,249.91c.88-1.59,2-2.36,3.1-1.58.86.63,1.37,2.23,1.74,3.79a12.35,12.35,0,0,1,.37,2.48,4.34,4.34,0,0,1-.52,2.32.78.78,0,0,1-1.21.25,7.7,7.7,0,0,1-.92-1.47,2.09,2.09,0,0,0-.8-.75,5.56,5.56,0,0,0-1.26-.27,1.53,1.53,0,0,1-1.1-1,4,4,0,0,1-.07-2,5.8,5.8,0,0,1,.67-1.7" transform="translate(-390.27 -62)"/><path class="cls-4" d="M882.77,299.73c.87-1.59,2-2.37,3.1-1.58.85.63,1.36,2.23,1.73,3.78a11.77,11.77,0,0,1,.37,2.48,4.29,4.29,0,0,1-.52,2.32c-.34.49-.82.59-1.2.25a7.33,7.33,0,0,1-.93-1.46,2,2,0,0,0-.8-.75,6.19,6.19,0,0,0-1.26-.28,1.54,1.54,0,0,1-1.1-1,4,4,0,0,1-.07-2,5.64,5.64,0,0,1,.68-1.69" transform="translate(-390.27 -62)"/><path class="cls-4" d="M727.16,273.91c.87-1.59,2-2.36,3.1-1.58.86.63,1.36,2.23,1.73,3.79a11.07,11.07,0,0,1,.37,2.48,4.16,4.16,0,0,1-.52,2.32.77.77,0,0,1-1.2.25,8.24,8.24,0,0,1-.93-1.47,2.07,2.07,0,0,0-.79-.75,5.64,5.64,0,0,0-1.27-.27,1.55,1.55,0,0,1-1.09-1.05,3.93,3.93,0,0,1-.07-2,5.44,5.44,0,0,1,.67-1.7" transform="translate(-390.27 -62)"/><path class="cls-4" d="M891.07,279.83a2.94,2.94,0,0,1-.32,2.91,2.23,2.23,0,0,1-3.9.07,4,4,0,0,1-.32-2.25,3.25,3.25,0,0,1,.34-1.48,2.13,2.13,0,0,1,2.29-.9,2.89,2.89,0,0,1,1.91,1.65" transform="translate(-390.27 -62)"/><path class="cls-4" d="M949.48,308.23a2.94,2.94,0,0,1-.32,2.91,2.22,2.22,0,0,1-3.89.07,4.09,4.09,0,0,1-.33-2.25,3.53,3.53,0,0,1,.34-1.48,2.14,2.14,0,0,1,2.29-.9,2.84,2.84,0,0,1,1.91,1.65" transform="translate(-390.27 -62)"/><path class="cls-4" d="M943.48,281.91a2.74,2.74,0,0,1,1.32,2.53c0,2.31-.25,4.9-2,6.39a7.42,7.42,0,0,1-4.46,1.32,24.43,24.43,0,0,1-3.63-.1c-1.65-.16-3.45-.58-4.39-1.92a4.19,4.19,0,0,1-.71-2.2,7.77,7.77,0,0,1,4.84-7.5,9.19,9.19,0,0,1,9.08,1.48" transform="translate(-390.27 -62)"/><path class="cls-4" d="M450.37,270.2c1.3,1.69,2.26,2.81,2.48,4.83a5.8,5.8,0,0,1-2.33,5.33,5.09,5.09,0,0,1-5.8,0,7.76,7.76,0,0,1-1.5-1.63,14.24,14.24,0,0,1-2.75-5.78,7.13,7.13,0,0,1,1.5-6,2.88,2.88,0,0,1,1.95-1.06,3.4,3.4,0,0,1,1.36.33,12.32,12.32,0,0,1,5.09,4" transform="translate(-390.27 -62)"/><path class="cls-4" d="M638.87,258.9a7.94,7.94,0,0,1,1,4.83,1.92,1.92,0,0,1-.29.93,2.24,2.24,0,0,1-1.88.57,6.81,6.81,0,0,1-3.11-.52,3.88,3.88,0,0,1-1.92-3.61,6.21,6.21,0,0,1,1.76-3.84c.7-.76,1.87-1.44,2.75-.86s1,1.5,1.65,2.5" transform="translate(-390.27 -62)"/><path class="cls-4" d="M776.65,290.48a7.94,7.94,0,0,1,1,4.83,1.85,1.85,0,0,1-.29.93,2.28,2.28,0,0,1-1.88.58,6.82,6.82,0,0,1-3.11-.53,3.88,3.88,0,0,1-1.92-3.61,6.21,6.21,0,0,1,1.76-3.84c.7-.76,1.87-1.44,2.74-.86s1,1.51,1.66,2.5" transform="translate(-390.27 -62)"/><path class="cls-4" d="M870.75,305.87a8,8,0,0,1,1,4.82,1.82,1.82,0,0,1-.29.94,2.24,2.24,0,0,1-1.87.57,6.71,6.71,0,0,1-3.12-.53,3.92,3.92,0,0,1-1.92-3.61,6.24,6.24,0,0,1,1.76-3.83c.71-.77,1.88-1.44,2.75-.87s1,1.51,1.66,2.51" transform="translate(-390.27 -62)"/><path class="cls-4" d="M716.56,282.29a7.94,7.94,0,0,1,1,4.83,1.86,1.86,0,0,1-.3.93,2.21,2.21,0,0,1-1.87.57,6.79,6.79,0,0,1-3.11-.52,3.91,3.91,0,0,1-1.93-3.61,6.23,6.23,0,0,1,1.77-3.84c.7-.76,1.87-1.44,2.74-.86s1.05,1.51,1.66,2.5" transform="translate(-390.27 -62)"/><path class="cls-4" d="M950.31,244.83c2.37,3.08,1.72,4.86,1.32,7a1.12,1.12,0,0,1-.32.69,1.18,1.18,0,0,1-.83.17c-1.7-.06-3.53-.26-4.79-1.38-1.58-1.4-1.74-3.77-1.43-5.83a3.81,3.81,0,0,1,.6-1.72,2.77,2.77,0,0,1,2.93-.84,4.91,4.91,0,0,1,2.52,1.9" transform="translate(-390.27 -62)"/><path class="cls-4" d="M581.85,215.1c2.37,3.07,1.72,4.85,1.32,7a1.17,1.17,0,0,1-.32.69,1.23,1.23,0,0,1-.83.17c-1.7-.06-3.53-.27-4.79-1.39-1.58-1.4-1.74-3.77-1.43-5.83a3.9,3.9,0,0,1,.6-1.72,2.78,2.78,0,0,1,2.93-.83,4.9,4.9,0,0,1,2.52,1.9" transform="translate(-390.27 -62)"/><path class="cls-4" d="M697,282.87l.17,1.12a1.63,1.63,0,0,1-1.94,2.29,7.41,7.41,0,0,1-2.2-.37,2.79,2.79,0,0,1-1.61-1.44,3,3,0,0,1-.19-1,3.5,3.5,0,0,1,.65-2.15,2.51,2.51,0,0,1,2-1,3.78,3.78,0,0,1,1.59.49,2.3,2.3,0,0,1,1,.77,7.72,7.72,0,0,1,.54,1.33" transform="translate(-390.27 -62)"/><path class="cls-4" d="M669.2,279.65l.17,1.12a1.62,1.62,0,0,1-1.94,2.29,7.11,7.11,0,0,1-2.2-.38,2.78,2.78,0,0,1-1.61-1.43,3,3,0,0,1-.19-1,3.5,3.5,0,0,1,.65-2.15,2.51,2.51,0,0,1,2-1,3.78,3.78,0,0,1,1.59.49,2.24,2.24,0,0,1,1,.77,7.72,7.72,0,0,1,.54,1.33" transform="translate(-390.27 -62)"/><path class="cls-4" d="M900.32,323.93l.18,1.13a2.17,2.17,0,0,1-.33,1.92,2.19,2.19,0,0,1-1.62.37,7,7,0,0,1-2.19-.38,2.72,2.72,0,0,1-1.61-1.43,2.61,2.61,0,0,1-.19-1,3.38,3.38,0,0,1,.65-2.15,2.48,2.48,0,0,1,2-1,3.82,3.82,0,0,1,1.6.49,2.3,2.3,0,0,1,1,.77,8.87,8.87,0,0,1,.53,1.32" transform="translate(-390.27 -62)"/><path class="cls-4" d="M908.74,257l.17,1.13a2.12,2.12,0,0,1-.33,1.91,2.15,2.15,0,0,1-1.62.37,6.76,6.76,0,0,1-2.19-.37,2.81,2.81,0,0,1-1.61-1.43,3,3,0,0,1-.19-1,3.45,3.45,0,0,1,.65-2.16,2.5,2.5,0,0,1,2-1,3.94,3.94,0,0,1,1.6.5,2.28,2.28,0,0,1,1,.76,7.72,7.72,0,0,1,.54,1.33" transform="translate(-390.27 -62)"/><path class="cls-4" d="M753.44,292.24l.17,1.12a1.63,1.63,0,0,1-1.94,2.29,7.41,7.41,0,0,1-2.2-.37,2.82,2.82,0,0,1-1.61-1.44,3,3,0,0,1-.19-1,3.5,3.5,0,0,1,.65-2.15,2.51,2.51,0,0,1,2-1,3.78,3.78,0,0,1,1.59.49,2.24,2.24,0,0,1,1,.77,7.72,7.72,0,0,1,.54,1.33" transform="translate(-390.27 -62)"/><path class="cls-4" d="M776.49,257.63c.06.38.12.75.17,1.13a2.12,2.12,0,0,1-.32,1.91,2.15,2.15,0,0,1-1.62.37,6.71,6.71,0,0,1-2.19-.37,2.78,2.78,0,0,1-1.61-1.43,2.63,2.63,0,0,1-.19-1,3.38,3.38,0,0,1,.65-2.15,2.48,2.48,0,0,1,2-1,4,4,0,0,1,1.6.5,2.19,2.19,0,0,1,1,.76,7.72,7.72,0,0,1,.54,1.33" transform="translate(-390.27 -62)"/><path class="cls-4" d="M438.31,254.14a3.47,3.47,0,0,1,1.61,1.41,1.67,1.67,0,0,1,0,1.81c-.75,1.09-2.4,1-3.72.69l-1.85-.37a1.46,1.46,0,0,1-.88-.39,1.17,1.17,0,0,1-.2-.73,2.75,2.75,0,0,1,1.4-2.32,4.87,4.87,0,0,1,3.66-.1" transform="translate(-390.27 -62)"/><path class="cls-4" d="M694,169.48a3.53,3.53,0,0,1,1.62,1.4,1.69,1.69,0,0,1,0,1.81c-.75,1.1-2.4,1-3.72.7l-1.84-.37a1.53,1.53,0,0,1-.89-.4,1.15,1.15,0,0,1-.2-.73,2.73,2.73,0,0,1,1.4-2.31,4.87,4.87,0,0,1,3.66-.1" transform="translate(-390.27 -62)"/><path class="cls-4" d="M747.14,161.8a3.53,3.53,0,0,1,1.62,1.4,1.69,1.69,0,0,1,0,1.81c-.75,1.1-2.4,1-3.72.7l-1.84-.37a1.41,1.41,0,0,1-.89-.4,1.15,1.15,0,0,1-.2-.73,2.77,2.77,0,0,1,1.4-2.31,4.87,4.87,0,0,1,3.66-.1" transform="translate(-390.27 -62)"/><path class="cls-4" d="M624.67,142.76a3.51,3.51,0,0,1,1.61,1.4,1.69,1.69,0,0,1,0,1.82c-.75,1.09-2.4,1-3.72.69l-1.84-.37a1.41,1.41,0,0,1-.89-.4,1.14,1.14,0,0,1-.2-.72,2.75,2.75,0,0,1,1.4-2.32,4.87,4.87,0,0,1,3.66-.1" transform="translate(-390.27 -62)"/><path class="cls-4" d="M458.09,286.45a3.53,3.53,0,0,1,1.61,1.41,1.67,1.67,0,0,1,0,1.81c-.75,1.09-2.4,1-3.72.7l-1.85-.37a1.53,1.53,0,0,1-.88-.4,1.15,1.15,0,0,1-.2-.73,2.73,2.73,0,0,1,1.39-2.31,4.85,4.85,0,0,1,3.67-.11" transform="translate(-390.27 -62)"/><path class="cls-4" d="M422.41,243.8a3.55,3.55,0,0,1,1.62,1.41,1.65,1.65,0,0,1,0,1.81c-.74,1.09-2.4,1-3.72.69l-1.84-.36a1.53,1.53,0,0,1-.89-.4,1.15,1.15,0,0,1-.2-.73,2.76,2.76,0,0,1,1.4-2.31,4.82,4.82,0,0,1,3.66-.11" transform="translate(-390.27 -62)"/><path class="cls-4" d="M819.92,175.78a3.5,3.5,0,0,1,1.62,1.41,1.65,1.65,0,0,1,0,1.81c-.74,1.09-2.4,1-3.71.69l-1.85-.36a1.5,1.5,0,0,1-.88-.4,1,1,0,0,1-.2-.73,2.73,2.73,0,0,1,1.39-2.31,4.82,4.82,0,0,1,3.66-.11" transform="translate(-390.27 -62)"/><path class="cls-4" d="M737.7,142.52a3.31,3.31,0,0,1,.23,1.49,1.45,1.45,0,0,1-.88,1.33,1.4,1.4,0,0,1-1.45-.48,2.63,2.63,0,0,1-.56-1.46,1.87,1.87,0,0,1,.65-1.91,1.47,1.47,0,0,1,2,1" transform="translate(-390.27 -62)"/><path class="cls-4" d="M767.66,140.71a3.45,3.45,0,0,1,.23,1.49,1.46,1.46,0,0,1-.89,1.33,1.41,1.41,0,0,1-1.45-.48,2.63,2.63,0,0,1-.56-1.46,1.86,1.86,0,0,1,.66-1.91,1.47,1.47,0,0,1,2,1" transform="translate(-390.27 -62)"/><path class="cls-4" d="M581.89,314.36a3.27,3.27,0,0,1,.23,1.48,1.45,1.45,0,0,1-.88,1.33,1.41,1.41,0,0,1-1.45-.47,2.69,2.69,0,0,1-.56-1.47,1.89,1.89,0,0,1,.65-1.91,1.47,1.47,0,0,1,2,1" transform="translate(-390.27 -62)"/><path class="cls-4" d="M550.36,285a3.39,3.39,0,0,1,.23,1.48,1.46,1.46,0,0,1-.89,1.33,1.42,1.42,0,0,1-1.45-.47,2.77,2.77,0,0,1-.56-1.47,1.87,1.87,0,0,1,.66-1.91,1.47,1.47,0,0,1,2,1" transform="translate(-390.27 -62)"/><path class="cls-4" d="M529.56,277.66a3.57,3.57,0,0,1,.23,1.48,1.46,1.46,0,0,1-.89,1.33,1.42,1.42,0,0,1-1.45-.47,2.66,2.66,0,0,1-.56-1.46,1.88,1.88,0,0,1,.66-1.92,1.48,1.48,0,0,1,2,1" transform="translate(-390.27 -62)"/><path class="cls-4" d="M795.66,121.4a3.25,3.25,0,0,1,.23,1.48,1.45,1.45,0,0,1-.89,1.33,1.39,1.39,0,0,1-1.44-.48,2.72,2.72,0,0,1-.57-1.46,1.9,1.9,0,0,1,.66-1.91,1.47,1.47,0,0,1,2,1" transform="translate(-390.27 -62)"/><path class="cls-4" d="M782.4,172.78a3.43,3.43,0,0,1,.23,1.49,1.45,1.45,0,0,1-.89,1.32,1.42,1.42,0,0,1-1.45-.47,2.66,2.66,0,0,1-.56-1.46,1.88,1.88,0,0,1,.66-1.92,1.48,1.48,0,0,1,2,1" transform="translate(-390.27 -62)"/><path class="cls-4" d="M809,110.49a3.27,3.27,0,0,1,.23,1.48,1.45,1.45,0,0,1-.88,1.33,1.41,1.41,0,0,1-1.45-.47,2.69,2.69,0,0,1-.56-1.47,1.89,1.89,0,0,1,.65-1.91,1.47,1.47,0,0,1,2,1" transform="translate(-390.27 -62)"/><path class="cls-4" d="M872.44,164.88a3.27,3.27,0,0,1,.23,1.48,1.45,1.45,0,0,1-.88,1.33,1.41,1.41,0,0,1-1.45-.47,2.69,2.69,0,0,1-.56-1.46,1.9,1.9,0,0,1,.65-1.92,1.47,1.47,0,0,1,2,1" transform="translate(-390.27 -62)"/><path class="cls-4" d="M847.79,132.15a3.41,3.41,0,0,1,.23,1.48,1.46,1.46,0,0,1-.89,1.33,1.42,1.42,0,0,1-1.45-.47,2.66,2.66,0,0,1-.56-1.46,1.88,1.88,0,0,1,.66-1.92,1.48,1.48,0,0,1,2,1" transform="translate(-390.27 -62)"/><path class="cls-4" d="M866.44,144.65a3.45,3.45,0,0,1,.23,1.49,1.46,1.46,0,0,1-.89,1.33,1.41,1.41,0,0,1-1.45-.48,2.63,2.63,0,0,1-.56-1.46,1.86,1.86,0,0,1,.66-1.91,1.47,1.47,0,0,1,2,1" transform="translate(-390.27 -62)"/><path class="cls-4" d="M607.14,141c1.45,2,1.91,4.39.7,6.35-1,1.58-2.89,2.32-4.72,2.79a7.77,7.77,0,0,1-2.83.32,3.08,3.08,0,0,1-2.36-1.4,2.3,2.3,0,0,1,.12-2.41,10.5,10.5,0,0,1,1.91-1.58,4.4,4.4,0,0,0,1.09-1.44,20.79,20.79,0,0,0,.71-2.45,3.08,3.08,0,0,1,1.51-2,2.54,2.54,0,0,1,2.24.19,5.11,5.11,0,0,1,1.63,1.61" transform="translate(-390.27 -62)"/><path class="cls-4" d="M831,106c1.45,2,1.91,4.4.7,6.35-1,1.58-2.89,2.32-4.71,2.79a7.63,7.63,0,0,1-2.84.32,3.08,3.08,0,0,1-2.36-1.4,2.28,2.28,0,0,1,.12-2.4,10.15,10.15,0,0,1,1.91-1.59,4.26,4.26,0,0,0,1.09-1.44,19.74,19.74,0,0,0,.71-2.45,3.08,3.08,0,0,1,1.51-2,2.54,2.54,0,0,1,2.24.19A5,5,0,0,1,831,106" transform="translate(-390.27 -62)"/><path class="cls-4" d="M806.71,135.3c1.45,2,1.91,4.4.7,6.36-1,1.57-2.89,2.32-4.71,2.78a7.85,7.85,0,0,1-2.84.33,3.12,3.12,0,0,1-2.36-1.41,2.28,2.28,0,0,1,.12-2.4,10.15,10.15,0,0,1,1.91-1.59,4.17,4.17,0,0,0,1.09-1.44,20.1,20.1,0,0,0,.71-2.44,3.13,3.13,0,0,1,1.51-2,2.6,2.6,0,0,1,2.24.19,5,5,0,0,1,1.63,1.61" transform="translate(-390.27 -62)"/><path class="cls-4" d="M624,152.78c.87-1.58,2-2.36,3.1-1.58.85.64,1.36,2.24,1.73,3.79a11.77,11.77,0,0,1,.37,2.48,4.34,4.34,0,0,1-.52,2.32.77.77,0,0,1-1.2.25,7.33,7.33,0,0,1-.93-1.46,2,2,0,0,0-.8-.76,6.16,6.16,0,0,0-1.26-.27,1.54,1.54,0,0,1-1.1-1,4,4,0,0,1-.07-2,5.81,5.81,0,0,1,.68-1.7" transform="translate(-390.27 -62)"/><path class="cls-4" d="M415.85,262.73c.87-1.59,2-2.37,3.09-1.58.86.63,1.37,2.23,1.74,3.79a12.25,12.25,0,0,1,.37,2.47,4.29,4.29,0,0,1-.52,2.32c-.34.49-.82.59-1.2.25a7.33,7.33,0,0,1-.93-1.46,2.09,2.09,0,0,0-.8-.75,5.56,5.56,0,0,0-1.26-.27,1.56,1.56,0,0,1-1.1-1.05,4,4,0,0,1-.07-2,5.64,5.64,0,0,1,.68-1.69" transform="translate(-390.27 -62)"/><path class="cls-4" d="M658.66,153c.88-1.59,2-2.36,3.1-1.58.86.63,1.37,2.23,1.73,3.79a11.07,11.07,0,0,1,.37,2.48,4.16,4.16,0,0,1-.52,2.32.77.77,0,0,1-1.2.25,7.7,7.7,0,0,1-.92-1.47,2.16,2.16,0,0,0-.8-.75,5.53,5.53,0,0,0-1.27-.27,1.53,1.53,0,0,1-1.09-1.05,3.93,3.93,0,0,1-.07-2,5.44,5.44,0,0,1,.67-1.7" transform="translate(-390.27 -62)"/><path class="cls-4" d="M718,156.49c.87-1.59,2-2.37,3.1-1.58.85.63,1.36,2.23,1.73,3.79a11.07,11.07,0,0,1,.37,2.47,4.2,4.2,0,0,1-.52,2.32c-.34.49-.82.59-1.2.25a7.8,7.8,0,0,1-.93-1.46,2.07,2.07,0,0,0-.79-.75,5.64,5.64,0,0,0-1.27-.27,1.57,1.57,0,0,1-1.1-1,4,4,0,0,1-.07-2,5.64,5.64,0,0,1,.68-1.69" transform="translate(-390.27 -62)"/><path class="cls-4" d="M829.24,151c.87-1.59,2-2.37,3.09-1.58.86.63,1.37,2.23,1.74,3.79a12.36,12.36,0,0,1,.37,2.47,4.29,4.29,0,0,1-.52,2.32c-.34.49-.82.59-1.2.25a7.33,7.33,0,0,1-.93-1.46,2.09,2.09,0,0,0-.8-.75,5.56,5.56,0,0,0-1.26-.27,1.56,1.56,0,0,1-1.1-1,4,4,0,0,1-.07-2,5.64,5.64,0,0,1,.68-1.69" transform="translate(-390.27 -62)"/><path class="cls-4" d="M591.41,315.13c.87-1.59,2-2.36,3.09-1.58.86.63,1.37,2.23,1.74,3.79a12.35,12.35,0,0,1,.37,2.48,4.34,4.34,0,0,1-.52,2.32.78.78,0,0,1-1.21.25,7.7,7.7,0,0,1-.92-1.47,2.09,2.09,0,0,0-.8-.75,6.16,6.16,0,0,0-1.26-.27,1.53,1.53,0,0,1-1.1-1,4,4,0,0,1-.07-2,5.55,5.55,0,0,1,.68-1.7" transform="translate(-390.27 -62)"/><path class="cls-4" d="M837.54,131.06a2.94,2.94,0,0,1-.32,2.91,2.31,2.31,0,0,1-1.93,1.18,2.27,2.27,0,0,1-2-1.11,4,4,0,0,1-.32-2.25,3.25,3.25,0,0,1,.34-1.48,2.12,2.12,0,0,1,2.28-.9,2.88,2.88,0,0,1,1.92,1.65" transform="translate(-390.27 -62)"/><path class="cls-4" d="M896,159.46a2.94,2.94,0,0,1-.32,2.91,2.22,2.22,0,0,1-3.89.07,4,4,0,0,1-.33-2.25,3.42,3.42,0,0,1,.34-1.48,2.14,2.14,0,0,1,2.29-.9,2.84,2.84,0,0,1,1.91,1.65" transform="translate(-390.27 -62)"/><path class="cls-4" d="M884.22,147.12a2.72,2.72,0,0,1,1.31,2.53c0,2.3-.25,4.9-2,6.38a7.43,7.43,0,0,1-4.46,1.33,25.9,25.9,0,0,1-3.63-.1c-1.65-.16-3.45-.59-4.39-1.92a4.41,4.41,0,0,1-.71-2.2,7.77,7.77,0,0,1,4.84-7.5,9.19,9.19,0,0,1,9.09,1.48" transform="translate(-390.27 -62)"/><path class="cls-4" d="M762.45,159.84a8,8,0,0,1,1,4.83,1.93,1.93,0,0,1-.3.93,2.24,2.24,0,0,1-1.87.57,6.83,6.83,0,0,1-3.12-.52,3.92,3.92,0,0,1-1.92-3.61A6.24,6.24,0,0,1,758,158.2c.71-.77,1.88-1.44,2.75-.86s1.05,1.5,1.66,2.5" transform="translate(-390.27 -62)"/><path class="cls-4" d="M538.63,292.29a7.91,7.91,0,0,1,1,4.82,1.93,1.93,0,0,1-.3.94,2.24,2.24,0,0,1-1.87.57,6.71,6.71,0,0,1-3.12-.53,3.92,3.92,0,0,1-1.92-3.61,6.22,6.22,0,0,1,1.76-3.83c.71-.77,1.88-1.44,2.75-.87s1,1.51,1.66,2.51" transform="translate(-390.27 -62)"/><path class="cls-4" d="M671.75,145.71a7.94,7.94,0,0,1,1,4.83,1.76,1.76,0,0,1-.29.93,2.28,2.28,0,0,1-1.88.58,6.82,6.82,0,0,1-3.11-.53,3.9,3.9,0,0,1-1.92-3.61,6.21,6.21,0,0,1,1.76-3.84c.7-.76,1.87-1.44,2.75-.86s1,1.51,1.65,2.5" transform="translate(-390.27 -62)"/><path class="cls-4" d="M781.48,127.86c2.37,3.07,1.72,4.85,1.32,7a1.17,1.17,0,0,1-.32.69,1.23,1.23,0,0,1-.83.17c-1.7-.06-3.53-.27-4.79-1.39-1.57-1.4-1.74-3.77-1.42-5.83a3.76,3.76,0,0,1,.59-1.72A2.79,2.79,0,0,1,779,126a4.81,4.81,0,0,1,2.52,1.9" transform="translate(-390.27 -62)"/><path class="cls-4" d="M504.77,280.79c2.37,3.08,1.72,4.86,1.32,7a1.12,1.12,0,0,1-.32.69,1.18,1.18,0,0,1-.83.17c-1.7-.06-3.53-.26-4.79-1.38-1.57-1.4-1.74-3.77-1.42-5.83a3.68,3.68,0,0,1,.59-1.72,2.77,2.77,0,0,1,2.93-.84,4.91,4.91,0,0,1,2.52,1.9" transform="translate(-390.27 -62)"/><path class="cls-4" d="M646.62,150.91c0,.37.11.75.17,1.12a1.63,1.63,0,0,1-1.95,2.29,7.34,7.34,0,0,1-2.19-.37,2.79,2.79,0,0,1-1.61-1.44,3,3,0,0,1-.19-1,3.44,3.44,0,0,1,.65-2.15,2.5,2.5,0,0,1,2-1,3.78,3.78,0,0,1,1.6.49,2.3,2.3,0,0,1,1,.77,8.61,8.61,0,0,1,.54,1.33" transform="translate(-390.27 -62)"/><path class="cls-4" d="M475,278.3c.06.38.12.76.17,1.13a2.14,2.14,0,0,1-.32,1.92,2.19,2.19,0,0,1-1.62.37,7,7,0,0,1-2.19-.38,2.75,2.75,0,0,1-1.61-1.43,2.61,2.61,0,0,1-.19-1,3.43,3.43,0,0,1,.64-2.15,2.51,2.51,0,0,1,2-1,3.87,3.87,0,0,1,1.6.49,2.21,2.21,0,0,1,1,.77,7.62,7.62,0,0,1,.54,1.32" transform="translate(-390.27 -62)"/><path class="cls-4" d="M846.79,175.17l.17,1.12a1.62,1.62,0,0,1-1.94,2.29,7.29,7.29,0,0,1-2.19-.37,2.77,2.77,0,0,1-1.61-1.44,2.58,2.58,0,0,1-.19-1,3.43,3.43,0,0,1,.64-2.15,2.51,2.51,0,0,1,2-1,3.87,3.87,0,0,1,1.6.49,2.21,2.21,0,0,1,1,.77,7.72,7.72,0,0,1,.54,1.33" transform="translate(-390.27 -62)"/><path class="cls-4" d="M791.38,162.83l.17,1.12a1.62,1.62,0,0,1-1.94,2.29,7.41,7.41,0,0,1-2.2-.37,2.54,2.54,0,0,1-1.8-2.47,3.5,3.5,0,0,1,.65-2.15,2.51,2.51,0,0,1,2-1,3.87,3.87,0,0,1,1.6.49,2.21,2.21,0,0,1,1,.77,7.72,7.72,0,0,1,.54,1.33" transform="translate(-390.27 -62)"/><path class="cls-4" d="M699.91,143.47l.17,1.13a1.62,1.62,0,0,1-1.94,2.28,7.41,7.41,0,0,1-2.2-.37,2.79,2.79,0,0,1-1.61-1.44,3,3,0,0,1-.19-1,3.5,3.5,0,0,1,.65-2.15,2.51,2.51,0,0,1,2-1,3.78,3.78,0,0,1,1.59.49,2.3,2.3,0,0,1,1,.77,7.72,7.72,0,0,1,.54,1.33" transform="translate(-390.27 -62)"/><path class="cls-4" d="M427,286.16l.18,1.13a1.63,1.63,0,0,1-1.95,2.28,6.76,6.76,0,0,1-2.19-.37,2.78,2.78,0,0,1-1.61-1.43,2.63,2.63,0,0,1-.19-1,3.38,3.38,0,0,1,.65-2.15,2.48,2.48,0,0,1,2-1,4,4,0,0,1,1.6.5,2.28,2.28,0,0,1,1,.76,8.57,8.57,0,0,1,.53,1.33" transform="translate(-390.27 -62)"/><path class="cls-5" d="M424,346.54c-1.08-.19-2.07.72-2.78,1.55a2.1,2.1,0,0,0,.4,2.78,6.19,6.19,0,0,0,2.86,1.23,133.51,133.51,0,0,0,22.95,3.4c4.13.25,8.71.15,11.78-2.57-.87-1.34-2.68-1.69-4.28-1.93L424,346.54" transform="translate(-390.27 -62)"/><path class="cls-5" d="M500.92,371.52c-1.25.17-2.11.65-1.9,1.63s1.27,1.5,2.22,1.87a105.48,105.48,0,0,0,29.7,6.7c8.62.67,17.31.28,25.88,1.31,7.91,1,15.78,3.11,23.72,2.46.82-.07,1.88-.42,1.85-1.23a50.84,50.84,0,0,0-11.28-2.7q-16.83-2.69-33.69-5.19a107.17,107.17,0,0,0-11.57-1.29,71.42,71.42,0,0,1-8.28-.43c-5.62-.89-11-4-16.65-3.13" transform="translate(-390.27 -62)"/><path class="cls-5" d="M630.36,385.21c-.78.6-1,.89-.73,1.49a2.32,2.32,0,0,0,1.55,1.11c14.17,4.82,29.66.86,44.65.17,6.53-.3,13.09,0,19.63,0,1.55,0,3.69-.7,3.38-2.19-.2-.94-1.3-1.35-2.25-1.57-10.29-2.29-20.92.75-31.43,1.6-10.33.83-20.7-.46-31-1.23a5.51,5.51,0,0,0-3.77.64" transform="translate(-390.27 -62)"/><path class="cls-5" d="M745.31,382.41a6.6,6.6,0,0,0-1.42,3.53c7.33,3.28,15.6,4,23.66,3.79s16.1-1.11,24.16-.9c6.27.17,12.65,1,18.74-.47.9-.22,2-.8,1.82-1.69-3.52-1.6-7.5-1.89-11.38-1.92-9-.08-18.07,1.08-26.94-.36-4.47-.72-8.86-2.1-13.38-2.18-5.26-.09-14.14-1.67-15.26.2" transform="translate(-390.27 -62)"/><path class="cls-5" d="M922.22,383.81q-2.85,4.51-5.89,8.87-19.3-.17-38.62-.78c-1.49,0-3.47-.55-3.47-2,0-1.29,1.59-1.91,2.88-2.18A196.72,196.72,0,0,1,922.22,383.81Z" transform="translate(-390.27 -62)"/><path class="cls-5" d="M494.5,146.11a2.64,2.64,0,0,0-2.46.26,1.62,1.62,0,0,0-.59,2.09,4.53,4.53,0,0,0,1.63,1.74,102.13,102.13,0,0,0,15.21,9.36c2.85,1.42,6.14,2.74,9.17,1.74-.19-1.21-1.36-2-2.43-2.66L494.5,146.11" transform="translate(-390.27 -62)"/><path class="cls-5" d="M865.73,206.73a4.49,4.49,0,0,0-2.89,1.92c-.6.77.1,1.62,1.18,1.94a10.86,10.86,0,0,0,3.67.12,252.66,252.66,0,0,0,27.84-3.82c4.92-1,10.29-2.29,13.22-5.15-1.36-.75-3.57-.51-5.52-.24l-37.5,5.23" transform="translate(-390.27 -62)"/><path class="cls-5" d="M568.4,178.24c-1,0-1.69.27-1.64,1s.81,1.29,1.5,1.67a81.35,81.35,0,0,0,22,8.34c6.52,1.44,13.22,2.07,19.68,3.79,5.95,1.58,11.73,4.08,17.89,4.44.64,0,1.49-.12,1.56-.74a39,39,0,0,0-8.34-3.29q-12.6-3.87-25.23-7.61a81.93,81.93,0,0,0-8.72-2.23,55.44,55.44,0,0,1-6.29-1.22c-4.21-1.29-8-4.27-12.41-4.19" transform="translate(-390.27 -62)"/><path class="cls-5" d="M678.75,206.5c-.67.37-.84.57-.73,1.06s.6.79,1.06,1c10.29,5.26,22.61,3.94,34.16,5.08,5,.49,10,1.48,15,2.16,1.19.16,2.9-.13,2.84-1.31,0-.73-.84-1.18-1.55-1.44-7.6-2.9-16.1-1.75-24.25-2.26s-15.79-2.65-23.61-4.38a4.23,4.23,0,0,0-3,.07" transform="translate(-390.27 -62)"/><path class="cls-5" d="M768.66,212.67a5,5,0,0,0-.8,2.83c5.92,1.94,12.34,1.81,18.53,1s12.3-2.13,18.52-2.6c4.84-.37,9.82-.2,14.38-1.84.68-.24,1.47-.77,1.27-1.45a21.76,21.76,0,0,0-8.92-.58c-6.93.66-13.82,2.27-20.77,1.86-3.5-.21-7-.93-10.48-.63-4,.35-11-.16-11.73,1.37" transform="translate(-390.27 -62)"/><path class="cls-5" d="M675.42,602.16c-18.06,9.94-40.33,9.15-59.52,16.79a118.46,118.46,0,0,0-11.66,5.56q-9.54-2.6-18.8-5.81l17.89-7.28c4.69-1.91,9.43-3.83,14.43-4.7,6.43-1.12,13-.47,19.55-1.08,13.78-1.29,26.67-8.17,40.51-8.38C679.31,598.77,677.29,601.13,675.42,602.16Z" transform="translate(-390.27 -62)"/><path class="cls-5" d="M712.92,579.87c9.29-10.22,19.44-19.41,28.73-29.64,3.23-3.55,6.52-7.17,10.7-9.6,4.7-2.74,10.19-3.79,15.56-4.81l43-8.12c1.48,1.38,1.32,3.86.16,5.51a11.46,11.46,0,0,1-4.89,3.48c-9.23,4.18-19.33,6.16-28.84,9.7-22.14,8.24-40,24.45-58.79,38.55-1.88,1.42-4.34,2.87-6.46,1.82-2-1.47-1.77-4.77.85-6.89Z" transform="translate(-390.27 -62)"/><path class="cls-5" d="M933.17,497.33q-4.33,7-9.08,13.7c-2,.77-4,1.46-6,2.11a408.62,408.62,0,0,1-60.3,14.54c-5.85,1-12.36,1.64-17.24-1.65-.31-1.29,1-2.37,2.15-3,9.82-5.65,21.46-7.13,32.67-9.15A299.34,299.34,0,0,0,933.17,497.33Z" transform="translate(-390.27 -62)"/></svg>